<?xml version="1.0" encoding="utf-8"?>
<!-- Generator: Adobe Illustrator 19.0.0, SVG Export Plug-In . SVG Version: 6.00 Build 0)  -->
<svg version="1.1" id="Layer_1" xmlns="http://www.w3.org/2000/svg" xmlns:xlink="http://www.w3.org/1999/xlink" x="0px" y="0px"
	 viewBox="0 0 960 100" style="enable-background:new 0 0 960 100;" xml:space="preserve">
<style type="text/css">
	.st0{fill:none;}
</style>
<path id="XMLID_6_" class="st0" d="M131.4,39.6c2.3-1.6,4.6-2.5,5.4-4.1c3.1-6.1,8.2-6.7,14.1-6.1c2.1,0.2,4.3,0,6.4,0
	c223.1,0,446.2,0,669.2-0.1c6,0,11.8-0.3,13.8,7.1c0.1,0.4,0.5,0.7,0.8,1c2.8,2.9,5.2,2.6,7-1c0.4-0.8,0.5-1.6,0.9-2.4
	c2.6-5.6,5.7-6.1,9.4-1.2c1.6,2,2.9,4.3,4.4,6.3c1.9,2.5,4.1,3.9,7.1,1.6c2.1-1.6,4-1.1,5.9,0.3c6.5,4.8,9.2,17.4,5.4,24.7
	c-1.8,3.5-4.6,5.3-8.4,4.6c-2.7-0.5-5.2-1.7-7.8-2.8c-2-0.8-3.7-2.2-5.7-2.9c-5.5-1.9-10.5,1.1-11.7,6.7c-1.3,6.1,2.7,11.7,9.1,12.4
	c7.8,0.9,15.2-1,21.3-5.6c6.6-4.9,9.6-11.6,7.9-20.3c-3.1-15.2-12-25.3-25.7-31.7c-1.7-0.8-3.5-1.7-5.2-2.5c0.2-0.5,0.4-1,0.6-1.5
	c5.6,1.4,11.2,2.6,16.6,4.4c2.5,0.8,5.3,2.5,6.7,4.6c3,4.5,5.5,9.4,8.8,13.8c1.7,2.3,2,5.5,3.1,8.9c8.5-1.1,10.8,5.3,13.3,11.7
	c7.1,0.4,11.8,4.5,15.9,11.4c-0.1-8.4,3.6-13.9,7.6-18.5c-2-4.5-4.8-8.4-5.5-12.7c-0.7-4.2,0.7-8.7,1.2-13.4
	c-5.9-0.3-11.4-1.9-16-5.7c-2.3-1.9-4.3-4.2-6.6-6.1c-1-0.9-2.6-1.9-3.8-1.7c-5.4,0.9-10.7,2.1-16.4,3.3
	c19.7,11.8,21.7,13.4,23.5,19.4c-2.3-1.7-4.4-3.3-6.4-4.8c-10.9-8.1-22.8-13.9-36.3-15.6c-7.6-1-15.4-1.1-23.1-1.1
	c-233-0.1-465.9,0-698.9,0c-2.1,0-4.3,0-6.4-0.1C112.3,19,94,25.6,77.7,38.4c-1.6,1.3-3.3,2.5-4.9,3.7c5.2-9.9,14.7-14.6,24.5-20.1
	c-5.8-1.2-10.6-2.1-15.4-3.3c-2.5-0.6-4,0.3-5.5,2.1c-5.6,6.7-12.5,11-21.5,11.4c-0.3,0-0.5,0.6-1,1.1c3.8,8.8,2.6,17-3.7,23.2
	c3.2,6.5,6,12.1,8.8,17.8c3.4-5,8.1-8.7,14.8-9.1c2.2-6.8,5.1-12.5,13.1-11.7c0.5-1.3,1-2.1,1.1-2.9c1.1-8,8.3-12.7,10.9-19.9
	c0.2-0.5,0.8-1,1.3-1.4c4.4-3.9,16.7-7.2,23-6.2c-0.1,0.2-0.2,0.4-0.4,0.5c-1.9,0.9-3.9,1.8-5.8,2.7c-14.8,6.9-23.5,18.4-25.6,34.6
	c-0.3,2,0,4.3,0.7,6.2c4.3,11.2,15.7,17.7,28.4,16.6c4.5-0.4,7.8-2.4,9.3-6.7c1.4-4.1,0.1-8.9-2.8-11.2c-3.8-3-7.6-2-11.4,0
	c-2.3,1.2-4.4,2.8-6.8,3.7c-6.4,2.5-11.2,0.3-13-6.3c-2.3-8.1-0.1-15.3,5.5-21.4c1.9-2.1,4.2-3.1,6.8-1.1c3,2.3,5.2,0.7,7.1-1.7
	c1.6-2,2.8-4.3,4.4-6.4c3.5-4.6,6.7-4.3,9.2,0.8C129.6,35.3,130.3,37,131.4,39.6z"/>
<path id="XMLID_3_" d="M131.4,39.6c-1.1-2.6-1.8-4.3-2.6-6c-2.5-5.1-5.6-5.4-9.2-0.8c-1.6,2-2.8,4.3-4.4,6.4c-1.8,2.4-4,4-7.1,1.7
	c-2.7-2-5-0.9-6.8,1.1c-5.6,6.1-7.8,13.3-5.5,21.4c1.9,6.6,6.6,8.8,13,6.3c2.4-0.9,4.5-2.5,6.8-3.7c3.8-2,7.6-3,11.4,0
	c2.9,2.3,4.2,7.1,2.8,11.2c-1.5,4.4-4.9,6.3-9.3,6.7c-12.7,1.2-24.1-5.4-28.4-16.6c-0.7-1.9-1-4.2-0.7-6.2
	c2.2-16.2,10.9-27.7,25.6-34.6c1.9-0.9,3.9-1.8,5.8-2.7c0.2-0.1,0.2-0.3,0.4-0.5c-6.3-1-18.6,2.3-23,6.2c-0.5,0.4-1.1,0.8-1.3,1.4
	c-2.6,7.2-9.8,11.9-10.9,19.9c-0.1,0.8-0.6,1.6-1.1,2.9c-8.1-0.8-10.9,4.9-13.1,11.7c-6.7,0.4-11.5,4.1-14.8,9.1
	c-2.8-5.7-5.6-11.4-8.8-17.8c6.3-6.2,7.4-14.4,3.7-23.2c0.5-0.5,0.7-1.1,1-1.1c9-0.4,15.9-4.7,21.5-11.4c1.5-1.8,3-2.8,5.5-2.1
	c4.7,1.2,9.6,2.1,15.4,3.3C87.4,27.5,78,32.3,72.8,42.2c1.6-1.2,3.3-2.4,4.9-3.7C94,25.6,112.3,19,133.2,19.7
	c2.1,0.1,4.3,0.1,6.4,0.1c233,0,465.9,0,698.9,0c7.7,0,15.5,0.2,23.1,1.1c13.5,1.7,25.4,7.5,36.3,15.6c2.1,1.5,4.1,3.1,6.4,4.8
	c-1.8-6-3.7-7.6-23.5-19.4c5.7-1.2,11.1-2.5,16.4-3.3c1.1-0.2,2.7,0.8,3.8,1.7c2.3,1.9,4.3,4.2,6.6,6.1c4.6,3.9,10.1,5.4,16,5.7
	c-0.5,4.7-1.9,9.2-1.2,13.4c0.7,4.2,3.4,8.1,5.5,12.7c-4,4.6-7.7,10-7.6,18.5c-4.2-6.9-8.9-11-15.9-11.4
	c-2.5-6.3-4.8-12.7-13.3-11.7c-1.1-3.3-1.5-6.6-3.1-8.9c-3.3-4.4-5.8-9.3-8.8-13.8c-1.4-2.1-4.2-3.8-6.7-4.6
	c-5.4-1.8-11.1-3-16.6-4.4c-0.2,0.5-0.4,1-0.6,1.5c1.7,0.8,3.4,1.7,5.2,2.5c13.7,6.4,22.6,16.5,25.7,31.7c1.8,8.7-1.3,15.4-7.9,20.3
	c-6.2,4.6-13.6,6.5-21.3,5.6c-6.4-0.7-10.4-6.3-9.1-12.4c1.2-5.6,6.2-8.5,11.7-6.7c2,0.7,3.8,2,5.7,2.9c2.5,1.1,5.1,2.3,7.8,2.8
	c3.8,0.7,6.6-1.1,8.4-4.6c3.8-7.3,1.1-19.9-5.4-24.7c-1.9-1.4-3.8-1.9-5.9-0.3c-3,2.3-5.2,0.8-7.1-1.6c-1.6-2-2.9-4.3-4.4-6.3
	c-3.7-4.8-6.8-4.4-9.4,1.2c-0.4,0.8-0.5,1.6-0.9,2.4c-1.8,3.6-4.2,3.9-7,1c-0.3-0.3-0.7-0.6-0.8-1c-2-7.4-7.8-7.1-13.8-7.1
	c-223.1,0.1-446.2,0.1-669.2,0.1c-2.1,0-4.3,0.2-6.4,0c-5.9-0.6-11,0-14.1,6.1C136,37.1,133.7,37.9,131.4,39.6z M819.5,24.1
	c-0.1-0.7-0.1-1.4-0.2-2.1c-218.3,0-436.5,0-654.8,0c-1.7,0-3.4,0.2-5.1,0.4c-0.1,0-0.3,0.2-0.4,0.4c-0.1,0.2,0,0.4-0.1,0.8
	c5,3.6,10.8,3.4,16.6,3.4c208.6,0,417.3,0,625.9,0c1.9,0,3.9,0.2,5.8-0.1C811.4,26.1,815.5,25,819.5,24.1z"/>
<path id="XMLID_2_" class="st0" d="M819.5,24.1c-4.1,0.9-8.2,2-12.3,2.7c-1.9,0.3-3.9,0.1-5.8,0.1c-208.6,0-417.3,0-625.9,0
	c-5.8,0-11.6,0.2-16.6-3.4c0-0.4,0-0.6,0.1-0.8c0.1-0.2,0.2-0.4,0.4-0.4c1.7-0.1,3.4-0.4,5.1-0.4c218.3,0,436.5,0,654.8,0
	C819.4,22.7,819.5,23.4,819.5,24.1z"/>
</svg>
