<?xml version="1.0" encoding="utf-8"?>
<!-- Generator: Adobe Illustrator 19.0.0, SVG Export Plug-In . SVG Version: 6.00 Build 0)  -->
<svg version="1.1" id="Layer_1" xmlns="http://www.w3.org/2000/svg" xmlns:xlink="http://www.w3.org/1999/xlink" x="0px" y="0px"
	 viewBox="-594 38 90 75" style="enable-background:new -594 38 90 75;" xml:space="preserve">
<style type="text/css">
	.st0{fill:#142436;}
	.st1{enable-background:new    ;}
</style>
<g id="Layer_1_1_">
	<g id="XMLID_31_">
		<path id="XMLID_21_" class="st0" d="M-548.2,44c-0.2,1.8,0.4,3,1.9,4.1c1,0.7,0.8,1.3-0.3,1.8c-1.3,0.5-1.4,1.7-2,2.9
			c-0.5-1.5-0.9-2.8-2.4-3.2c-0.3-0.1-0.4-0.4-0.3-0.8c0.1-0.2,0.2-0.6,0.3-0.7c1.6-0.9,2.3-2.3,2.2-4.1
			C-548.5,44-548.3,44-548.2,44z"/>
		<path id="XMLID_36_" class="st0" d="M-538.6,68c2-0.3,3.8,0,5.6-0.2c0.6-0.1,1.9,0.1,1-1.3c-0.3-0.4,0-0.9,0.6-1
			c0.5-0.1,0.8,0.3,0.9,0.8c0.1,0.8-0.4,1.4-1.1,1.8c-0.7,0.4-1.5,0.4-2.4,0.7c1.4,1.5,2.1,3,1.7,5c-0.6,2.2-1.9,3.7-4,4.5
			c-0.7,0.3-1.3,0.2-1.6-0.6c-0.3-0.9,0.5-0.9,0.9-1.1c3.1-1.2,4.3-4.4,2.4-6.7c-1.5-1.8-4.4-1.7-5.5,0.3c-0.4,0.7-0.5,1.5-0.2,2.3
			c0.4,1.1,0.9,1.2,1.7,0.3c0.1-0.1,0.2-0.3,0.4-0.4c0.6-0.5,1.2-0.7,1.9-0.4c0.4,0.1,0.5,0.4,0.5,0.8c-0.1,0.7-0.6,1.2-1.2,1.4
			c-0.8,0.4-2.1,0.2-1.9,1.8c0.2,1.4,0.8,2.8,2.1,3.2c1.3,0.4,2.5,0.4,3.6-0.5c0.6-0.5,0.8-1.1,1.1-1.8c0.6-1.3,1.7-2.2,3-2.7
			c1.2-0.5,1.6-0.1,1.7,1c0,0.2,0.1,0.4,0.1,0.8c0.9-0.8,1.7-1.7,2.9-2s1.5-0.1,1.3,1.1c-0.1,0.8,0.2,0.9,0.8,0.9
			c1.1-0.1,2,0.1,2.6,1.2c0.3,0.5,0.3,1.1-0.2,1.4s-0.9,0-1.2-0.5c-0.8-1.3-1.8-1.6-3.3-1c-1.2,0.5-2.2,1.3-3.1,2.2
			c-3.3,2.9-8,2.8-11.1-0.3c-0.4-0.4-0.9-0.6-1.4-0.7c-1.9-0.4-3.5-1.3-5.1-2.3c-0.2-0.1-0.3-0.3-0.5-0.4c-0.3-0.3-0.5-0.6-0.3-0.9
			c0.3-0.4,0.6-0.2,0.9,0c1.2,0.7,2.4,1.3,3.7,1.7c0.5,0.1,1.2,0.6,1.4-0.1c0.3-0.7,0.4-1.4-0.1-2.2c-1.4-2.1-3.6-2.1-5.7-2.3
			c-3-0.3-5.9-0.2-8.9,0.5c-1.2,0.3-2.7,2-2.7,3.2c0,1,0.3,1.4,1.3,1.1c1.3-0.4,2.5-1,3.7-1.7c0.4-0.2,0.8-0.8,1.2-0.2
			c0.4,0.6-0.2,0.9-0.7,1.2c-0.7,0.4-1.3,0.8-2,1.2c-2.1,1.1-4.4,1.9-6.4,3.3c-2.7,1.8-5.9,1.4-8.6-0.6c-1.2-0.8-2.2-2-3.6-2.6
			c-1.6-0.7-2.5-0.4-3.5,1c-0.3,0.4-0.6,0.6-1.1,0.4c-0.4-0.2-0.6-0.7-0.4-1.1c0.4-1.1,1.3-1.5,2.4-1.4c0.8,0,1.6,0.2,1.2-1.2
			c-0.3-0.8,0.3-1.1,1.1-0.9c1.1,0.3,1.9,0.8,3.2,2.2c0.1-0.1,0.2-0.1,0.2-0.2c0.1-2.3,0.4-2.4,2.5-1.4c1.2,0.6,1.9,1.6,2.4,2.8
			c0.8,1.8,2.1,2.4,3.9,2.1c1.5-0.3,2.5-1.6,2.7-3.3c0.1-0.9-0.1-1.5-1.2-1.6c-0.4,0-0.8-0.3-1.2-0.6c-0.5-0.4-1.1-0.9-0.6-1.7
			c0.4-0.6,1.2-0.5,1.8-0.2c0.3,0.2,0.7,0.4,0.9,0.8c0.7,1.1,1.2,0.4,1.5-0.2c0.6-1,0.4-2-0.4-2.9c-0.8-1-2.7-1.4-3.7-0.9
			c-1.4,0.7-2.4,1.8-2.4,3.3c-0.1,1.7,0.9,3,2.3,3.9c0.4,0.3,0.9,0.4,1.3,0.6c0.4,0.2,1.1,0.2,0.8,0.9c-0.3,0.6-0.7,0.9-1.5,0.7
			c-2.1-0.6-4.1-3.1-4.3-5.3c-0.1-1.7,0.6-3,1.6-4.2c-0.5-0.4-1.1-0.2-1.5-0.4c-0.8-0.4-1.5-0.9-1.8-1.8c-0.1-0.4,0.1-0.8,0.4-1
			c0.3-0.2,0.6-0.2,0.9,0c0.3,0.3,0.4,0.6,0.2,0.9c-0.7,1.2,0.3,1.1,0.9,1.2c1.8,0.2,3.7-0.2,5.7,0.3c-0.9-1.5-1.9-2.7-1.9-4.3
			c-0.1-2.7,0.9-4.3,3.3-5.4c1.1-0.5,2.3-0.9,3.5-1.3c1.1-0.4,2-1,2.8-1.9c0.3-0.4,0.4-0.8,0-1.1c-0.5-0.4-0.5,0.2-0.7,0.4
			c-0.3,0.4-0.6,0.5-1,0.3s-0.5-0.5-0.4-0.9s0.3-0.7,0.7-0.8s0.8,0,1.2,0c0-0.1,0-0.2,0-0.2c-0.5-0.5-1-1-0.7-1.8
			c0.1-0.3,0.4-0.6,0.8-0.6c0.8,0,1.3,0.7,1.5,1.3c0.7,2.1,1.1,4.2-0.8,6c-0.4,0.4-0.5,0.8,0,1.2c0.6,0.6,1.2,1.2,1.6,2.3
			c0.2-0.3,0.2-0.4,0.3-0.5c1.2-1.4,2.1-2.7,0.4-4.5c-0.9-1.1-0.4-2.9,0.1-4.3c0.3-0.8,0.8-1.8,1.9-1.3c1.1,0.5,0.4,1.4,0.1,2.1
			c0.2,0.4,0.6,0.2,0.9,0.3c0.4,0.2,0.7,0.4,0.7,0.9c0,0.4-0.2,0.7-0.6,0.8c-0.4,0.2-0.8,0.1-1.1-0.3c-0.2-0.2-0.1-0.8-0.7-0.4
			c-0.4,0.3-0.4,0.7,0,1.1c0.9,1.1,2.2,1.6,3.4,2.1c1,0.3,2,0.6,3,1.1c3.3,1.5,4.3,4.7,2.4,7.9C-537.8,66.8-538.2,67.3-538.6,68z
			 M-544,62.6c-0.1-1.2-0.5-2-1.1-2.9c-0.4-0.6-0.8-0.5-1.3-0.1c-1.8,1.7-2,4.8-0.3,6.8c0.3,0.4,0.6,0.4,0.9,0
			C-544.8,65.3-544.1,64-544,62.6z M-549.2,62.4c0-0.8-0.6-1.7-1.3-2.5c-0.6-0.7-1.1-0.5-1.6,0.1c-1.3,1.7-0.9,5.1,0.8,6.5
			c0.5,0.4,0.8,0.2,1.1-0.2C-549.6,65.1-549.2,64-549.2,62.4z M-548.5,69.6c2,0.2,3.9,0.4,5.9,0.7c0.6,0.1,1,0,1.1-0.7
			c0.1-0.8-0.5-0.7-1-0.7c-0.3,0-0.7,0-0.9,0.2c-0.6,0.4-1.1,0.3-1.5-0.3c-0.8-0.9-1.9-0.9-2.8-0.2c-0.6,0.5-0.9,0.4-1.4-0.1
			c-0.7-0.6-1.6-0.8-2.3-0.2c-0.9,0.8-1.6,1.1-2.7,0.5c-0.3-0.2-0.8-0.1-1.1,0.3c-0.2,0.2-0.1,0.5,0,0.7c0.2,0.5,0.7,0.3,1.1,0.3
			C-552.3,70.1-550.4,69.9-548.5,69.6z M-557.4,63.2c0.1,1.6,1,2.6,1.9,3.7c0.2,0.3,0.6,0.3,0.7-0.1c0.4-1.4,1.1-2.7,0.4-4.1
			c-0.4-0.8-1-1.7-1.9-1.5C-557.2,61.3-557.2,62.4-557.4,63.2z M-542.9,64.2c0.2,0.9,0,2.5,0.9,2.7s1.4-1.3,1.9-2.2
			c0.7-1.2,0.4-2.3-0.3-3.4c-0.2-0.4-0.6-0.3-0.9-0.1C-542.4,61.8-542.9,62.8-542.9,64.2z M-549.9,55.9c-1.8,2.3-5.2,1.9-7.1,4.3
			c1.5-0.2,2.3,0.8,3.3,1.7C-553.4,59.2-550.8,58.1-549.9,55.9z M-547.1,55.9c0.1,0.8,0.5,1.3,1.1,1.8c0.8,0.6,1.4,1.4,2,2.3
			c0.3,0.5,0.4,1.4,0.8,1.5c0.6,0.2,1-0.7,1.5-1c1.4-0.8,1.3-1-0.1-1.7C-543.6,57.9-545.7,57.5-547.1,55.9z"/>
		<path id="XMLID_12_" class="st0" d="M-519.5,104.2c-2.8,0-5.6,0-8.4,0c-0.4,0-1.2,0.2-1.2-0.4s0.7-0.4,1.1-0.4
			c5.7,0,11.4,0,17.1,0c0.2,0,0.3,0,0.5,0c0.3,0,0.6,0.1,0.6,0.4c0,0.4-0.4,0.4-0.7,0.4c-0.4,0-0.9,0-1.3,0
			C-514.3,104.2-516.9,104.2-519.5,104.2z"/>
		<path id="XMLID_11_" class="st0" d="M-577.7,104.2c-2.8,0-5.7,0-8.5,0c-0.4,0-1.1,0.2-1.1-0.4s0.7-0.4,1.1-0.4
			c5.7,0,11.5,0,17.2,0c0.4,0,1-0.2,1,0.5c0,0.5-0.6,0.4-1,0.4C-572,104.2-574.8,104.1-577.7,104.2z"/>
		<path id="XMLID_10_" class="st0" d="M-550.7,76.8c-0.1-0.5,0.2-0.8,0.3-1.2c0.2-0.9-0.2-1.7-0.9-2.2c-0.5-0.3-1.1-0.6-1.1,0.4
			c0,0.5-0.2,0.8-0.7,0.9c-0.4,0.1-0.8-0.2-0.9-0.6c-0.2-0.5,0-0.8,0.3-1.2c0.8-0.8,2.8-0.7,3.5,0.3
			C-549.4,74.4-549.6,76-550.7,76.8z"/>
		<path id="XMLID_9_" class="st0" d="M-546.6,76.5c-1-1-1.1-2.3-0.1-3.3c0.8-0.8,2.6-0.9,3.4-0.2c0.4,0.4,0.5,0.8,0.3,1.3
			c-0.1,0.4-0.4,0.6-0.8,0.5c-0.5-0.1-0.7-0.4-0.7-0.9c0-1.1-0.6-0.8-1.1-0.4c-0.6,0.4-0.9,1-1,1.7
			C-546.6,75.6-546.3,76.1-546.6,76.5z"/>
	</g>
</g>
<g id="Layer_2">
	<g id="XMLID_8_" class="st1">
		<path class="st0" d="M-577.6,88c0,0.7-0.1,1.3-0.4,1.8s-0.6,0.9-1.1,1.3c-0.5,0.3-1,0.6-1.5,0.7c-0.5,0.2-1.1,0.2-1.7,0.2h-1.4
			v3.9c0,0.2,0,0.4,0.1,0.6c0.1,0.2,0.2,0.3,0.4,0.4c0.1,0,0.3,0.1,0.6,0.1c0.3,0,0.5,0.1,0.7,0.1v0.6h-5.5v-0.6
			c0.1,0,0.4,0,0.6-0.1c0.3,0,0.5-0.1,0.6-0.1c0.2-0.1,0.3-0.2,0.4-0.3c0.1-0.1,0.1-0.3,0.1-0.6v-9.2c0-0.2,0-0.4-0.1-0.6
			c-0.1-0.2-0.2-0.3-0.4-0.4c-0.2-0.1-0.5-0.1-0.7-0.2c-0.2,0-0.4-0.1-0.6-0.1v-0.6h5.8c1.2,0,2.1,0.3,2.9,0.9S-577.6,87-577.6,88z
			 M-580.3,90.2c0.2-0.3,0.3-0.6,0.4-0.9c0.1-0.3,0.1-0.6,0.1-0.8c0-0.3,0-0.7-0.1-1c-0.1-0.4-0.2-0.7-0.4-0.9
			c-0.2-0.3-0.5-0.5-0.8-0.7c-0.3-0.2-0.8-0.2-1.3-0.2h-1.3v5.6h0.9c0.6,0,1.2-0.1,1.6-0.3C-580.9,90.7-580.6,90.5-580.3,90.2z"/>
		<path class="st0" d="M-564.3,97.6h-5.3v-0.6c0.5,0,0.9-0.1,1.2-0.2c0.3-0.1,0.5-0.2,0.5-0.3c0-0.1,0-0.1,0-0.2
			c0-0.1,0-0.1-0.1-0.2l-1.1-2.9h-4.5c-0.2,0.4-0.3,0.8-0.4,1.1c-0.1,0.3-0.2,0.6-0.3,0.9c-0.1,0.3-0.1,0.5-0.2,0.6
			c0,0.2,0,0.3,0,0.4c0,0.2,0.2,0.4,0.6,0.6c0.4,0.1,0.8,0.2,1.3,0.2v0.6h-4.8v-0.6c0.2,0,0.4,0,0.6-0.1c0.2-0.1,0.4-0.1,0.6-0.2
			c0.2-0.2,0.4-0.3,0.6-0.5c0.1-0.2,0.3-0.4,0.4-0.7c0.6-1.6,1.3-3.4,2.1-5.4c0.8-2,1.5-3.8,2.1-5.3h0.7l4.2,11
			c0.1,0.2,0.2,0.4,0.3,0.6s0.3,0.3,0.5,0.4c0.1,0.1,0.3,0.2,0.5,0.2c0.2,0.1,0.4,0.1,0.6,0.1V97.6z M-569.4,92.4l-1.9-4.9l-1.9,4.9
			H-569.4z"/>
		<path class="st0" d="M-551.4,97.6h-3.4c-0.8-1.2-1.4-2.2-2.1-3.1c-0.6-0.9-1.3-1.8-2-2.7h-1.3v4c0,0.2,0,0.4,0.1,0.6
			c0.1,0.2,0.2,0.3,0.4,0.4c0.1,0,0.3,0.1,0.6,0.1c0.3,0,0.5,0.1,0.7,0.1v0.6h-5.4v-0.6c0.1,0,0.4,0,0.6-0.1c0.3,0,0.5-0.1,0.6-0.1
			c0.2-0.1,0.3-0.2,0.4-0.3c0.1-0.1,0.1-0.3,0.1-0.6v-9.2c0-0.2,0-0.4-0.1-0.6c-0.1-0.2-0.2-0.3-0.4-0.4c-0.1-0.1-0.3-0.1-0.6-0.1
			s-0.4-0.1-0.6-0.1v-0.6h5.9c0.5,0,1,0.1,1.5,0.2c0.5,0.1,0.9,0.3,1.3,0.5c0.4,0.2,0.7,0.6,0.9,0.9c0.2,0.4,0.3,0.9,0.3,1.4
			c0,0.5-0.1,0.9-0.2,1.3c-0.1,0.4-0.4,0.7-0.7,1c-0.3,0.3-0.6,0.5-1,0.7c-0.4,0.2-0.8,0.3-1.2,0.5c0.6,0.8,1.2,1.5,1.6,2.1
			c0.4,0.6,0.9,1.3,1.5,2.1c0.3,0.4,0.5,0.6,0.7,0.8c0.2,0.2,0.4,0.3,0.6,0.4c0.2,0.1,0.4,0.1,0.6,0.2s0.4,0.1,0.6,0.1V97.6z
			 M-556.1,88.1c0-0.8-0.2-1.4-0.7-1.8c-0.4-0.5-1.1-0.7-1.9-0.7h-1.5V91h1.2c0.8,0,1.5-0.3,2.1-0.8
			C-556.4,89.7-556.1,89-556.1,88.1z"/>
		<path class="st0" d="M-545.4,97.6h-5.7v-0.6c0.2,0,0.4,0,0.7-0.1c0.3,0,0.5-0.1,0.6-0.1c0.2-0.1,0.3-0.2,0.4-0.3
			c0.1-0.1,0.1-0.3,0.1-0.6v-9.2c0-0.2,0-0.4-0.1-0.5s-0.2-0.3-0.5-0.4c-0.2-0.1-0.4-0.1-0.7-0.2c-0.3-0.1-0.5-0.1-0.7-0.1v-0.6h5.7
			v0.6c-0.2,0-0.4,0-0.7,0.1c-0.3,0-0.5,0.1-0.7,0.1c-0.2,0.1-0.4,0.2-0.5,0.4c-0.1,0.2-0.1,0.3-0.1,0.5v9.2c0,0.2,0,0.4,0.1,0.5
			c0.1,0.2,0.2,0.3,0.4,0.4c0.1,0,0.3,0.1,0.6,0.2s0.5,0.1,0.7,0.1V97.6z"/>
		<path class="st0" d="M-528.4,97.6h-5.6v-0.6c0.2,0,0.5,0,0.8-0.1s0.5-0.1,0.7-0.2c0.2-0.1,0.3-0.2,0.4-0.4s0.1-0.3,0.1-0.6v-9.3
			h-0.1l-4.3,10.9h-0.4l-4.1-11.1h-0.1v7.6c0,0.7,0,1.3,0.1,1.7s0.2,0.7,0.4,0.8c0.1,0.1,0.4,0.2,0.8,0.4c0.4,0.1,0.7,0.2,0.8,0.2
			v0.6h-5.1v-0.6c0.3,0,0.6-0.1,0.8-0.1c0.3-0.1,0.5-0.2,0.7-0.3c0.2-0.2,0.4-0.4,0.4-0.8c0.1-0.3,0.1-0.9,0.1-1.7v-6.5
			c0-0.4,0-0.7-0.1-0.9s-0.2-0.4-0.4-0.6c-0.2-0.2-0.4-0.3-0.7-0.4c-0.3-0.1-0.5-0.1-0.8-0.1v-0.6h4.3l3.6,9.6l3.1-8
			c0.1-0.3,0.2-0.6,0.3-0.9s0.1-0.5,0.1-0.6h4.2v0.6c-0.2,0-0.4,0-0.6,0.1c-0.3,0-0.5,0.1-0.6,0.1c-0.2,0.1-0.3,0.2-0.4,0.4
			c-0.1,0.2-0.1,0.4-0.1,0.5v9.2c0,0.2,0,0.4,0.1,0.5c0.1,0.1,0.2,0.3,0.4,0.4c0.1,0.1,0.3,0.1,0.6,0.2s0.5,0.1,0.7,0.1V97.6z"/>
		<path class="st0" d="M-521.1,97.6h-5.7v-0.6c0.2,0,0.4,0,0.7-0.1c0.3,0,0.5-0.1,0.6-0.1c0.2-0.1,0.3-0.2,0.4-0.3
			c0.1-0.1,0.1-0.3,0.1-0.6v-9.2c0-0.2,0-0.4-0.1-0.5c-0.1-0.1-0.2-0.3-0.5-0.4c-0.2-0.1-0.4-0.1-0.7-0.2c-0.3-0.1-0.5-0.1-0.7-0.1
			v-0.6h5.7v0.6c-0.2,0-0.4,0-0.7,0.1c-0.3,0-0.5,0.1-0.7,0.1c-0.2,0.1-0.4,0.2-0.5,0.4c-0.1,0.2-0.1,0.3-0.1,0.5v9.2
			c0,0.2,0,0.4,0.1,0.5c0.1,0.2,0.2,0.3,0.4,0.4c0.1,0,0.3,0.1,0.6,0.2s0.5,0.1,0.7,0.1V97.6z"/>
		<path class="st0" d="M-511.6,91.7c0.3,0.3,0.5,0.6,0.6,1c0.1,0.4,0.2,0.8,0.2,1.2c0,1.1-0.4,2.1-1.2,2.8c-0.8,0.7-1.9,1.1-3.1,1.1
			c-0.6,0-1.1-0.1-1.7-0.3c-0.6-0.2-1.1-0.4-1.5-0.6l-0.4,0.7h-0.7l-0.1-4.4h0.7c0.1,0.5,0.3,1,0.5,1.5c0.2,0.4,0.5,0.8,0.8,1.2
			c0.3,0.4,0.7,0.6,1.1,0.8c0.4,0.2,0.9,0.3,1.5,0.3c0.4,0,0.8-0.1,1.1-0.2c0.3-0.1,0.6-0.3,0.8-0.5c0.2-0.2,0.3-0.4,0.4-0.7
			s0.1-0.6,0.1-0.9c0-0.5-0.1-1-0.4-1.4s-0.7-0.8-1.3-1c-0.4-0.2-0.8-0.3-1.3-0.5c-0.5-0.2-0.9-0.4-1.3-0.5
			c-0.7-0.3-1.3-0.7-1.7-1.3c-0.4-0.5-0.6-1.2-0.6-2.1c0-0.5,0.1-0.9,0.3-1.4c0.2-0.4,0.5-0.8,0.8-1.1c0.3-0.3,0.8-0.6,1.2-0.7
			s1-0.3,1.5-0.3c0.6,0,1.1,0.1,1.6,0.3s0.9,0.4,1.3,0.6l0.4-0.6h0.7l0.1,4.2h-0.7c-0.1-0.5-0.3-0.9-0.4-1.4
			c-0.2-0.4-0.4-0.8-0.6-1.2c-0.3-0.3-0.6-0.6-0.9-0.8c-0.4-0.2-0.8-0.3-1.4-0.3c-0.6,0-1.1,0.2-1.5,0.5c-0.4,0.4-0.6,0.8-0.6,1.3
			c0,0.6,0.1,1,0.4,1.4c0.3,0.4,0.6,0.7,1.1,0.9c0.4,0.2,0.9,0.4,1.3,0.5c0.4,0.2,0.8,0.3,1.2,0.5c0.4,0.2,0.7,0.3,1,0.5
			S-511.9,91.5-511.6,91.7z"/>
	</g>
</g>
<g id="Layer_3">
	<polygon id="XMLID_7_" class="st0" points="-548.2,99.7 -547.1,102.1 -544.4,102.5 -546.3,104.3 -545.9,107 -548.2,105.7 
		-550.6,107 -550.1,104.3 -552,102.5 -549.4,102.1 	"/>
	<polygon id="XMLID_6_" class="st0" points="-556.2,100.4 -555.2,102.3 -553.1,102.6 -554.6,104.2 -554.3,106.3 -556.2,105.3 
		-558.1,106.3 -557.7,104.2 -559.3,102.6 -557.2,102.3 	"/>
	<polygon id="XMLID_5_" class="st0" points="-563,101.1 -562.3,102.6 -560.8,102.8 -561.9,103.9 -561.6,105.5 -563,104.8 
		-564.5,105.5 -564.2,103.9 -565.4,102.8 -563.8,102.6 	"/>
	<polygon id="XMLID_4_" class="st0" points="-562.8,101.1 -562.1,102.6 -560.5,102.8 -561.6,103.9 -561.4,105.5 -562.8,104.8 
		-564.2,105.5 -563.9,103.9 -565.1,102.8 -563.5,102.6 	"/>
	<polygon id="XMLID_3_" class="st0" points="-540.1,100.4 -541,102.3 -543.2,102.6 -541.6,104.2 -542,106.3 -540.1,105.3 
		-538.1,106.3 -538.5,104.2 -536.9,102.6 -539.1,102.3 	"/>
	<polygon id="XMLID_2_" class="st0" points="-533.7,101.1 -534.4,102.6 -536,102.8 -534.9,103.9 -535.2,105.5 -533.7,104.8 
		-532.3,105.5 -532.6,103.9 -531.4,102.8 -533,102.6 	"/>
	<polygon id="XMLID_1_" class="st0" points="-533.5,101.1 -534.2,102.6 -535.8,102.8 -534.6,103.9 -534.9,105.5 -533.5,104.8 
		-532,105.5 -532.3,103.9 -531.2,102.8 -532.7,102.6 	"/>
</g>
</svg>
