<?xml version="1.0" encoding="utf-8"?>
<!-- Generator: Adobe Illustrator 19.0.0, SVG Export Plug-In . SVG Version: 6.00 Build 0)  -->
<svg version="1.1" id="Layer_1" xmlns="http://www.w3.org/2000/svg" xmlns:xlink="http://www.w3.org/1999/xlink" x="0px" y="0px"
	 viewBox="0 0 90 75" style="enable-background:new 0 0 90 75;" xml:space="preserve">
<style type="text/css">
	.st0{fill:#A07141;}
	.st1{font-family:'Georgia';}
	.st2{font-size:18.3847px;}
</style>
<g id="Layer_1_1_">
	<g id="XMLID_31_">
		<path id="XMLID_21_" class="st0" d="M45.8,5.7c-0.2,1.8,0.4,3,1.9,4.1c1,0.7,0.8,1.3-0.3,1.8c-1.3,0.5-1.4,1.7-2,2.9
			c-0.5-1.5-0.9-2.8-2.4-3.2c-0.3-0.1-0.4-0.4-0.3-0.8c0.1-0.2,0.2-0.6,0.3-0.7c1.6-0.9,2.3-2.3,2.2-4.1C45.5,5.7,45.7,5.7,45.8,5.7
			z"/>
		<path id="XMLID_36_" class="st0" d="M55.4,29.7c2-0.3,3.8,0,5.6-0.2c0.6-0.1,1.9,0.1,1-1.3c-0.3-0.4,0-0.9,0.6-1
			c0.5-0.1,0.8,0.3,0.9,0.8c0.1,0.8-0.4,1.4-1.1,1.8s-1.5,0.4-2.4,0.7c1.4,1.5,2.1,3,1.7,5c-0.6,2.2-1.9,3.7-4,4.5
			c-0.7,0.3-1.3,0.2-1.6-0.6c-0.3-0.9,0.5-0.9,0.9-1.1c3.1-1.2,4.3-4.4,2.4-6.7c-1.5-1.8-4.4-1.7-5.5,0.3c-0.4,0.7-0.5,1.5-0.2,2.3
			c0.4,1.1,0.9,1.2,1.7,0.3c0.1-0.1,0.2-0.3,0.4-0.4c0.6-0.5,1.2-0.7,1.9-0.4c0.4,0.1,0.5,0.4,0.5,0.8c-0.1,0.7-0.6,1.2-1.2,1.4
			c-0.8,0.4-2.1,0.2-1.9,1.8c0.2,1.4,0.8,2.8,2.1,3.2c1.3,0.4,2.5,0.4,3.6-0.5c0.6-0.5,0.8-1.1,1.1-1.8c0.6-1.3,1.7-2.2,3-2.7
			c1.2-0.5,1.6-0.1,1.7,1c0,0.2,0.1,0.4,0.1,0.8c0.9-0.8,1.7-1.7,2.9-2c1.2-0.3,1.5-0.1,1.3,1.1c-0.1,0.8,0.2,0.9,0.8,0.9
			c1.1-0.1,2,0.1,2.6,1.2c0.3,0.5,0.3,1.1-0.2,1.4c-0.5,0.3-0.9,0-1.2-0.5c-0.8-1.3-1.8-1.6-3.3-1c-1.2,0.5-2.2,1.3-3.1,2.2
			c-3.3,2.9-8,2.8-11.1-0.3c-0.4-0.4-0.9-0.6-1.4-0.7c-1.9-0.4-3.5-1.3-5.1-2.3c-0.2-0.1-0.3-0.3-0.5-0.4c-0.3-0.3-0.5-0.6-0.3-0.9
			c0.3-0.4,0.6-0.2,0.9,0c1.2,0.7,2.4,1.3,3.7,1.7c0.5,0.1,1.2,0.6,1.4-0.1c0.3-0.7,0.4-1.4-0.1-2.2c-1.4-2.1-3.6-2.1-5.7-2.3
			c-3-0.3-5.9-0.2-8.9,0.5c-1.2,0.3-2.7,2-2.7,3.2c0,1,0.3,1.4,1.3,1.1c1.3-0.4,2.5-1,3.7-1.7c0.4-0.2,0.8-0.8,1.2-0.2
			c0.4,0.6-0.2,0.9-0.7,1.2c-0.7,0.4-1.3,0.8-2,1.2c-2.1,1.1-4.4,1.9-6.4,3.3c-2.7,1.8-5.9,1.4-8.6-0.6c-1.2-0.8-2.2-2-3.6-2.6
			c-1.6-0.7-2.5-0.4-3.5,1c-0.3,0.4-0.6,0.6-1.1,0.4c-0.4-0.2-0.6-0.7-0.4-1.1c0.4-1.1,1.3-1.5,2.4-1.4c0.8,0,1.6,0.2,1.2-1.2
			c-0.3-0.8,0.3-1.1,1.1-0.9c1.1,0.3,1.9,0.8,3.2,2.2c0.1-0.1,0.2-0.1,0.2-0.2c0.1-2.3,0.4-2.4,2.5-1.4c1.2,0.6,1.9,1.6,2.4,2.8
			c0.8,1.8,2.1,2.4,3.9,2.1c1.5-0.3,2.5-1.6,2.7-3.3c0.1-0.9-0.1-1.5-1.2-1.6c-0.4,0-0.8-0.3-1.2-0.6c-0.5-0.4-1.1-0.9-0.6-1.7
			c0.4-0.6,1.2-0.5,1.8-0.2c0.3,0.2,0.7,0.4,0.9,0.8c0.7,1.1,1.2,0.4,1.5-0.2c0.6-1,0.4-2-0.4-2.9c-0.8-1-2.7-1.4-3.7-0.9
			c-1.4,0.7-2.4,1.8-2.4,3.3c-0.1,1.7,0.9,3,2.3,3.9c0.4,0.3,0.9,0.4,1.3,0.6c0.4,0.2,1.1,0.2,0.8,0.9c-0.3,0.6-0.7,0.9-1.5,0.7
			c-2.1-0.6-4.1-3.1-4.3-5.3c-0.1-1.7,0.6-3,1.6-4.2c-0.5-0.4-1.1-0.2-1.5-0.4c-0.8-0.4-1.5-0.9-1.8-1.8c-0.1-0.4,0.1-0.8,0.4-1
			c0.3-0.2,0.6-0.2,0.9,0c0.3,0.3,0.4,0.6,0.2,0.9c-0.7,1.2,0.3,1.1,0.9,1.2c1.8,0.2,3.7-0.2,5.7,0.3c-0.9-1.5-1.9-2.7-1.9-4.3
			c-0.1-2.7,0.9-4.3,3.3-5.4c1.1-0.5,2.3-0.9,3.5-1.3c1.1-0.4,2-1,2.8-1.9c0.3-0.4,0.4-0.8,0-1.1c-0.5-0.4-0.5,0.2-0.7,0.4
			c-0.3,0.4-0.6,0.5-1,0.3c-0.4-0.2-0.5-0.5-0.4-0.9c0.1-0.4,0.3-0.7,0.7-0.8c0.4-0.1,0.8,0,1.2,0c0-0.1,0-0.2,0-0.2
			c-0.5-0.5-1-1-0.7-1.8c0.1-0.3,0.4-0.6,0.8-0.6c0.8,0,1.3,0.7,1.5,1.3c0.7,2.1,1.1,4.2-0.8,6c-0.4,0.4-0.5,0.8,0,1.2
			c0.6,0.6,1.2,1.2,1.6,2.3c0.2-0.3,0.2-0.4,0.3-0.5c1.2-1.4,2.1-2.7,0.4-4.5c-0.9-1.1-0.4-2.9,0.1-4.3c0.3-0.8,0.8-1.8,1.9-1.3
			c1.1,0.5,0.4,1.4,0.1,2.1c0.2,0.4,0.6,0.2,0.9,0.3c0.4,0.2,0.7,0.4,0.7,0.9c0,0.4-0.2,0.7-0.6,0.8c-0.4,0.2-0.8,0.1-1.1-0.3
			c-0.2-0.2-0.1-0.8-0.7-0.4c-0.4,0.3-0.4,0.7,0,1.1c0.9,1.1,2.2,1.6,3.4,2.1c1,0.3,2,0.6,3,1.1c3.3,1.5,4.3,4.7,2.4,7.9
			C56.2,28.5,55.8,29,55.4,29.7z M50,24.3c-0.1-1.2-0.5-2-1.1-2.9c-0.4-0.6-0.8-0.5-1.3-0.1c-1.8,1.7-2,4.8-0.3,6.8
			c0.3,0.4,0.6,0.4,0.9,0C49.2,27,49.9,25.7,50,24.3z M44.8,24.1c0-0.8-0.6-1.7-1.3-2.5c-0.6-0.7-1.1-0.5-1.6,0.1
			c-1.3,1.7-0.9,5.1,0.8,6.5c0.5,0.4,0.8,0.2,1.1-0.2C44.4,26.8,44.8,25.7,44.8,24.1z M45.5,31.3c2,0.2,3.9,0.4,5.9,0.7
			c0.6,0.1,1,0,1.1-0.7c0.1-0.8-0.5-0.7-1-0.7c-0.3,0-0.7,0-0.9,0.2c-0.6,0.4-1.1,0.3-1.5-0.3c-0.8-0.9-1.9-0.9-2.8-0.2
			c-0.6,0.5-0.9,0.4-1.4-0.1c-0.7-0.6-1.6-0.8-2.3-0.2c-0.9,0.8-1.6,1.1-2.7,0.5c-0.3-0.2-0.8-0.1-1.1,0.3c-0.2,0.2-0.1,0.5,0,0.7
			c0.2,0.5,0.7,0.3,1.1,0.3C41.7,31.8,43.6,31.6,45.5,31.3z M36.6,24.9c0.1,1.6,1,2.6,1.9,3.7c0.2,0.3,0.6,0.3,0.7-0.1
			c0.4-1.4,1.1-2.7,0.4-4.1c-0.4-0.8-1-1.7-1.9-1.5C36.8,23,36.8,24.1,36.6,24.9z M51.1,25.9c0.2,0.9,0,2.5,0.9,2.7
			c0.9,0.2,1.4-1.3,1.9-2.2c0.7-1.2,0.4-2.3-0.3-3.4c-0.2-0.4-0.6-0.3-0.9-0.1C51.6,23.5,51.1,24.5,51.1,25.9z M44.1,17.6
			c-1.8,2.3-5.2,1.9-7.1,4.3c1.5-0.2,2.3,0.8,3.3,1.7C40.6,20.9,43.2,19.8,44.1,17.6z M46.9,17.6c0.1,0.8,0.5,1.3,1.1,1.8
			c0.8,0.6,1.4,1.4,2,2.3c0.3,0.5,0.4,1.4,0.8,1.5c0.6,0.2,1-0.7,1.5-1c1.4-0.8,1.3-1-0.1-1.7C50.4,19.6,48.3,19.2,46.9,17.6z"/>
		<path id="XMLID_12_" class="st0" d="M74.5,65.9c-2.8,0-5.6,0-8.4,0c-0.4,0-1.2,0.2-1.2-0.4c0-0.6,0.7-0.4,1.1-0.4
			c5.7,0,11.4,0,17.1,0c0.2,0,0.3,0,0.5,0c0.3,0,0.6,0.1,0.6,0.4c0,0.4-0.4,0.4-0.7,0.4c-0.4,0-0.9,0-1.3,0
			C79.7,65.9,77.1,65.9,74.5,65.9z"/>
		<path id="XMLID_11_" class="st0" d="M16.3,65.9c-2.8,0-5.7,0-8.5,0c-0.4,0-1.1,0.2-1.1-0.4c0-0.6,0.7-0.4,1.1-0.4
			c5.7,0,11.5,0,17.2,0c0.4,0,1-0.2,1,0.5c0,0.5-0.6,0.4-1,0.4C22,65.9,19.2,65.8,16.3,65.9z"/>
		<path id="XMLID_10_" class="st0" d="M43.3,38.5c-0.1-0.5,0.2-0.8,0.3-1.2c0.2-0.9-0.2-1.7-0.9-2.2c-0.5-0.3-1.1-0.6-1.1,0.4
			c0,0.5-0.2,0.8-0.7,0.9c-0.4,0.1-0.8-0.2-0.9-0.6c-0.2-0.5,0-0.8,0.3-1.2c0.8-0.8,2.8-0.7,3.5,0.3C44.6,36.1,44.4,37.7,43.3,38.5z
			"/>
		<path id="XMLID_9_" class="st0" d="M47.4,38.2c-1-1-1.1-2.3-0.1-3.3c0.8-0.8,2.6-0.9,3.4-0.2c0.4,0.4,0.5,0.8,0.3,1.3
			c-0.1,0.4-0.4,0.6-0.8,0.5c-0.5-0.1-0.7-0.4-0.7-0.9c0-1.1-0.6-0.8-1.1-0.4c-0.6,0.4-0.9,1-1,1.7C47.4,37.3,47.7,37.8,47.4,38.2z"
			/>
	</g>
</g>
<g id="Layer_2">
	<text id="XMLID_8_" transform="matrix(1 0 0 1 5.7065 59.2774)" class="st0 st1 st2">PARIMIS</text>
</g>
<g id="Layer_3">
	<polygon id="XMLID_7_" class="st0" points="45.8,61.4 46.9,63.8 49.6,64.2 47.7,66 48.1,68.7 45.8,67.4 43.4,68.7 43.9,66 42,64.2 
		44.6,63.8 	"/>
	<polygon id="XMLID_6_" class="st0" points="37.8,62.1 38.8,64 40.9,64.3 39.4,65.9 39.7,68 37.8,67 35.9,68 36.3,65.9 34.7,64.3 
		36.8,64 	"/>
	<polygon id="XMLID_5_" class="st0" points="31,62.8 31.7,64.3 33.2,64.5 32.1,65.6 32.4,67.2 31,66.5 29.5,67.2 29.8,65.6 
		28.6,64.5 30.2,64.3 	"/>
	<polygon id="XMLID_4_" class="st0" points="31.2,62.8 31.9,64.3 33.5,64.5 32.4,65.6 32.6,67.2 31.2,66.5 29.8,67.2 30.1,65.6 
		28.9,64.5 30.5,64.3 	"/>
	<polygon id="XMLID_3_" class="st0" points="53.9,62.1 53,64 50.8,64.3 52.4,65.9 52,68 53.9,67 55.9,68 55.5,65.9 57.1,64.3 
		54.9,64 	"/>
	<polygon id="XMLID_2_" class="st0" points="60.3,62.8 59.6,64.3 58,64.5 59.1,65.6 58.8,67.2 60.3,66.5 61.7,67.2 61.4,65.6 
		62.6,64.5 61,64.3 	"/>
	<polygon id="XMLID_1_" class="st0" points="60.5,62.8 59.8,64.3 58.2,64.5 59.4,65.6 59.1,67.2 60.5,66.5 62,67.2 61.7,65.6 
		62.8,64.5 61.3,64.3 	"/>
</g>
</svg>
