<?xml version="1.0" encoding="utf-8"?>
<!-- Generator: Adobe Illustrator 19.0.0, SVG Export Plug-In . SVG Version: 6.00 Build 0)  -->
<svg version="1.1" id="Capa_1" xmlns="http://www.w3.org/2000/svg" xmlns:xlink="http://www.w3.org/1999/xlink" x="0px" y="0px"
	 viewBox="-490 -73.7 297.7 297.7" style="enable-background:new -490 -73.7 297.7 297.7;" xml:space="preserve">
<style type="text/css">
	.st0{fill:#E5B67C;}
</style>
<g id="_x32_6-Red_Carpet">
	<path class="st0" d="M-211.3,178.4l-4-171.7c11.5-4.8,19.6-16.2,19.6-29.5c0-17.7-14.3-32-32-32s-32,14.3-32,32
		c0,11.3,5.8,21.2,14.7,26.9c-25.3,15.6-59,25.1-96,25.1c-37,0-70.7-9.5-96-25.1c8.8-5.7,14.7-15.6,14.7-26.9c0-17.7-14.3-32-32-32
		c-17.7,0-32,14.3-32,32c0,13.3,8.1,24.7,19.6,29.5l-4,171.7c-11.3,2.4-19.1,7.1-19.1,12.5c0,7.8,15.9,14.1,35.5,14.1
		c19.6,0,35.5-6.3,35.5-14.1c0-5.4-7.7-10.2-19.1-12.5l-4-170.2c21.2,22.4,58.5,37.2,100.9,37.2s79.7-14.8,100.9-37.2l-4,170.2
		c-11.3,2.4-19.1,7.1-19.1,12.5c0,7.8,15.9,14.1,35.5,14.1c19.6,0,35.5-6.3,35.5-14.1C-192.3,185.5-200,180.8-211.3,178.4z"/>
	<path class="st0" d="M-373.3,73.6c-14.3,37.5-28.6,74.9-42.9,112.4c50,0,100,0,150,0c-14.3-37.5-28.6-74.9-42.9-112.4
		C-330.4,73.6-351.8,73.6-373.3,73.6z"/>
</g>
</svg>
