<?xml version="1.0" encoding="utf-8"?>
<!-- Generator: Adobe Illustrator 19.0.0, SVG Export Plug-In . SVG Version: 6.00 Build 0)  -->
<svg version="1.1" id="Layer_1" xmlns="http://www.w3.org/2000/svg" xmlns:xlink="http://www.w3.org/1999/xlink" x="0px" y="0px"
	 viewBox="0 0 1280 150" style="enable-background:new 0 0 1280 150;" xml:space="preserve">
<style type="text/css">
	.st0{fill:#AF804E;}
</style>
<path id="XMLID_160_" class="st0" d="M1157,76.5c-0.2-0.5-0.3-1.1-0.5-1.6c0.9-1.1,1.7-2.2,2.6-3.2c8.5-9.1,12.2-19.8,10.9-32.1
	c-1.2-10.9-6.4-19-17.1-22.6c-9.2-3.1-19.7,0.4-24,8.1c-2.8,5-3.4,10.2-0.4,15.3c1.4,2.5,3.6,3.7,6.5,2.9c2.8-0.8,4.3-2.7,4.2-5.7
	c-0.1-1.6-0.3-3.3-0.4-4.9c-0.1-5.4,2.2-8.2,7.6-9.1c7.9-1.4,13.1,1.4,16.3,8.8c2.8,6.4,3.2,13.2,1.9,20c-1.7,8.8-6.2,16.1-14,20.9
	c-2.7,1.6-5.4,2.5-8.2-0.4c-4.7-4.9-6.8-5.4-11.5-1.1c-8.1,7.3-17.4,8.9-27.9,8.9c-308.6-0.1-617.1-0.1-925.7-0.1
	c-1.9,0-3.7,0-5.6,0c-7,0.1-13.3-2-18.7-6.6c-1.8-1.5-3.6-3.1-5.7-4.1c-2.6-1.3-5.2-1.5-7.6,1c-4.5,4.8-6.5,5-11.6,0.9
	c-9.3-7.4-13.2-17.4-12.3-29c0.4-5.6,1.7-11.1,5.7-15.5c3.6-3.9,11.4-5.3,16.2-2.8c4.7,2.5,5.4,6.6,4,11.4c-0.1,0.4-0.2,0.9-0.2,1.4
	c0,2.9,1.3,5,4.1,5.9c2.8,0.9,5.1-0.1,6.7-2.5c2.1-3.1,2.6-6.4,1.9-10c-1.6-7.9-8.3-13.8-16.7-14.6c-12-1.2-22.3,6.1-25.6,18.3
	c-3.6,13.5,0,25.4,8.6,36c1.4,1.7,2.9,3.2,5.2,5.7c-9.6-1.8-17.5-4.1-25.5-4.5c-8.1-0.4-16.2,1.1-25,1.9c5.1-4.8,10.9-6.2,17-6.1
	c5.9,0.1,11.8,0.8,18.1,1.2c-3-4.2-5.7-7.9-7.9-11c-4.2,2-8.4,5.1-13,5.8c-4.5,0.7-9.4-1.1-14.8-1.9c-5.4,8.6-15.9,11.8-26.4,16.8
	c11.3,1.5,20.8,3.9,27.3,12.5c9.3-8.3,18.9-8.8,28.8-1.3c7.2-8.6,16.5-9,26.4-7.7c5.3,0.7,10.7,1.1,16.1,1.1
	c329.1,0,658.3,0,987.4,0c4.9,0,9.8-0.1,14.7-0.9c10.6-1.6,20.6-1.7,28.3,7.6c10.1-8.1,19.6-6.7,28.9,1.1
	c6.7-9.1,16.5-10.9,27.6-12.7c-11.2-4.3-21.2-8.4-27.1-16.5c-5.5,0.8-10.2,2.5-14.5,1.8c-4.5-0.7-8.7-3.6-12.9-5.5
	c-3.2,3.7-6.6,7.7-9.7,11.4c22.6-3.6,31.3-2.4,36.4,5.6C1188.8,68.9,1172.9,71.2,1157,76.5z"/>
<path id="XMLID_159_" class="st0" d="M133.1,93.5c18.2,3.2,36.4,3,54.6,3c303.4,0,606.8,0,910.1,0c16.8,0,33.5-0.4,50.2-3
	C809.8,93.5,471.6,93.5,133.1,93.5z"/>
<path id="XMLID_158_" class="st0" d="M656.9,101.9c-134.2,0-268.3,0-402.5,0c-4.6,0-9.4,0.3-13.9,1.1c-10.5,2.1-16.9,11.1-15.7,21.6
	c0.7,6,4.6,9.1,9.8,10.6c5.5,1.6,11.1,2.3,15.6-2.6c2.9-3.1,3.1-7,0.7-9.4c-2.5-2.5-5.1-2.3-8.7,0.5c-1.8,1.4-3.4,3.3-5.5,4.3
	c-4.5,2.3-7.8,0.2-8.3-4.8c-0.8-7.7,3.9-15.2,11.9-17.8c3.7-1.2,7.8-1.6,11.7-1.6c269.3-0.1,538.5-0.1,807.8-0.1
	c2.1,0,4.2-0.1,6.3,0.1c10.5,1.1,18.1,8.8,17.8,18.2c-0.1,2.1-1.1,4.6-2.5,6c-2.2,2-4.9,0.7-7.1-0.8c-1.9-1.3-3.5-3.1-5.3-4.5
	c-2.3-1.7-4.8-1.9-7.1,0c-2.5,2.1-2.9,4.9-1.2,7.5c1.1,1.7,2.6,3.6,4.3,4.4c6,2.8,11.8,1.7,17.3-1.7c4.8-3,5.8-7.6,5.3-12.8
	c-1-9.1-6.7-15.7-15.7-17.3c-4.6-0.8-9.3-1.1-13.9-1.1C924.3,101.9,790.6,101.9,656.9,101.9z"/>
<path id="XMLID_157_" class="st0" d="M528,85.5c-1.1,1-2.5,1.7-2.5,2.3c0.2,1.1,1.2,2,1.8,3c0.9-0.8,2.1-1.5,2.6-2.5
	C530.1,87.8,528.9,86.7,528,85.5z"/>
<path id="XMLID_156_" class="st0" d="M973,88c-1.5-0.9-2.5-2-3.1-1.8c-1,0.4-1.6,1.6-2.4,2.4c0.8,0.7,1.7,2.1,2.3,1.9
	C970.7,90.4,971.5,89.2,973,88z"/>
<path id="XMLID_155_" class="st0" d="M957.5,91.8c0.9-1.9,1.7-2.9,1.7-4c0-0.6-1.6-1.6-2.4-1.5c-0.8,0.1-2.1,1.5-2,2
	C955.1,89.3,956.2,90.2,957.5,91.8z"/>
<path id="XMLID_154_" class="st0" d="M941.3,88.6c1.6,1,2.6,2,3.7,2c0.6,0,1.9-1.9,1.7-2.3c-0.5-0.9-1.6-1.9-2.7-2.1
	C943.4,86.1,942.5,87.4,941.3,88.6z"/>
<path id="XMLID_153_" class="st0" d="M934.4,89.1c0.4-0.6,0.7-1.2,1.1-1.8c-1-0.4-2.2-1.1-3.1-1c-1.1,0.2-2,1.2-3,1.9
	c0.6,0.9,1.2,2.4,1.8,2.4C932.3,90.6,933.4,89.6,934.4,89.1z"/>
<path id="XMLID_152_" class="st0" d="M922.4,88.2c-1.4-1-2.5-2.1-3.1-1.9c-1,0.3-1.7,1.5-2.5,2.4c0.7,0.7,1.6,2.1,2.2,2
	C920.1,90.4,921,89.3,922.4,88.2z"/>
<path id="XMLID_151_" class="st0" d="M906.5,91.8c1.1-1.6,2.2-2.6,2.3-3.6c0.1-0.6-1.3-1.9-2.1-1.9c-0.8,0-2.4,1.1-2.4,1.6
	C904.5,89,905.4,90,906.5,91.8z"/>
<path id="XMLID_150_" class="st0" d="M894,91.8c1-1.7,2-2.7,2.1-3.8c0.1-0.5-1.5-1.7-2.2-1.7c-0.8,0-2.3,1.3-2.2,1.8
	C891.9,89.1,892.9,90.1,894,91.8z"/>
<path id="XMLID_149_" class="st0" d="M884.5,88.6c-1.3-1.2-2.1-2.5-2.7-2.4c-1,0.2-1.9,1.3-2.9,2c0.6,0.8,1.3,2.4,1.9,2.4
	C881.9,90.6,882.9,89.6,884.5,88.6z"/>
<path id="XMLID_148_" class="st0" d="M556.2,88.6c-1.3-1.1-2.1-2.4-2.7-2.3c-1,0.2-2.2,1.1-2.7,2c-0.2,0.4,1.2,2.3,1.7,2.3
	C553.5,90.5,554.5,89.5,556.2,88.6z"/>
<path id="XMLID_147_" class="st0" d="M859.3,88.5c-1.3-1.1-2.2-2.4-2.8-2.3c-1,0.2-1.9,1.3-2.8,2.1c0.7,0.8,1.4,2.3,2,2.3
	C856.7,90.5,857.7,89.5,859.3,88.5z"/>
<path id="XMLID_146_" class="st0" d="M994.9,91.7c1.1-1.6,2.2-2.5,2.3-3.6c0.1-0.6-1.3-1.9-2.1-1.9c-0.8,0-2.4,1.1-2.4,1.6
	C992.9,89,993.8,90,994.9,91.7z"/>
<path id="XMLID_145_" class="st0" d="M843.3,91.7c1.1-1.6,2.2-2.6,2.3-3.6c0.1-0.5-1.3-1.9-2.1-1.9c-0.8,0-2.4,1.1-2.4,1.6
	C841.3,89,842.3,90,843.3,91.7z"/>
<path id="XMLID_144_" class="st0" d="M830,84.4c-0.7,1.6-1.6,2.7-1.4,3.5c0.2,1.1,1.4,1.9,2.2,2.8c0.8-0.9,1.9-1.7,2.3-2.7
	C833.2,87.6,831.9,86.6,830,84.4z"/>
<path id="XMLID_143_" class="st0" d="M821.4,88.4c-1.4-1.1-2.3-2.3-2.9-2.2c-1,0.3-1.8,1.4-2.7,2.1c0.7,0.8,1.4,2.3,2,2.2
	C818.9,90.5,819.8,89.5,821.4,88.4z"/>
<path id="XMLID_142_" class="st0" d="M805.6,91.8c1.1-1.7,2-2.7,2.2-3.8c0.1-0.5-1.5-1.7-2.3-1.7c-0.8,0-2.3,1.3-2.2,1.8
	C803.5,89.1,804.5,90.1,805.6,91.8z"/>
<path id="XMLID_141_" class="st0" d="M792.7,91.8c1.2-1.7,2.2-2.6,2.4-3.6c0.1-0.5-1.3-1.8-2.1-1.9c-0.8,0-2.4,1.1-2.3,1.6
	C790.8,89,791.7,90,792.7,91.8z"/>
<path id="XMLID_140_" class="st0" d="M780.3,91.7c1.1-1.7,2-2.7,2.2-3.8c0.1-0.5-1.5-1.7-2.3-1.7c-0.8,0-2.2,1.3-2.2,1.8
	C778.2,89.1,779.2,90.1,780.3,91.7z"/>
<path id="XMLID_139_" class="st0" d="M770.9,87.9c-1.5-0.8-2.6-1.9-3.2-1.7c-1,0.4-1.6,1.6-2.4,2.5c0.8,0.7,1.7,2,2.3,1.9
	C768.7,90.3,769.5,89.2,770.9,87.9z"/>
<path id="XMLID_138_" class="st0" d="M758.2,88.6c-1.3-1.1-2.1-2.5-2.7-2.4c-1,0.2-2.2,1.1-2.7,2.1c-0.2,0.4,1.2,2.3,1.7,2.3
	C755.6,90.6,756.6,89.6,758.2,88.6z"/>
<path id="XMLID_137_" class="st0" d="M745.6,88.2c-1.4-1-2.5-2.1-3.1-1.9c-1,0.3-1.7,1.5-2.5,2.3c0.7,0.7,1.6,2.1,2.2,2
	C743.3,90.4,744.2,89.3,745.6,88.2z"/>
<path id="XMLID_136_" class="st0" d="M733.2,87.8c-1.9-0.8-3-1.6-4.1-1.5c-0.6,0.1-1.6,1.7-1.5,2.4c0.2,0.8,1.6,2.1,2.2,1.9
	C730.8,90.4,731.6,89.2,733.2,87.8z"/>
<path id="XMLID_135_" class="st0" d="M717.2,85.5c-1,1.1-2.4,2-2.2,2.5c0.3,1.1,1.4,1.9,2.2,2.8c0.8-0.9,1.9-1.7,2.3-2.7
	C719.5,87.6,718.2,86.6,717.2,85.5z"/>
<path id="XMLID_134_" class="st0" d="M707.9,87.8c-1.9-0.8-3-1.6-4.1-1.5c-0.6,0.1-1.6,1.7-1.5,2.4c0.2,0.8,1.6,2.1,2.2,1.9
	C705.5,90.4,706.3,89.2,707.9,87.8z"/>
<path id="XMLID_133_" class="st0" d="M695.1,88c-1.5-0.8-2.6-1.9-3.2-1.7c-1,0.4-1.6,1.6-2.4,2.5c0.8,0.7,1.7,2,2.3,1.9
	C692.9,90.3,693.7,89.2,695.1,88z"/>
<path id="XMLID_132_" class="st0" d="M682.5,88c-1.5-0.8-2.6-1.9-3.2-1.7c-1,0.4-1.6,1.6-2.4,2.5c0.8,0.7,1.7,2,2.3,1.9
	C680.3,90.3,681.1,89.2,682.5,88z"/>
<path id="XMLID_131_" class="st0" d="M666.6,91.8c1.1-1.7,2.1-2.7,2.2-3.8c0.1-0.5-1.5-1.7-2.3-1.7c-0.8,0-2.2,1.3-2.1,1.8
	C664.6,89.1,665.6,90.1,666.6,91.8z"/>
<path id="XMLID_130_" class="st0" d="M657.2,88.1c-1.5-0.9-2.5-2-3.1-1.8c-1,0.3-1.6,1.6-2.4,2.4c0.8,0.7,1.7,2.1,2.2,2
	C654.9,90.4,655.8,89.2,657.2,88.1z"/>
<path id="XMLID_129_" class="st0" d="M594.1,88.3c-1.4-1-2.4-2.2-3-2c-1,0.3-2,1.3-2.4,2.3c-0.2,0.4,1.4,2.2,1.9,2.1
	C591.6,90.4,592.5,89.4,594.1,88.3z"/>
<path id="XMLID_128_" class="st0" d="M644.6,88.2c-1.4-0.9-2.5-2.1-3.1-1.9c-1,0.3-2,1.4-2.3,2.4c-0.1,0.4,1.5,2.1,2,2
	C642.2,90.4,643.1,89.3,644.6,88.2z"/>
<path id="XMLID_127_" class="st0" d="M632,88.3c-1.4-1-2.4-2.2-3-2c-1,0.3-2,1.3-2.4,2.3c-0.2,0.4,1.4,2.2,1.9,2.1
	C629.5,90.4,630.4,89.4,632,88.3z"/>
<path id="XMLID_126_" class="st0" d="M619.3,88.4c-1.3-1-2.3-2.3-2.9-2.1c-1,0.2-2.1,1.2-2.5,2.2c-0.2,0.4,1.3,2.2,1.8,2.2
	C616.8,90.5,617.7,89.4,619.3,88.4z"/>
<path id="XMLID_125_" class="st0" d="M606.7,88.4c-1.3-1-2.3-2.3-2.9-2.1c-1,0.2-2.1,1.2-2.5,2.2c-0.2,0.4,1.3,2.2,1.8,2.2
	C604.2,90.5,605.1,89.4,606.7,88.4z"/>
<path id="XMLID_124_" class="st0" d="M581.4,88.6c-1.3-1.1-2.1-2.4-2.7-2.3c-1,0.2-2.2,1.1-2.7,2c-0.2,0.4,1.1,2.3,1.7,2.3
	C578.8,90.5,579.8,89.5,581.4,88.6z"/>
<path id="XMLID_123_" class="st0" d="M565.9,85.5c-1.1,1-2.6,1.7-2.5,2.3c0.2,1.1,1.2,2,1.8,3c0.9-0.8,2.1-1.5,2.6-2.5
	C568,87.8,566.8,86.7,565.9,85.5z"/>
<path id="XMLID_122_" class="st0" d="M540.4,91.5c1-1.5,2-2.5,2.2-3.6c0.1-0.5-1.8-1.9-2.3-1.7c-0.9,0.4-1.9,1.5-2.2,2.5
	C538,89.4,539.3,90.3,540.4,91.5z"/>
<path id="XMLID_121_" class="st0" d="M1010.2,89.1c0.4-0.6,0.7-1.2,1.1-1.8c-1-0.4-2.2-1.1-3.1-1c-1.1,0.2-2,1.2-3,1.9
	c0.6,0.9,1.2,2.4,1.8,2.4C1008.1,90.6,1009.2,89.6,1010.2,89.1z"/>
<path id="XMLID_120_" class="st0" d="M1020.3,91.7c1-1.7,2-2.7,2.1-3.7c0.1-0.5-1.4-1.7-2.2-1.7c-0.8,0-2.3,1.3-2.2,1.8
	C1018.2,89.1,1019.2,90.1,1020.3,91.7z"/>
<path id="XMLID_119_" class="st0" d="M1032.7,85.5c-0.9,1.2-2.2,2.3-2,2.7c0.4,1,1.6,1.7,2.4,2.6c0.7-1,1.7-1.9,2-3
	C1035.2,87.3,1033.8,86.5,1032.7,85.5z"/>
<path id="XMLID_118_" class="st0" d="M1042.3,88.6c1.6,1,2.6,2,3.7,2.1c0.6,0,1.9-1.9,1.7-2.3c-0.5-0.9-1.6-1.9-2.7-2.1
	C1044.5,86.2,1043.6,87.4,1042.3,88.6z"/>
<path id="XMLID_117_" class="st0" d="M1061.3,88.4c-1.3-1.1-2.3-2.3-2.8-2.2c-1,0.3-1.8,1.4-2.7,2.1c0.7,0.8,1.4,2.3,2.1,2.2
	C1058.9,90.5,1059.8,89.5,1061.3,88.4z"/>
<path id="XMLID_116_" class="st0" d="M1071.2,91.8c0.9-1.8,1.7-2.9,1.7-4c0-0.5-1.6-1.6-2.4-1.5c-0.8,0.1-2.1,1.5-2,2
	C1068.8,89.3,1069.9,90.2,1071.2,91.8z"/>
<path id="XMLID_115_" class="st0" d="M1086.6,87.9c-1.5-0.8-2.6-1.9-3.2-1.7c-1,0.4-1.6,1.6-2.4,2.5c0.8,0.7,1.8,2,2.4,1.9
	C1084.4,90.4,1085.2,89.2,1086.6,87.9z"/>
<path id="XMLID_114_" class="st0" d="M1096.3,91.5c0.9-1.4,2.1-2.5,1.9-3.1c-0.3-1-1.5-1.9-2.5-2.2c-0.4-0.1-2.1,1.5-1.9,2
	C1094.1,89.3,1095.2,90.2,1096.3,91.5z"/>
<path id="XMLID_113_" class="st0" d="M1111.9,88.2c-1.4-1-2.5-2.1-3-1.9c-1,0.3-1.7,1.5-2.6,2.3c0.8,0.7,1.6,2.1,2.2,2
	C1109.6,90.5,1110.4,89.3,1111.9,88.2z"/>
<path id="XMLID_112_" class="st0" d="M985.6,88.4c-1.3-1.1-2.3-2.3-2.8-2.2c-1,0.3-1.8,1.4-2.7,2.1c0.7,0.8,1.4,2.3,2,2.2
	C983.1,90.5,984,89.5,985.6,88.4z"/>
<path id="XMLID_111_" class="st0" d="M867.9,84.4c-0.7,1.6-1.6,2.7-1.4,3.5c0.2,1.1,1.4,1.9,2.2,2.8c0.8-0.9,1.9-1.7,2.3-2.7
	C871.1,87.6,869.7,86.6,867.9,84.4z"/>
<path id="XMLID_110_" class="st0" d="M278.4,88c-1.8-0.8-2.9-1.7-4-1.7c-0.5,0-1.6,1.6-1.5,2.3c0.1,0.8,1.5,2.1,2,2
	C276,90.3,276.8,89.2,278.4,88z"/>
<path id="XMLID_109_" class="st0" d="M287.4,85.3c-0.9,1.4-2.1,2.4-1.9,2.9c0.4,1,1.5,1.7,2.3,2.5c0.7-0.8,2.1-1.6,2-2.2
	C289.7,87.5,288.6,86.7,287.4,85.3z"/>
<path id="XMLID_108_" class="st0" d="M299.2,92.1c0.6-0.4,1.2-0.8,1.8-1.2c0.5-1.1,1.5-2.1,1.5-3.2c0-0.5-2-1.8-2.4-1.5
	c-0.9,0.5-1.7,1.7-1.9,2.8C298,90,298.8,91.1,299.2,92.1z"/>
<path id="XMLID_107_" class="st0" d="M311.8,92.1c0.6-0.4,1.2-0.8,1.8-1.2c0.5-1.1,1.5-2.1,1.5-3.2c0-0.5-2-1.8-2.4-1.5
	c-0.9,0.5-1.7,1.7-1.9,2.8C310.7,90,311.5,91.1,311.8,92.1z"/>
<path id="XMLID_106_" class="st0" d="M325.2,91.8c1.2-1.6,2.3-2.4,2.6-3.5c0.1-0.5-1.3-1.9-2.1-2c-0.8-0.1-2.3,1-2.3,1.6
	C323.5,88.9,324.3,90,325.2,91.8z"/>
<path id="XMLID_105_" class="st0" d="M337.1,92.1c0.6-0.4,1.2-0.8,1.8-1.2c0.5-1.1,1.4-2.1,1.5-3.2c0-0.5-2-1.8-2.4-1.5
	c-0.9,0.5-1.7,1.7-1.9,2.8C335.9,90,336.7,91.1,337.1,92.1z"/>
<path id="XMLID_104_" class="st0" d="M350.9,85.3c-1.1,1.3-2.4,2.2-2.3,2.7c0.3,1,1.4,1.9,2.1,2.8c0.8-0.7,2.3-1.4,2.2-2
	C353,87.8,351.9,86.8,350.9,85.3z"/>
<path id="XMLID_103_" class="st0" d="M366.6,88.7c-1.2-1.1-2-2.5-2.6-2.4c-1,0.1-2.2,1-2.7,1.9c-0.2,0.4,1,2.4,1.6,2.4
	C363.9,90.5,365,89.6,366.6,88.7z"/>
<path id="XMLID_102_" class="st0" d="M375.8,91.8c1.2-1.6,2.3-2.5,2.5-3.5c0.1-0.5-1.2-1.9-2-2c-0.8-0.1-2.3,1-2.3,1.6
	C374,88.9,374.9,90,375.8,91.8z"/>
<path id="XMLID_101_" class="st0" d="M392,88.4c-1.7-1-2.6-2-3.7-2.1c-0.6-0.1-1.8,1.4-1.8,2.1c0,0.8,1.2,2.4,1.7,2.3
	C389.4,90.5,390.3,89.5,392,88.4z"/>
<path id="XMLID_100_" class="st0" d="M417.3,88.3c-1.7-1-2.7-2-3.7-2.1c-0.6-0.1-1.8,1.4-1.7,2.2c0,0.8,1.3,2.3,1.8,2.2
	C414.7,90.5,415.6,89.5,417.3,88.3z"/>
<path id="XMLID_99_" class="st0" d="M426.5,85.3c-1,1.4-2.2,2.3-2.1,2.9c0.3,1,1.5,1.8,2.3,2.6c0.7-0.7,2.1-1.5,2.1-2.2
	C428.7,87.6,427.6,86.7,426.5,85.3z"/>
<path id="XMLID_98_" class="st0" d="M439,91.8c1.2-1.6,2.2-2.5,2.4-3.6c0.1-0.5-1.3-1.8-2.1-1.9c-0.7-0.1-2.3,1.1-2.2,1.6
	C437.1,89,438.1,90,439,91.8z"/>
<path id="XMLID_97_" class="st0" d="M450.8,92.2c0.6-0.4,1.2-0.8,1.8-1.2c0.5-1.1,1.5-2.1,1.5-3.2c0-0.5-2-1.8-2.4-1.5
	c-0.9,0.5-1.7,1.7-1.9,2.8C449.6,90,450.4,91.1,450.8,92.2z"/>
<path id="XMLID_96_" class="st0" d="M464,85.3c-0.8,1.4-1.9,2.6-1.7,3.1c0.4,1,1.6,1.6,2.5,2.4c0.7-0.8,2-1.8,1.9-2.4
	C466.5,87.4,465.3,86.6,464,85.3z"/>
<path id="XMLID_95_" class="st0" d="M476.9,85.3c-1,1.4-2.2,2.4-2,2.9c0.4,1,1.5,1.7,2.4,2.6c0.7-0.8,2.1-1.6,2-2.2
	C479.2,87.5,478.1,86.7,476.9,85.3z"/>
<path id="XMLID_94_" class="st0" d="M493.1,88.2c-1.8-1-2.8-1.9-3.9-1.9c-0.6,0-1.7,1.5-1.7,2.2c0.1,0.8,1.4,2.2,1.9,2.1
	C490.6,90.4,491.5,89.4,493.1,88.2z"/>
<path id="XMLID_93_" class="st0" d="M505.8,87.9c-1.8-0.8-2.9-1.7-4-1.6c-0.6,0-1.6,1.6-1.5,2.3c0.1,0.8,1.5,2.1,2,2
	C503.4,90.4,504.2,89.2,505.8,87.9z"/>
<path id="XMLID_92_" class="st0" d="M518.3,88.7c-1.2-1.1-2-2.4-2.7-2.4c-1,0.1-2.2,1-2.7,1.9c-0.2,0.4,1.1,2.4,1.6,2.3
	C515.5,90.5,516.6,89.6,518.3,88.7z"/>
<path id="XMLID_91_" class="st0" d="M403.9,89c0.3-0.5,0.7-1.1,1-1.6c-1-0.4-2.1-1.3-3-1.1c-1,0.2-2.2,1-2.7,1.9
	c-0.2,0.4,1,2.4,1.6,2.4C401.8,90.5,402.9,89.6,403.9,89z"/>
<path id="XMLID_90_" class="st0" d="M212,91.5c1-1.4,2.3-2.7,2.1-3.1c-0.5-1-1.8-1.6-2.8-2.3c-0.6,0.9-1.6,1.8-1.5,2.6
	C209.8,89.6,211,90.3,212,91.5z"/>
<path id="XMLID_89_" class="st0" d="M164.4,88.2c-1.3-0.9-2.2-2-3-1.9c-0.8,0-1.5,1.2-2.3,1.9c0.8,0.9,1.6,2,2.6,2.5
	C162.1,90.8,163.2,89.3,164.4,88.2z"/>
<path id="XMLID_88_" class="st0" d="M178.1,88.9c-2.5-1.7-3.4-2.7-4.2-2.7c-0.8,0-1.5,1.2-2.2,1.9c0.9,0.9,1.6,2.2,2.6,2.4
	C175.2,90.8,176.3,89.8,178.1,88.9z"/>
<path id="XMLID_87_" class="st0" d="M189.6,88.4c-1.2-1-2-2.1-2.8-2.2c-0.8,0-1.7,1.1-2.5,1.7c0.8,0.9,1.4,2.2,2.4,2.7
	C187.1,90.8,188.3,89.5,189.6,88.4z"/>
<path id="XMLID_86_" class="st0" d="M199.9,83.9c-1.8,2.8-2.8,3.7-2.8,4.5c0.1,0.9,1.2,1.6,1.9,2.4c0.9-0.9,2.1-1.7,2.4-2.8
	C201.7,87.1,200.7,85.9,199.9,83.9z"/>
<path id="XMLID_85_" class="st0" d="M223.9,85.4c-0.7,1.4-1.7,2.4-1.5,3.2c0.2,0.8,1.4,1.5,2.1,2.2c0.8-1,1.8-1.9,2.2-3
	C226.8,87.4,225.2,86.5,223.9,85.4z"/>
<path id="XMLID_84_" class="st0" d="M237.1,85.3c-1,1.2-2.2,2-2.1,2.8c0,0.9,1.1,1.8,1.7,2.7c0.9-0.8,2.1-1.6,2.6-2.6
	C239.5,87.8,238.2,86.6,237.1,85.3z"/>
<path id="XMLID_83_" class="st0" d="M1124.5,88.1c-1.4-0.9-2.5-2-3.1-1.8c-1,0.4-1.7,1.6-2.5,2.4c0.8,0.7,1.7,2.1,2.3,1.9
	C1122.3,90.4,1123.1,89.3,1124.5,88.1z"/>
<path id="XMLID_82_" class="st0" d="M250.5,83.8c-1.9,2.9-2.9,3.8-2.8,4.6c0.1,0.9,1.2,1.6,1.9,2.4c0.9-0.9,2.2-1.7,2.5-2.8
	C252.3,87.1,251.3,85.9,250.5,83.8z"/>
<path id="XMLID_81_" class="st0" d="M265.7,88c-1.8-0.8-2.9-1.7-4-1.7c-0.5,0-1.6,1.6-1.5,2.3c0.1,0.8,1.5,2.1,2,2
	C263.3,90.3,264.2,89.2,265.7,88z"/>
<path id="XMLID_80_" class="st0" d="M1157,76.5c15.9-5.2,31.8-7.6,48.5-1.6c-5.1-8-13.8-9.1-36.4-5.6c3.1-3.7,6.5-7.7,9.7-11.4
	c4.1,1.9,8.3,4.8,12.9,5.5c4.3,0.7,9-1,14.5-1.8c5.9,8.1,15.8,12.2,27.1,16.5c-11,1.8-20.9,3.6-27.6,12.7
	c-9.2-7.8-18.8-9.2-28.9-1.1c-7.8-9.2-17.8-9.2-28.3-7.6c-4.8,0.7-9.8,0.9-14.7,0.9c-329.1,0-658.3,0-987.4,0
	c-5.4,0-10.7-0.5-16.1-1.1c-9.9-1.3-19.2-0.9-26.4,7.7c-9.9-7.5-19.5-7-28.8,1.3c-6.5-8.7-16-11-27.3-12.5c10.6-5,21-8.2,26.4-16.8
	c5.5,0.8,10.3,2.6,14.8,1.9c4.5-0.7,8.7-3.8,13-5.8c2.3,3.2,4.9,6.9,7.9,11c-6.3-0.5-12.2-1.2-18.1-1.2c-6.1-0.1-11.9,1.3-17,6.1
	c8.7-0.7,16.9-2.3,25-1.9c8,0.4,15.9,2.7,25.5,4.5c-2.3-2.5-3.8-4.1-5.2-5.7c-8.6-10.6-12.2-22.5-8.6-36
	c3.3-12.2,13.6-19.5,25.6-18.3c8.4,0.8,15.2,6.7,16.7,14.6c0.7,3.6,0.2,7-1.9,10c-1.6,2.4-3.9,3.4-6.7,2.5c-2.7-0.9-4.1-3-4.1-5.9
	c0-0.5,0.1-0.9,0.2-1.4c1.4-4.8,0.7-8.9-4-11.4c-4.8-2.6-12.6-1.1-16.2,2.8c-4,4.4-5.3,9.9-5.7,15.5c-0.8,11.7,3,21.7,12.3,29
	c5.1,4,7.1,3.8,11.6-0.9c2.4-2.6,5-2.4,7.6-1c2.1,1,3.9,2.6,5.7,4.1c5.4,4.6,11.7,6.6,18.7,6.6c1.9,0,3.7,0,5.6,0
	c308.6,0,617.1,0,925.7,0.1c10.4,0,19.8-1.6,27.9-8.9c4.8-4.3,6.8-3.8,11.5,1.1c2.8,2.9,5.5,2.1,8.2,0.4c7.8-4.8,12.4-12,14-20.9
	c1.3-6.7,0.9-13.5-1.9-20c-3.2-7.4-8.3-10.2-16.3-8.8c-5.4,0.9-7.7,3.7-7.6,9.1c0,1.6,0.3,3.3,0.4,4.9c0.1,3-1.4,4.9-4.2,5.7
	c-2.9,0.8-5.1-0.4-6.5-2.9c-2.9-5.2-2.3-10.4,0.4-15.3c4.3-7.7,14.8-11.2,24-8.1c10.7,3.7,15.9,11.8,17.1,22.6
	c1.3,12.3-2.3,23.1-10.9,32.1c-0.9,1-1.7,2.1-2.6,3.2C1156.7,75.4,1156.9,75.9,1157,76.5z"/>
<path id="XMLID_79_" class="st0" d="M133.1,93.5c338.4,0,676.6,0,1015,0c-16.8,2.6-33.5,3-50.2,3c-303.4,0-606.8,0-910.1,0
	C169.6,96.5,151.3,96.7,133.1,93.5z"/>
<path id="XMLID_78_" class="st0" d="M656.9,101.9c133.7,0,267.4,0,401.1,0c4.6,0,9.4,0.3,13.9,1.1c9,1.6,14.7,8.2,15.7,17.3
	c0.6,5.2-0.5,9.8-5.3,12.8c-5.5,3.4-11.3,4.5-17.3,1.7c-1.8-0.8-3.3-2.7-4.3-4.4c-1.7-2.7-1.3-5.4,1.2-7.5c2.3-2,4.8-1.7,7.1,0
	c1.9,1.4,3.4,3.2,5.3,4.5c2.2,1.5,4.9,2.8,7.1,0.8c1.5-1.4,2.5-3.9,2.5-6c0.3-9.4-7.3-17-17.8-18.2c-2.1-0.2-4.2-0.1-6.3-0.1
	c-269.3,0-538.5,0-807.8,0.1c-3.9,0-8,0.4-11.7,1.6c-8,2.7-12.7,10.1-11.9,17.8c0.5,5,3.9,7,8.3,4.8c2-1,3.6-2.9,5.5-4.3
	c3.6-2.9,6.2-3,8.7-0.5c2.5,2.4,2.3,6.3-0.7,9.4c-4.5,4.9-10.2,4.2-15.6,2.6c-5.2-1.5-9.1-4.6-9.8-10.6
	c-1.2-10.4,5.1-19.5,15.7-21.6c4.5-0.9,9.3-1.1,13.9-1.1C388.6,101.9,522.7,101.9,656.9,101.9z"/>
<path id="XMLID_77_" class="st0" d="M528,85.5c0.9,1.2,2.1,2.3,1.9,2.8c-0.5,1-1.7,1.7-2.6,2.5c-0.7-1-1.6-2-1.8-3
	C525.4,87.2,526.9,86.4,528,85.5z"/>
<path id="XMLID_76_" class="st0" d="M973,88c-1.4,1.2-2.3,2.4-3.3,2.6c-0.6,0.1-1.5-1.2-2.3-1.9c0.8-0.9,1.5-2.1,2.4-2.4
	C970.4,86,971.5,87.1,973,88z"/>
<path id="XMLID_75_" class="st0" d="M957.5,91.8c-1.3-1.6-2.4-2.4-2.6-3.5c-0.1-0.5,1.2-1.9,2-2c0.8-0.1,2.4,1,2.4,1.5
	C959.3,88.8,958.4,89.9,957.5,91.8z"/>
<path id="XMLID_74_" class="st0" d="M941.3,88.6c1.3-1.1,2.1-2.4,2.7-2.3c1,0.2,2.2,1.1,2.7,2.1c0.2,0.4-1.2,2.3-1.7,2.3
	C943.9,90.5,942.9,89.5,941.3,88.6z"/>
<path id="XMLID_73_" class="st0" d="M934.4,89.1c-1,0.6-2.1,1.5-3.1,1.5c-0.6,0-1.2-1.6-1.8-2.4c1-0.7,1.9-1.7,3-1.9
	c1-0.2,2.1,0.6,3.1,1C935.2,87.8,934.8,88.5,934.4,89.1z"/>
<path id="XMLID_72_" class="st0" d="M922.4,88.2c-1.5,1.1-2.3,2.3-3.4,2.4c-0.6,0.1-1.5-1.3-2.2-2c0.8-0.8,1.5-2,2.5-2.4
	C920,86,921,87.2,922.4,88.2z"/>
<path id="XMLID_71_" class="st0" d="M906.5,91.8c-1-1.8-2-2.8-2.1-3.9c0-0.5,1.5-1.7,2.4-1.6c0.8,0,2.2,1.3,2.1,1.9
	C908.6,89.2,907.6,90.1,906.5,91.8z"/>
<path id="XMLID_70_" class="st0" d="M894,91.8c-1.1-1.7-2.1-2.6-2.3-3.7c-0.1-0.5,1.4-1.8,2.2-1.8c0.8,0,2.3,1.2,2.2,1.7
	C896,89.1,895.1,90,894,91.8z"/>
<path id="XMLID_69_" class="st0" d="M884.5,88.6c-1.6,0.9-2.6,2-3.7,2c-0.6,0-1.3-1.5-1.9-2.4c0.9-0.7,1.8-1.8,2.9-2
	C882.4,86.1,883.3,87.5,884.5,88.6z"/>
<path id="XMLID_68_" class="st0" d="M556.2,88.6c-1.6,1-2.6,1.9-3.7,2c-0.5,0-1.9-1.9-1.7-2.3c0.5-0.9,1.7-1.9,2.7-2
	C554,86.2,554.9,87.5,556.2,88.6z"/>
<path id="XMLID_67_" class="st0" d="M859.3,88.5c-1.6,1-2.6,2-3.6,2.1c-0.6,0-1.3-1.5-2-2.3c0.9-0.7,1.7-1.8,2.8-2.1
	C857.1,86.1,858,87.4,859.3,88.5z"/>
<path id="XMLID_66_" class="st0" d="M994.9,91.7c-1-1.8-2-2.8-2.1-3.9c-0.1-0.5,1.5-1.7,2.4-1.6c0.8,0,2.2,1.3,2.1,1.9
	C997,89.2,996,90.1,994.9,91.7z"/>
<path id="XMLID_65_" class="st0" d="M843.3,91.7c-1-1.8-2-2.8-2.1-3.9c-0.1-0.5,1.5-1.7,2.4-1.6c0.8,0,2.2,1.3,2.1,1.9
	C845.5,89.2,844.4,90.1,843.3,91.7z"/>
<path id="XMLID_64_" class="st0" d="M830,84.4c1.9,2.1,3.2,3.1,3.1,3.6c-0.4,1-1.5,1.8-2.3,2.7c-0.8-0.9-2-1.8-2.2-2.8
	C828.4,87.1,829.3,86,830,84.4z"/>
<path id="XMLID_63_" class="st0" d="M821.4,88.4c-1.6,1-2.5,2.1-3.6,2.2c-0.6,0.1-1.3-1.4-2-2.2c0.9-0.8,1.7-1.9,2.7-2.1
	C819.1,86.1,820.1,87.4,821.4,88.4z"/>
<path id="XMLID_62_" class="st0" d="M805.6,91.8c-1.1-1.7-2.1-2.6-2.3-3.7c-0.1-0.5,1.4-1.8,2.2-1.8c0.8,0,2.3,1.2,2.3,1.7
	C807.6,89.1,806.7,90,805.6,91.8z"/>
<path id="XMLID_61_" class="st0" d="M792.7,91.8c-1-1.8-1.9-2.8-2-3.9c0-0.5,1.5-1.7,2.3-1.6c0.8,0,2.2,1.4,2.1,1.9
	C794.9,89.2,793.9,90.1,792.7,91.8z"/>
<path id="XMLID_60_" class="st0" d="M780.3,91.7c-1.1-1.7-2.1-2.6-2.2-3.7c-0.1-0.5,1.4-1.8,2.2-1.8c0.8,0,2.3,1.2,2.3,1.7
	C782.4,89,781.4,90,780.3,91.7z"/>
<path id="XMLID_59_" class="st0" d="M770.9,87.9c-1.4,1.2-2.2,2.4-3.3,2.7c-0.6,0.1-1.5-1.2-2.3-1.9c0.8-0.9,1.4-2.1,2.4-2.5
	C768.3,86,769.4,87.1,770.9,87.9z"/>
<path id="XMLID_58_" class="st0" d="M758.2,88.6c-1.6,0.9-2.6,1.9-3.7,2c-0.6,0-1.9-1.9-1.7-2.3c0.5-0.9,1.7-1.9,2.7-2.1
	C756.1,86.1,757,87.5,758.2,88.6z"/>
<path id="XMLID_57_" class="st0" d="M745.6,88.2c-1.5,1.1-2.3,2.2-3.4,2.4c-0.6,0.1-1.4-1.3-2.2-2c0.8-0.8,1.5-2,2.5-2.3
	C743.1,86.1,744.2,87.2,745.6,88.2z"/>
<path id="XMLID_56_" class="st0" d="M733.2,87.8c-1.6,1.4-2.4,2.5-3.4,2.8c-0.6,0.1-2-1.1-2.2-1.9c-0.1-0.7,0.9-2.3,1.5-2.4
	C730.1,86.2,731.3,87.1,733.2,87.8z"/>
<path id="XMLID_55_" class="st0" d="M717.2,85.5c1,1.1,2.4,2.1,2.2,2.6c-0.4,1.1-1.5,1.8-2.3,2.7c-0.8-0.9-1.9-1.8-2.2-2.8
	C714.8,87.5,716.2,86.5,717.2,85.5z"/>
<path id="XMLID_54_" class="st0" d="M707.9,87.8c-1.6,1.4-2.4,2.5-3.4,2.8c-0.6,0.1-2-1.1-2.2-1.9c-0.1-0.7,0.9-2.3,1.5-2.4
	C704.9,86.2,706,87.1,707.9,87.8z"/>
<path id="XMLID_53_" class="st0" d="M695.1,88c-1.4,1.2-2.2,2.4-3.2,2.7c-0.6,0.2-1.5-1.2-2.3-1.9c0.8-0.9,1.4-2.1,2.4-2.5
	C692.5,86,693.6,87.1,695.1,88z"/>
<path id="XMLID_52_" class="st0" d="M682.5,88c-1.4,1.2-2.2,2.4-3.3,2.7c-0.6,0.1-1.5-1.2-2.3-1.9c0.8-0.9,1.4-2.1,2.4-2.5
	C679.9,86,681,87.1,682.5,88z"/>
<path id="XMLID_51_" class="st0" d="M666.6,91.8c-1.1-1.7-2.1-2.6-2.2-3.7c-0.1-0.5,1.4-1.8,2.1-1.8c0.8,0,2.4,1.2,2.3,1.7
	C668.7,89.1,667.7,90,666.6,91.8z"/>
<path id="XMLID_50_" class="st0" d="M657.2,88.1c-1.4,1.2-2.3,2.3-3.3,2.6c-0.6,0.1-1.5-1.3-2.2-2c0.8-0.9,1.4-2.1,2.4-2.4
	C654.7,86,655.7,87.2,657.2,88.1z"/>
<path id="XMLID_49_" class="st0" d="M594.1,88.3c-1.5,1.1-2.4,2.1-3.5,2.3c-0.6,0.1-2.1-1.7-1.9-2.1c0.4-1,1.4-2,2.4-2.3
	C591.7,86.1,592.7,87.3,594.1,88.3z"/>
<path id="XMLID_48_" class="st0" d="M644.6,88.2c-1.5,1.1-2.3,2.2-3.4,2.4c-0.6,0.1-2.2-1.6-2-2c0.4-1,1.4-2.1,2.3-2.4
	C642.1,86.1,643.1,87.2,644.6,88.2z"/>
<path id="XMLID_47_" class="st0" d="M632,88.3c-1.5,1.1-2.4,2.2-3.5,2.3c-0.6,0.1-2.1-1.7-1.9-2.1c0.4-1,1.5-2,2.4-2.3
	C629.6,86.1,630.6,87.3,632,88.3z"/>
<path id="XMLID_46_" class="st0" d="M619.3,88.4c-1.6,1-2.5,2.1-3.6,2.2c-0.6,0.1-2-1.8-1.8-2.2c0.4-1,1.5-1.9,2.5-2.2
	C617,86.1,618,87.4,619.3,88.4z"/>
<path id="XMLID_45_" class="st0" d="M606.7,88.4c-1.6,1-2.5,2.1-3.6,2.2c-0.6,0.1-2-1.8-1.8-2.2c0.4-1,1.5-1.9,2.5-2.2
	C604.4,86.1,605.3,87.4,606.7,88.4z"/>
<path id="XMLID_44_" class="st0" d="M581.4,88.6c-1.6,1-2.6,1.9-3.7,2c-0.6,0-1.9-1.9-1.7-2.3c0.5-0.9,1.7-1.9,2.7-2
	C579.3,86.2,580.2,87.5,581.4,88.6z"/>
<path id="XMLID_43_" class="st0" d="M565.9,85.5c0.9,1.2,2.1,2.3,1.9,2.8c-0.5,1-1.7,1.7-2.6,2.5c-0.7-1-1.7-2-1.8-3
	C563.3,87.2,564.8,86.4,565.9,85.5z"/>
<path id="XMLID_42_" class="st0" d="M540.4,91.5c-1.1-1.2-2.4-2.2-2.3-2.7c0.2-1,1.2-2.1,2.2-2.5c0.5-0.2,2.3,1.2,2.3,1.7
	C542.4,89,541.4,90,540.4,91.5z"/>
<path id="XMLID_41_" class="st0" d="M1010.2,89.1c-1,0.6-2.1,1.5-3.1,1.5c-0.6,0-1.2-1.6-1.8-2.4c1-0.7,1.9-1.7,3-1.9
	c0.9-0.2,2.1,0.6,3.1,1C1011,87.8,1010.6,88.4,1010.2,89.1z"/>
<path id="XMLID_40_" class="st0" d="M1020.3,91.7c-1.1-1.7-2.1-2.6-2.3-3.7c-0.1-0.5,1.4-1.7,2.2-1.8c0.8,0,2.3,1.2,2.2,1.7
	C1022.3,89.1,1021.4,90,1020.3,91.7z"/>
<path id="XMLID_39_" class="st0" d="M1032.7,85.5c1.1,1,2.5,1.8,2.4,2.3c-0.2,1.1-1.3,2-2,3c-0.9-0.8-2-1.6-2.4-2.6
	C1030.5,87.7,1031.8,86.7,1032.7,85.5z"/>
<path id="XMLID_38_" class="st0" d="M1042.3,88.6c1.3-1.1,2.2-2.4,2.8-2.3c1,0.2,2.2,1.1,2.7,2.1c0.2,0.4-1.2,2.3-1.7,2.3
	C1044.9,90.5,1043.9,89.5,1042.3,88.6z"/>
<path id="XMLID_37_" class="st0" d="M1061.3,88.4c-1.5,1-2.5,2.1-3.5,2.2c-0.6,0-1.4-1.4-2.1-2.2c0.9-0.8,1.7-1.9,2.7-2.1
	C1059.1,86.1,1060,87.4,1061.3,88.4z"/>
<path id="XMLID_36_" class="st0" d="M1071.2,91.8c-1.3-1.6-2.4-2.4-2.7-3.5c-0.1-0.5,1.2-1.9,2-2c0.8-0.1,2.4,0.9,2.4,1.5
	C1072.9,88.8,1072.1,89.9,1071.2,91.8z"/>
<path id="XMLID_35_" class="st0" d="M1086.6,87.9c-1.4,1.2-2.2,2.4-3.2,2.7c-0.6,0.1-1.6-1.2-2.4-1.9c0.8-0.9,1.4-2.1,2.4-2.5
	C1084,86,1085.1,87.1,1086.6,87.9z"/>
<path id="XMLID_34_" class="st0" d="M1096.3,91.5c-1.1-1.4-2.2-2.2-2.5-3.3c-0.1-0.5,1.5-2.1,1.9-2c1,0.3,2.1,1.3,2.5,2.2
	C1098.4,89.1,1097.2,90.1,1096.3,91.5z"/>
<path id="XMLID_33_" class="st0" d="M1111.9,88.2c-1.5,1.1-2.3,2.3-3.3,2.4c-0.6,0.1-1.5-1.3-2.2-2c0.8-0.8,1.6-2,2.6-2.3
	C1109.4,86.1,1110.5,87.2,1111.9,88.2z"/>
<path id="XMLID_32_" class="st0" d="M985.6,88.4c-1.5,1-2.5,2.1-3.5,2.2c-0.6,0.1-1.4-1.4-2-2.2c0.9-0.8,1.7-1.9,2.7-2.1
	C983.3,86.1,984.2,87.4,985.6,88.4z"/>
<path id="XMLID_31_" class="st0" d="M867.9,84.4c1.9,2.2,3.2,3.1,3.1,3.6c-0.3,1-1.5,1.8-2.3,2.7c-0.8-0.9-2-1.8-2.2-2.8
	C866.2,87.1,867.2,86,867.9,84.4z"/>
<path id="XMLID_30_" class="st0" d="M278.4,88c-1.6,1.3-2.4,2.4-3.5,2.7c-0.5,0.1-1.9-1.2-2-2c-0.1-0.7,0.9-2.3,1.5-2.3
	C275.5,86.3,276.6,87.1,278.4,88z"/>
<path id="XMLID_29_" class="st0" d="M287.4,85.3c1.1,1.4,2.3,2.3,2.4,3.2c0.1,0.6-1.3,1.5-2,2.2c-0.8-0.8-2-1.5-2.3-2.5
	C285.3,87.7,286.5,86.6,287.4,85.3z"/>
<path id="XMLID_28_" class="st0" d="M299.2,92.1c-0.4-1-1.1-2.1-1-3.1c0.1-1,1-2.2,1.9-2.8c0.4-0.2,2.4,1,2.4,1.5
	c0,1.1-0.9,2.1-1.5,3.2C300.4,91.4,299.8,91.7,299.2,92.1z"/>
<path id="XMLID_27_" class="st0" d="M311.8,92.1c-0.4-1.1-1.1-2.2-1-3.1c0.1-1,1-2.2,1.9-2.8c0.4-0.2,2.4,1,2.4,1.5
	c0,1.1-0.9,2.1-1.5,3.2C313,91.4,312.4,91.8,311.8,92.1z"/>
<path id="XMLID_26_" class="st0" d="M325.2,91.8c-0.9-1.8-1.8-2.8-1.8-3.9c0-0.5,1.6-1.6,2.3-1.6c0.8,0.1,2.2,1.5,2.1,2
	C327.5,89.3,326.4,90.2,325.2,91.8z"/>
<path id="XMLID_25_" class="st0" d="M337.1,92.1c-0.4-1-1.1-2.2-1-3.1c0.1-1,1-2.2,1.9-2.8c0.4-0.2,2.4,1,2.4,1.5
	c0,1.1-0.9,2.1-1.5,3.2C338.3,91.4,337.7,91.8,337.1,92.1z"/>
<path id="XMLID_24_" class="st0" d="M350.9,85.3c1,1.5,2,2.5,2.1,3.5c0,0.6-1.4,1.3-2.2,2c-0.7-0.9-1.8-1.8-2.1-2.8
	C348.5,87.5,349.8,86.5,350.9,85.3z"/>
<path id="XMLID_23_" class="st0" d="M366.6,88.7c-1.7,0.9-2.7,1.8-3.8,1.9c-0.5,0-1.8-1.9-1.6-2.4c0.5-0.9,1.7-1.8,2.7-1.9
	C364.6,86.2,365.4,87.6,366.6,88.7z"/>
<path id="XMLID_22_" class="st0" d="M375.8,91.8c-0.9-1.8-1.8-2.9-1.8-3.9c0-0.5,1.6-1.6,2.3-1.6c0.8,0.1,2.2,1.4,2,2
	C378.1,89.3,377,90.2,375.8,91.8z"/>
<path id="XMLID_21_" class="st0" d="M392,88.4c-1.7,1.1-2.7,2.1-3.7,2.3c-0.5,0.1-1.7-1.5-1.7-2.3c0-0.7,1.2-2.2,1.8-2.1
	C389.4,86.4,390.4,87.3,392,88.4z"/>
<path id="XMLID_20_" class="st0" d="M417.3,88.3c-1.7,1.1-2.6,2.2-3.7,2.3c-0.5,0.1-1.8-1.4-1.8-2.2c0-0.7,1.2-2.2,1.7-2.2
	C414.6,86.4,415.6,87.3,417.3,88.3z"/>
<path id="XMLID_19_" class="st0" d="M426.5,85.3c1.1,1.5,2.2,2.4,2.3,3.4c0.1,0.6-1.3,1.4-2.1,2.2c-0.8-0.9-1.9-1.6-2.3-2.6
	C424.3,87.6,425.5,86.6,426.5,85.3z"/>
<path id="XMLID_18_" class="st0" d="M439,91.8c-0.9-1.8-1.9-2.8-1.9-3.9c0-0.5,1.5-1.7,2.2-1.6c0.8,0.1,2.2,1.4,2.1,1.9
	C441.2,89.2,440.2,90.1,439,91.8z"/>
<path id="XMLID_17_" class="st0" d="M450.8,92.2c-0.4-1.1-1.1-2.2-1-3.1c0.1-1,1-2.2,1.9-2.8c0.4-0.2,2.4,1,2.4,1.5
	c0,1.1-0.9,2.1-1.5,3.2C452,91.4,451.4,91.8,450.8,92.2z"/>
<path id="XMLID_16_" class="st0" d="M464,85.3c1.2,1.3,2.5,2.1,2.7,3.1c0.1,0.6-1.2,1.6-1.9,2.4c-0.9-0.8-2.1-1.4-2.5-2.4
	C462.1,87.8,463.2,86.7,464,85.3z"/>
<path id="XMLID_15_" class="st0" d="M476.9,85.3c1.1,1.4,2.3,2.3,2.4,3.3c0.1,0.6-1.3,1.5-2,2.2c-0.8-0.8-2-1.6-2.4-2.6
	C474.8,87.7,476,86.7,476.9,85.3z"/>
<path id="XMLID_14_" class="st0" d="M493.1,88.2c-1.7,1.2-2.6,2.2-3.6,2.5c-0.5,0.1-1.8-1.3-1.9-2.1c-0.1-0.7,1.1-2.3,1.7-2.2
	C490.4,86.3,491.4,87.2,493.1,88.2z"/>
<path id="XMLID_13_" class="st0" d="M505.8,87.9c-1.6,1.3-2.4,2.4-3.5,2.7c-0.5,0.1-1.9-1.2-2-2c-0.1-0.7,0.9-2.3,1.5-2.3
	C502.8,86.3,503.9,87.1,505.8,87.9z"/>
<path id="XMLID_12_" class="st0" d="M518.3,88.7c-1.7,0.9-2.7,1.8-3.8,1.9c-0.5,0-1.8-2-1.6-2.3c0.5-0.9,1.7-1.8,2.7-1.9
	C516.2,86.2,517,87.5,518.3,88.7z"/>
<path id="XMLID_11_" class="st0" d="M403.9,89c-1,0.6-2.1,1.5-3.2,1.5c-0.5,0-1.8-1.9-1.6-2.4c0.5-0.9,1.7-1.8,2.7-1.9
	c0.9-0.1,2,0.7,3,1.1C404.6,87.9,404.3,88.5,403.9,89z"/>
<path id="XMLID_10_" class="st0" d="M212,91.5c-1-1.2-2.2-2-2.2-2.8c-0.1-0.8,1-1.7,1.5-2.6c1,0.7,2.2,1.3,2.8,2.3
	C214.3,88.9,213,90.1,212,91.5z"/>
<path id="XMLID_9_" class="st0" d="M164.4,88.2c-1.2,1.1-2.3,2.6-2.7,2.4c-1-0.4-1.8-1.6-2.6-2.5c0.8-0.7,1.5-1.8,2.3-1.9
	C162.2,86.2,163,87.3,164.4,88.2z"/>
<path id="XMLID_8_" class="st0" d="M178.1,88.9c-1.8,0.9-3,1.9-3.8,1.7c-1-0.2-1.8-1.6-2.6-2.4c0.7-0.7,1.5-1.9,2.2-1.9
	C174.8,86.2,175.6,87.3,178.1,88.9z"/>
<path id="XMLID_7_" class="st0" d="M189.6,88.4c-1.3,1-2.5,2.4-2.9,2.2c-1-0.5-1.6-1.8-2.4-2.7c0.8-0.6,1.7-1.7,2.5-1.7
	C187.6,86.3,188.4,87.4,189.6,88.4z"/>
<path id="XMLID_6_" class="st0" d="M199.9,83.9c0.8,2,1.8,3.2,1.6,4.1c-0.3,1.1-1.6,1.9-2.4,2.8c-0.7-0.8-1.8-1.6-1.9-2.4
	C197,87.6,198.1,86.7,199.9,83.9z"/>
<path id="XMLID_5_" class="st0" d="M223.9,85.4c1.3,1.1,2.9,2,2.8,2.4c-0.3,1.1-1.4,2-2.2,3c-0.8-0.7-2-1.4-2.1-2.2
	C222.2,87.8,223.2,86.8,223.9,85.4z"/>
<path id="XMLID_4_" class="st0" d="M237.1,85.3c1,1.3,2.4,2.5,2.2,2.8c-0.5,1-1.7,1.8-2.6,2.6c-0.6-0.9-1.7-1.7-1.7-2.7
	C235,87.4,236.1,86.6,237.1,85.3z"/>
<path id="XMLID_3_" class="st0" d="M1124.5,88.1c-1.4,1.2-2.2,2.4-3.2,2.5c-0.6,0.1-1.5-1.2-2.3-1.9c0.8-0.8,1.5-2,2.5-2.4
	C1122,86.1,1123.1,87.2,1124.5,88.1z"/>
<path id="XMLID_2_" class="st0" d="M250.5,83.8c0.8,2.1,1.8,3.3,1.5,4.2c-0.3,1.1-1.6,1.9-2.5,2.8c-0.7-0.8-1.8-1.6-1.9-2.4
	C247.5,87.6,248.6,86.7,250.5,83.8z"/>
<path id="XMLID_1_" class="st0" d="M265.7,88c-1.5,1.3-2.4,2.4-3.4,2.7c-0.5,0.1-1.9-1.2-2-2c-0.1-0.7,0.9-2.3,1.5-2.3
	C262.8,86.3,263.9,87.1,265.7,88z"/>
</svg>
