<?xml version="1.0" encoding="UTF-8" standalone="no"?>
<!-- Created with Inkscape (http://www.inkscape.org/) -->

<svg
   xmlns:dc="http://purl.org/dc/elements/1.1/"
   xmlns:cc="http://creativecommons.org/ns#"
   xmlns:rdf="http://www.w3.org/1999/02/22-rdf-syntax-ns#"
   xmlns:svg="http://www.w3.org/2000/svg"
   xmlns="http://www.w3.org/2000/svg"
   version="1.1"
   width="210mm"
   height="297mm"
   viewBox="0 0 21000 29700"
   id="svg3043"
   xml:space="preserve"
   style="fill-rule:evenodd"><title
   id="title3010">Art nouveau border design </title><metadata
   id="metadata3099"><rdf:RDF><cc:Work
       rdf:about=""><dc:format>image/svg+xml</dc:format><dc:type
         rdf:resource="http://purl.org/dc/dcmitype/StillImage" /><dc:title>Art nouveau border design </dc:title><dc:subject><rdf:Bag><rdf:li>art nouveau border design</rdf:li><rdf:li>art nouveau design</rdf:li><rdf:li>art nouveau border</rdf:li><rdf:li>art nouveau</rdf:li><rdf:li>border</rdf:li><rdf:li>design</rdf:li></rdf:Bag></dc:subject><dc:creator><cc:Agent><dc:title>Craftsmanspace</dc:title></cc:Agent></dc:creator><dc:publisher><cc:Agent><dc:title>www.craftsmanspace.com</dc:title></cc:Agent></dc:publisher><dc:description>Download free Art nouveau border design.</dc:description><cc:license
         rdf:resource="http://creativecommons.org/licenses/by-sa/3.0/" /></cc:Work><cc:License
       rdf:about="http://creativecommons.org/licenses/by-sa/3.0/"><cc:permits
         rdf:resource="http://creativecommons.org/ns#Reproduction" /><cc:permits
         rdf:resource="http://creativecommons.org/ns#Distribution" /><cc:requires
         rdf:resource="http://creativecommons.org/ns#Notice" /><cc:requires
         rdf:resource="http://creativecommons.org/ns#Attribution" /><cc:permits
         rdf:resource="http://creativecommons.org/ns#DerivativeWorks" /><cc:requires
         rdf:resource="http://creativecommons.org/ns#ShareAlike" /></cc:License></rdf:RDF></metadata>
 <defs
   id="defs3045">
  <style
   type="text/css"
   id="style3047" />
 
  
  
  
  
  
  
  
  
  
  
  
  
  
  
  
  
  
  
  
  
  
  
  
  
 </defs>
 <path
   d="M 10145.61,3202.2542 C 9925.6102,3202.2542 9706.6102,3202.2542 9487.6102,3217.2542 C 9268.6102,3232.2542 9050.6102,3261.2542 8883.6102,3332.2542 C 8715.6102,3403.2542 8598.6102,3516.2542 8537.6102,3636.2542 C 8476.6102,3755.2542 8472.6102,3881.2542 8535.6102,3992.2542 C 8598.6102,4103.2542 8728.6102,4199.2542 8823.6102,4275.2542 C 8918.6102,4351.2542 8978.6102,4406.2542 8997.6102,4477.2542 C 9016.6102,4547.2542 8995.6102,4632.2542 8900.6102,4692.2542 C 8804.6102,4752.2542 8633.6102,4788.2542 8403.6102,4776.2542 C 8173.6102,4764.2542 7884.6102,4704.2542 7593.6102,4620.2542 C 7302.6102,4536.2542 7010.6102,4427.2542 6827.6102,4348.2542 C 6644.6102,4269.2542 6571.6102,4220.2542 6546.6102,4197.2542 C 6521.6102,4174.2542 6544.6102,4177.2542 6633.6102,4205.2542 C 6722.6102,4233.2542 6877.6102,4285.2542 7078.6102,4329.2542 C 7279.6102,4373.2542 7525.6102,4409.2542 7726.6102,4415.2542 C 7928.6102,4421.2542 8085.6102,4398.2542 8176.6102,4336.2542 C 8267.6102,4274.2542 8292.6102,4174.2542 8266.6102,4078.2542 C 8240.6102,3983.2542 8162.6102,3893.2542 8083.6102,3828.2542 C 8004.6102,3763.2542 7923.6102,3723.2542 7879.6102,3688.2542 C 7835.6102,3653.2542 7828.6102,3623.2542 7836.6102,3603.2542 C 7844.6102,3584.2542 7868.6102,3575.2542 7925.6102,3586.2542 C 7981.6102,3597.2542 8069.6102,3627.2542 8148.6102,3644.2542 C 8227.6102,3661.2542 8297.6102,3664.2542 8357.6102,3649.2542 C 8417.6102,3634.2542 8468.6102,3600.2542 8506.6102,3553.2542 C 8544.6102,3505.2542 8570.6102,3444.2542 8571.6102,3381.2542 C 8572.6102,3318.2542 8546.6102,3254.2542 8518.6102,3220.2542 C 8490.6102,3185.2542 8458.6102,3180.2542 8449.6102,3195.2542 C 8440.6102,3210.2542 8454.6102,3246.2542 8445.6102,3284.2542 C 8437.6102,3322.2542 8406.6102,3363.2542 8343.6102,3369.2542 C 8280.6102,3375.2542 8183.6102,3345.2542 8071.6102,3287.2542 C 7958.6102,3229.2542 7830.6102,3142.2542 7691.6102,3125.2542 C 7553.6102,3108.2542 7405.6102,3162.2542 7318.6102,3237.2542 C 7231.6102,3312.2542 7203.6102,3410.2542 7233.6102,3505.2542 C 7263.6102,3600.2542 7350.6102,3692.2542 7434.6102,3773.2542 C 7518.6102,3854.2542 7598.6102,3924.2542 7629.6102,3989.2542 C 7659.6102,4053.2542 7639.6102,4112.2542 7579.6102,4138.2542 C 7518.6102,4164.2542 7417.6102,4156.2542 7196.6102,4102.2542 C 6975.6102,4048.2542 6635.6102,3946.2542 6131.6102,3803.2542 C 5628.6102,3660.2542 4961.6102,3476.2542 4356.6102,3361.2542 C 3751.6102,3247.2542 3206.6102,3203.2542 2731.6102,3236.2542 C 2256.6102,3270.2542 1852.6102,3381.2542 1572.6102,3540.2542 C 1292.6102,3699.2542 1137.6102,3907.2542 1063.6102,4100.2542 C 989.61017,4294.2542 995.61017,4474.2542 1094.6102,4639.2542 C 1194.6102,4805.2542 1386.6102,4955.2542 1632.6102,5045.2542 C 1878.6102,5135.2542 2178.6102,5164.2542 2460.6102,5136.2542 C 2742.6102,5108.2542 3006.6102,5022.2542 3191.6102,4938.2542 C 3376.6102,4854.2542 3483.6102,4772.2542 3561.6102,4688.2542 C 3639.6102,4603.2542 3687.6102,4515.2542 3722.6102,4491.2542 C 3758.6102,4467.2542 3781.6102,4507.2542 3731.6102,4609.2542 C 3682.6102,4712.2542 3560.6102,4877.2542 3355.6102,5030.2542 C 3150.6102,5183.2542 2861.6102,5323.2542 2551.6102,5472.2542 C 2241.6102,5621.2542 1910.6102,5778.2542 1670.6102,5999.2542 C 1430.6102,6220.2542 1281.6102,6505.2542 1225.6102,6816.2542 C 1168.6102,7127.2542 1204.6102,7464.2542 1306.6102,7747.2542 C 1408.6102,8030.2542 1575.6102,8258.2542 1820.6102,8490.2542 C 1857.6102,8525.2542 1895.6102,8559.2542 1935.6102,8594.2542 M 2255.6102,8842.2542 C 2424.6102,8961.2542 2621.6102,9082.2542 2854.6102,9208.2542 C 3321.6102,9460.2542 3933.6102,9731.2542 4588.6102,9933.2542 C 5243.6102,10135.254 5940.6102,10269.254 6571.6102,10296.254 C 7202.6102,10323.254 7765.6102,10244.254 8276.6102,10123.254 C 8559.6102,10056.254 8826.6102,9977.2542 9058.6102,9886.2542 M 9256.6102,9801.2542 C 9362.6102,9751.2542 9458.6102,9699.2542 9540.6102,9644.2542 C 9834.6102,9447.2542 9964.6102,9215.2542 10037.61,9022.2542 C 10110.61,8829.2542 10127.61,8676.2542 10114.61,8507.2542 C 10113.61,8488.2542 10111.61,8469.2542 10109.61,8450.2542 M 10073.61,8263.2542 C 10047.61,8172.2542 10009.61,8086.2542 9951.6102,8013.2542 C 9842.6102,7876.2542 9666.6102,7788.2542 9534.6102,7734.2542 C 9402.6102,7681.2542 9314.6102,7662.2542 9291.6102,7631.2542 C 9268.6102,7601.2542 9310.6102,7559.2542 9409.6102,7537.2542 C 9509.6102,7515.2542 9666.6102,7513.2542 9788.6102,7476.2542 C 9911.6102,7439.2542 9999.6102,7368.2542 10052.61,7269.2542 C 10105.61,7169.2542 10124.61,7042.2542 10106.61,6948.2542 C 10088.61,6855.2542 10034.61,6796.2542 10001.61,6792.2542 C 9968.6102,6788.2542 9955.6102,6838.2542 9919.6102,6915.2542 C 9883.6102,6991.2542 9825.6102,7094.2542 9651.6102,7148.2542 C 9477.6102,7201.2542 9188.6102,7206.2542 8950.6102,7227.2542 C 8712.6102,7248.2542 8526.6102,7286.2542 8446.6102,7391.2542 C 8366.6102,7497.2542 8394.6102,7671.2542 8533.6102,7789.2542 C 8672.6102,7907.2542 8924.6102,7970.2542 9144.6102,8026.2542 C 9364.6102,8082.2542 9553.6102,8130.2542 9681.6102,8222.2542 C 9708.6102,8242.2542 9733.6102,8263.2542 9755.6102,8287.2542 M 9861.6102,8460.2542 C 9878.6102,8506.2542 9888.6102,8555.2542 9893.6102,8606.2542 C 9908.6102,8762.2542 9868.6102,8938.2542 9762.6102,9097.2542 C 9656.6102,9256.2542 9484.6102,9399.2542 9260.6102,9520.2542 C 9209.6102,9548.2542 9156.6102,9574.2542 9099.6102,9600.2542 M 8905.6102,9680.2542 C 8761.6102,9734.2542 8603.6102,9784.2542 8430.6102,9830.2542 C 8101.6102,9918.2542 7720.6102,9993.2542 7301.6102,10020.254 C 6882.6102,10046.254 6425.6102,10023.254 5984.6102,9960.2542 C 5543.6102,9897.2542 5118.6102,9794.2542 4699.6102,9663.2542 C 4280.6102,9531.2542 3867.6102,9370.2542 3460.6102,9183.2542 C 3123.6102,9029.2542 2790.6102,8858.2542 2522.6102,8673.2542 M 2214.6102,8423.2542 C 2015.6102,8229.2542 1887.6102,8018.2542 1814.6102,7769.2542 C 1724.6102,7463.2542 1716.6102,7101.2542 1782.6102,6813.2542 C 1848.6102,6525.2542 1988.6102,6311.2542 2293.6102,6073.2542 C 2598.6102,5835.2542 3067.6102,5573.2542 3381.6102,5352.2542 C 3695.6102,5131.2542 3854.6102,4951.2542 3943.6102,4764.2542 C 4032.6102,4578.2542 4051.6102,4385.2542 4013.6102,4217.2542 C 3975.6102,4049.2542 3881.6102,3907.2542 3775.6102,3835.2542 C 3669.6102,3763.2542 3552.6102,3761.2542 3496.6102,3799.2542 C 3440.6102,3838.2542 3447.6102,3917.2542 3458.6102,4025.2542 C 3470.6102,4133.2542 3486.6102,4269.2542 3428.6102,4397.2542 C 3369.6102,4525.2542 3235.6102,4644.2542 3051.6102,4735.2542 C 2867.6102,4826.2542 2632.6102,4889.2542 2372.6102,4902.2542 C 2112.6102,4915.2542 1827.6102,4877.2542 1645.6102,4769.2542 C 1463.6102,4661.2542 1383.6102,4483.2542 1412.6102,4314.2542 C 1441.6102,4145.2542 1580.6102,3986.2542 1801.6102,3850.2542 C 2022.6102,3714.2542 2326.6102,3601.2542 2656.6102,3548.2542 C 2986.6102,3496.2542 3342.6102,3504.2542 3740.6102,3558.2542 C 4138.6102,3612.2542 4578.6102,3713.2542 5030.6102,3847.2542 C 5483.6102,3981.2542 5948.6102,4149.2542 6323.6102,4302.2542 C 6698.6102,4455.2542 6983.6102,4593.2542 7317.6102,4714.2542 C 7651.6102,4834.2542 8035.6102,4937.2542 8367.6102,4983.2542 C 8699.6102,5029.2542 8980.6102,5019.2542 9179.6102,4958.2542 C 9378.6102,4897.2542 9495.6102,4786.2542 9533.6102,4670.2542 C 9571.6102,4554.2542 9529.6102,4432.2542 9450.6102,4321.2542 C 9371.6102,4210.2542 9256.6102,4109.2542 9197.6102,4005.2542 C 9137.6102,3900.2542 9133.6102,3791.2542 9188.6102,3697.2542 C 9242.6102,3603.2542 9356.6102,3523.2542 9524.6102,3483.2542 C 9693.6102,3443.2542 9916.6102,3443.2542 10140.61,3443.2542"
   id="path3051"
   style="fill:none;stroke:#000000;stroke-width:20" /><path
   d="M 10145.61,3202.2542 C 10365.61,3202.2542 10585.61,3202.2542 10803.61,3217.2542 C 11022.61,3232.2542 11240.61,3261.2542 11407.61,3332.2542 C 11575.61,3403.2542 11692.61,3516.2542 11753.61,3636.2542 C 11814.61,3755.2542 11818.61,3881.2542 11755.61,3992.2542 C 11692.61,4103.2542 11562.61,4199.2542 11467.61,4275.2542 C 11372.61,4351.2542 11312.61,4406.2542 11293.61,4477.2542 C 11274.61,4547.2542 11295.61,4632.2542 11390.61,4692.2542 C 11486.61,4752.2542 11657.61,4788.2542 11887.61,4776.2542 C 12117.61,4764.2542 12406.61,4704.2542 12697.61,4620.2542 C 12988.61,4536.2542 13280.61,4427.2542 13463.61,4348.2542 C 13646.61,4269.2542 13719.61,4220.2542 13744.61,4197.2542 C 13769.61,4174.2542 13746.61,4177.2542 13657.61,4205.2542 C 13568.61,4233.2542 13413.61,4285.2542 13212.61,4329.2542 C 13011.61,4373.2542 12765.61,4409.2542 12564.61,4415.2542 C 12362.61,4421.2542 12205.61,4398.2542 12114.61,4336.2542 C 12023.61,4274.2542 11998.61,4174.2542 12024.61,4078.2542 C 12050.61,3983.2542 12128.61,3893.2542 12207.61,3828.2542 C 12286.61,3763.2542 12367.61,3723.2542 12411.61,3688.2542 C 12455.61,3653.2542 12462.61,3623.2542 12454.61,3603.2542 C 12446.61,3584.2542 12422.61,3575.2542 12365.61,3586.2542 C 12309.61,3597.2542 12221.61,3627.2542 12142.61,3644.2542 C 12063.61,3661.2542 11993.61,3664.2542 11932.61,3649.2542 C 11872.61,3634.2542 11821.61,3600.2542 11783.61,3553.2542 C 11745.61,3505.2542 11719.61,3444.2542 11718.61,3381.2542 C 11717.61,3318.2542 11743.61,3254.2542 11771.61,3220.2542 C 11799.61,3185.2542 11831.61,3180.2542 11840.61,3195.2542 C 11849.61,3210.2542 11835.61,3246.2542 11844.61,3284.2542 C 11852.61,3322.2542 11883.61,3363.2542 11946.61,3369.2542 C 12009.61,3375.2542 12106.61,3345.2542 12218.61,3287.2542 C 12331.61,3229.2542 12459.61,3142.2542 12598.61,3125.2542 C 12736.61,3108.2542 12884.61,3162.2542 12971.61,3237.2542 C 13058.61,3312.2542 13086.61,3410.2542 13056.61,3505.2542 C 13026.61,3600.2542 12939.61,3692.2542 12855.61,3773.2542 C 12771.61,3854.2542 12691.61,3924.2542 12660.61,3989.2542 C 12630.61,4053.2542 12650.61,4112.2542 12710.61,4138.2542 C 12771.61,4164.2542 12872.61,4156.2542 13093.61,4102.2542 C 13314.61,4048.2542 13654.61,3946.2542 14158.61,3803.2542 C 14661.61,3660.2542 15328.61,3476.2542 15933.61,3361.2542 C 16538.61,3247.2542 17083.61,3203.2542 17558.61,3236.2542 C 18033.61,3270.2542 18437.61,3381.2542 18717.61,3540.2542 C 18997.61,3699.2542 19152.61,3907.2542 19226.61,4100.2542 C 19300.61,4294.2542 19294.61,4474.2542 19195.61,4639.2542 C 19095.61,4805.2542 18903.61,4955.2542 18657.61,5045.2542 C 18411.61,5135.2542 18111.61,5164.2542 17829.61,5136.2542 C 17547.61,5108.2542 17283.61,5022.2542 17098.61,4938.2542 C 16913.61,4854.2542 16806.61,4772.2542 16728.61,4688.2542 C 16650.61,4603.2542 16602.61,4515.2542 16567.61,4491.2542 C 16531.61,4467.2542 16508.61,4507.2542 16558.61,4609.2542 C 16607.61,4712.2542 16729.61,4877.2542 16934.61,5030.2542 C 17139.61,5183.2542 17428.61,5323.2542 17738.61,5472.2542 C 18048.61,5621.2542 18379.61,5778.2542 18619.61,5999.2542 C 18859.61,6220.2542 19008.61,6505.2542 19064.61,6816.2542 C 19121.61,7127.2542 19085.61,7464.2542 18983.61,7747.2542 C 18881.61,8030.2542 18714.61,8258.2542 18469.61,8490.2542 C 18442.61,8515.2542 18414.61,8541.2542 18386.61,8566.2542 M 18071.61,8816.2542 C 17893.61,8943.2542 17684.61,9074.2542 17434.61,9209.2542 C 16967.61,9461.2542 16355.61,9732.2542 15700.61,9934.2542 C 15045.61,10136.254 14348.61,10270.254 13717.61,10297.254 C 13086.61,10324.254 12523.61,10245.254 12012.61,10124.254 C 11750.61,10062.254 11501.61,9990.2542 11282.61,9907.2542 M 11058.61,9814.2542 C 10942.61,9761.2542 10837.61,9705.2542 10748.61,9645.2542 C 10454.61,9448.2542 10324.61,9216.2542 10251.61,9023.2542 C 10210.61,8914.2542 10186.61,8818.2542 10176.61,8724.2542 M 10172.61,8539.2542 C 10173.61,8528.2542 10173.61,8518.2542 10174.61,8507.2542 C 10175.61,8489.2542 10177.61,8471.2542 10179.61,8453.2542 M 10213.61,8269.2542 C 10239.61,8176.2542 10278.61,8088.2542 10337.61,8013.2542 C 10446.61,7876.2542 10622.61,7788.2542 10754.61,7734.2542 C 10886.61,7681.2542 10974.61,7662.2542 10997.61,7631.2542 C 11020.61,7601.2542 10978.61,7559.2542 10879.61,7537.2542 C 10779.61,7515.2542 10622.61,7513.2542 10500.61,7476.2542 C 10377.61,7439.2542 10289.61,7368.2542 10236.61,7269.2542 C 10183.61,7169.2542 10164.61,7042.2542 10182.61,6948.2542 C 10200.61,6855.2542 10254.61,6796.2542 10287.61,6792.2542 C 10320.61,6788.2542 10333.61,6838.2542 10369.61,6915.2542 C 10405.61,6991.2542 10463.61,7094.2542 10637.61,7148.2542 C 10811.61,7201.2542 11100.61,7206.2542 11338.61,7227.2542 C 11576.61,7248.2542 11762.61,7286.2542 11842.61,7391.2542 C 11922.61,7497.2542 11894.61,7671.2542 11755.61,7789.2542 C 11616.61,7907.2542 11364.61,7970.2542 11144.61,8026.2542 C 10924.61,8082.2542 10735.61,8130.2542 10607.61,8222.2542 C 10568.61,8250.2542 10534.61,8282.2542 10505.61,8318.2542 M 10419.61,8480.2542 C 10414.61,8494.2542 10410.61,8509.2542 10407.61,8524.2542 M 10392.61,8709.2542 C 10399.61,8837.2542 10442.61,8973.2542 10525.61,9098.2542 C 10631.61,9257.2542 10803.61,9400.2542 11027.61,9521.2542 C 11092.61,9556.2542 11161.61,9589.2542 11234.61,9621.2542 M 11449.61,9705.2542 C 11575.61,9750.2542 11710.61,9791.2542 11857.61,9831.2542 C 12186.61,9919.2542 12567.61,9994.2542 12986.61,10021.254 C 13405.61,10047.254 13862.61,10024.254 14303.61,9961.2542 C 14744.61,9898.2542 15169.61,9795.2542 15588.61,9664.2542 C 16007.61,9532.2542 16420.61,9371.2542 16827.61,9184.2542 C 17183.61,9021.2542 17536.61,8839.2542 17811.61,8641.2542 M 18114.61,8383.2542 C 18290.61,8200.2542 18405.61,8001.2542 18473.61,7770.2542 C 18563.61,7464.2542 18571.61,7102.2542 18505.61,6814.2542 C 18439.61,6526.2542 18299.61,6312.2542 17994.61,6074.2542 C 17689.61,5836.2542 17220.61,5574.2542 16906.61,5353.2542 C 16592.61,5132.2542 16433.61,4952.2542 16344.61,4765.2542 C 16255.61,4579.2542 16236.61,4386.2542 16274.61,4218.2542 C 16312.61,4050.2542 16406.61,3908.2542 16512.61,3836.2542 C 16618.61,3764.2542 16735.61,3762.2542 16791.61,3800.2542 C 16847.61,3839.2542 16840.61,3918.2542 16829.61,4026.2542 C 16817.61,4134.2542 16801.61,4270.2542 16859.61,4398.2542 C 16918.61,4526.2542 17052.61,4645.2542 17236.61,4736.2542 C 17420.61,4827.2542 17655.61,4890.2542 17915.61,4903.2542 C 18175.61,4916.2542 18460.61,4878.2542 18642.61,4770.2542 C 18824.61,4662.2542 18904.61,4484.2542 18875.61,4315.2542 C 18846.61,4146.2542 18707.61,3987.2542 18486.61,3851.2542 C 18265.61,3715.2542 17961.61,3602.2542 17631.61,3549.2542 C 17301.61,3497.2542 16945.61,3505.2542 16547.61,3559.2542 C 16149.61,3613.2542 15709.61,3714.2542 15257.61,3848.2542 C 14804.61,3982.2542 14339.61,4150.2542 13964.61,4303.2542 C 13589.61,4456.2542 13304.61,4594.2542 12970.61,4715.2542 C 12636.61,4835.2542 12252.61,4938.2542 11920.61,4984.2542 C 11588.61,5030.2542 11307.61,5020.2542 11108.61,4959.2542 C 10909.61,4898.2542 10792.61,4787.2542 10754.61,4671.2542 C 10716.61,4555.2542 10758.61,4433.2542 10837.61,4322.2542 C 10916.61,4211.2542 11031.61,4110.2542 11090.61,4006.2542 C 11150.61,3901.2542 11154.61,3792.2542 11099.61,3698.2542 C 11045.61,3604.2542 10931.61,3524.2542 10763.61,3484.2542 C 10594.61,3444.2542 10371.61,3444.2542 10147.61,3444.2542"
   id="path3053"
   style="fill:none;stroke:#000000;stroke-width:20" /><path
   d="M 12352.61,8934.2542 C 12834.61,9141.2542 13316.61,9349.2542 13878.61,9558.2542 C 14169.61,9666.2542 14482.61,9776.2542 14802.61,9873.2542 M 15367.61,10030.254 C 15480.61,10058.254 15592.61,10084.254 15704.61,10107.254 C 16325.61,10235.254 16924.61,10279.254 17410.61,10235.254 C 17896.61,10191.254 18269.61,10059.254 18488.61,9890.2542 C 18707.61,9721.2542 18772.61,9516.2542 18745.61,9361.2542 C 18718.61,9206.2542 18598.61,9101.2542 18391.61,8986.2542 C 18184.61,8871.2542 17888.61,8745.2542 17730.61,8565.2542 C 17572.61,8385.2542 17551.61,8150.2542 17619.61,7986.2542 C 17687.61,7822.2542 17844.61,7727.2542 18037.61,7697.2542 C 18177.61,7675.2542 18335.61,7687.2542 18487.61,7714.2542 M 18949.61,7837.2542 C 19021.61,7858.2542 19083.61,7874.2542 19131.61,7876.2542 C 19236.61,7880.2542 19276.61,7819.2542 19278.61,7756.2542 C 19280.61,7692.2542 19244.61,7625.2542 19255.61,7593.2542 C 19265.61,7561.2542 19322.61,7563.2542 19387.61,7602.2542 C 19452.61,7642.2542 19525.61,7719.2542 19563.61,7823.2542 C 19601.61,7927.2542 19603.61,8057.2542 19538.61,8145.2542 C 19473.61,8234.2542 19340.61,8281.2542 19159.61,8218.2542 C 19062.61,8184.2542 18951.61,8118.2542 18839.61,8053.2542 M 18437.61,7879.2542 C 18289.61,7854.2542 18166.61,7891.2542 18092.61,7965.2542 C 17999.61,8056.2542 17979.61,8203.2542 18064.61,8325.2542 C 18148.61,8448.2542 18337.61,8546.2542 18560.61,8651.2542 C 18783.61,8756.2542 19041.61,8867.2542 19208.61,9031.2542 C 19376.61,9195.2542 19453.61,9413.2542 19396.61,9668.2542 C 19338.61,9923.2542 19146.61,10214.254 18762.61,10393.254 C 18379.61,10572.254 17805.61,10639.254 17246.61,10632.254 C 16688.61,10625.254 16145.61,10543.254 15562.61,10392.254 C 15311.61,10327.254 15052.61,10249.254 14794.61,10164.254 M 14242.61,9971.2542 C 14091.61,9915.2542 13943.61,9859.2542 13800.61,9802.2542 C 13246.61,9583.2542 12762.61,9365.2542 12278.61,9147.2542"
   id="path3055"
   style="fill:none;stroke:#000000;stroke-width:20" /><path
   d="M 12352.61,8934.2542 C 12267.61,8897.2542 12182.61,8860.2542 12047.61,8813.2542 C 11912.61,8766.2542 11728.61,8709.2542 11473.61,8652.2542 C 11218.61,8594.2542 10891.61,8536.2542 10579.61,8526.2542 C 10421.61,8521.2542 10266.61,8529.2542 10119.61,8547.2542 M 9894.6102,8582.2542 C 9832.6102,8594.2542 9773.6102,8607.2542 9715.6102,8622.2542 C 9460.6102,8687.2542 9249.6102,8777.2542 9092.6102,8928.2542 C 8935.6102,9079.2542 8832.6102,9290.2542 8855.6102,9497.2542 C 8878.6102,9703.2542 9027.6102,9904.2542 9248.6102,10032.254 C 9469.6102,10160.254 9762.6102,10214.254 10067.61,10222.254 C 10372.61,10229.254 10688.61,10190.254 10936.61,10101.254 C 11184.61,10013.254 11363.61,9876.2542 11456.61,9696.2542 C 11549.61,9516.2542 11557.61,9292.2542 11482.61,9085.2542 C 11450.61,8997.2542 11404.61,8912.2542 11346.61,8833.2542 M 11092.61,8578.2542 C 11081.61,8570.2542 11070.61,8562.2542 11059.61,8555.2542 C 10868.61,8423.2542 10644.61,8350.2542 10449.61,8308.2542 C 10254.61,8266.2542 10089.61,8256.2542 9870.6102,8277.2542 C 9651.6102,8298.2542 9379.6102,8350.2542 9062.6102,8465.2542 C 8746.6102,8580.2542 8385.6102,8757.2542 7964.6102,8950.2542 C 7543.6102,9142.2542 7061.6102,9350.2542 6499.6102,9559.2542 C 6197.6102,9671.2542 5872.6102,9785.2542 5539.6102,9885.2542 M 4964.6102,10042.254 C 4866.6102,10066.254 4769.6102,10088.254 4672.6102,10108.254 C 4051.6102,10236.254 3452.6102,10280.254 2966.6102,10236.254 C 2480.6102,10192.254 2107.6102,10060.254 1888.6102,9891.2542 C 1669.6102,9722.2542 1604.6102,9517.2542 1631.6102,9362.2542 C 1658.6102,9207.2542 1778.6102,9102.2542 1985.6102,8987.2542 C 2192.6102,8872.2542 2488.6102,8746.2542 2646.6102,8566.2542 C 2804.6102,8386.2542 2825.6102,8151.2542 2757.6102,7987.2542 C 2689.6102,7823.2542 2532.6102,7728.2542 2339.6102,7698.2542 C 2174.6102,7672.2542 1983.6102,7693.2542 1807.6102,7731.2542 M 1350.6102,7859.2542 C 1310.6102,7869.2542 1275.6102,7875.2542 1245.6102,7877.2542 C 1140.6102,7881.2542 1100.6102,7820.2542 1098.6102,7757.2542 C 1096.6102,7693.2542 1132.6102,7626.2542 1121.6102,7594.2542 C 1111.6102,7562.2542 1054.6102,7564.2542 989.61017,7603.2542 C 924.61017,7643.2542 851.61017,7720.2542 813.61017,7824.2542 C 775.61017,7928.2542 773.61017,8058.2542 838.61017,8146.2542 C 903.61017,8235.2542 1036.6102,8282.2542 1217.6102,8219.2542 C 1296.6102,8191.2542 1384.6102,8143.2542 1474.6102,8091.2542 M 1860.6102,7899.2542 C 2044.6102,7844.2542 2197.6102,7880.2542 2285.6102,7966.2542 C 2378.6102,8057.2542 2398.6102,8204.2542 2313.6102,8326.2542 C 2229.6102,8449.2542 2040.6102,8547.2542 1817.6102,8652.2542 C 1594.6102,8757.2542 1336.6102,8868.2542 1169.6102,9032.2542 C 1001.6102,9196.2542 924.61017,9414.2542 981.61017,9669.2542 C 1039.6102,9924.2542 1231.6102,10215.254 1615.6102,10394.254 C 1998.6102,10573.254 2572.6102,10640.254 3131.6102,10633.254 C 3689.6102,10626.254 4232.6102,10544.254 4815.6102,10393.254 C 5056.6102,10331.254 5304.6102,10257.254 5551.6102,10176.254 M 6112.6102,9981.2542 C 6270.6102,9923.2542 6426.6102,9863.2542 6576.6102,9804.2542 C 7130.6102,9585.2542 7614.6102,9367.2542 8002.6102,9185.2542 C 8390.6102,9003.2542 8683.6102,8856.2542 8930.6102,8745.2542 C 9178.6102,8634.2542 9381.6102,8560.2542 9576.6102,8513.2542 C 9771.6102,8466.2542 9957.6102,8446.2542 10160.61,8455.2542 C 10307.61,8462.2542 10462.61,8484.2542 10607.61,8528.2542 M 11025.61,8758.2542 C 11092.61,8816.2542 11149.61,8879.2542 11193.61,8941.2542 C 11286.61,9070.2542 11324.61,9194.2542 11317.61,9329.2542 C 11310.61,9464.2542 11259.61,9611.2542 11162.61,9721.2542 C 11065.61,9832.2542 10923.61,9906.2542 10766.61,9956.2542 C 10609.61,10006.254 10437.61,10032.254 10244.61,10040.254 C 10051.61,10047.254 9838.6102,10036.254 9657.6102,9994.2542 C 9476.6102,9952.2542 9329.6102,9880.2542 9222.6102,9775.2542 C 9116.6102,9670.2542 9051.6102,9531.2542 9059.6102,9398.2542 C 9068.6102,9265.2542 9150.6102,9136.2542 9271.6102,9035.2542 C 9392.6102,8934.2542 9551.6102,8861.2542 9727.6102,8810.2542 C 9780.6102,8795.2542 9835.6102,8781.2542 9891.6102,8770.2542 M 10111.61,8734.2542 C 10171.61,8727.2542 10231.61,8721.2542 10292.61,8717.2542 C 10489.61,8704.2542 10691.61,8706.2542 10903.61,8737.2542 C 11114.61,8769.2542 11335.61,8829.2542 11526.61,8886.2542 C 11717.61,8943.2542 11879.61,8995.2542 11998.61,9038.2542 C 12118.61,9081.2542 12196.61,9115.2542 12274.61,9149.2542"
   id="path3057"
   style="fill:none;stroke:#000000;stroke-width:20" /><path
   d="M 31376.61,3202.2542 C 31156.61,3202.2542 30937.61,3202.2542 30718.61,3217.2542 C 30499.61,3232.2542 30281.61,3261.2542 30114.61,3332.2542 C 29946.61,3403.2542 29829.61,3516.2542 29768.61,3636.2542 C 29707.61,3755.2542 29703.61,3881.2542 29766.61,3992.2542 C 29829.61,4103.2542 29959.61,4199.2542 30054.61,4275.2542 C 30149.61,4351.2542 30209.61,4406.2542 30228.61,4477.2542 C 30247.61,4547.2542 30226.61,4632.2542 30131.61,4692.2542 C 30035.61,4752.2542 29864.61,4788.2542 29634.61,4776.2542 C 29404.61,4764.2542 29115.61,4704.2542 28824.61,4620.2542 C 28533.61,4536.2542 28241.61,4427.2542 28058.61,4348.2542 C 27875.61,4269.2542 27802.61,4220.2542 27777.61,4197.2542 C 27752.61,4174.2542 27775.61,4177.2542 27864.61,4205.2542 C 27953.61,4233.2542 28108.61,4285.2542 28309.61,4329.2542 C 28510.61,4373.2542 28756.61,4409.2542 28957.61,4415.2542 C 29159.61,4421.2542 29316.61,4398.2542 29407.61,4336.2542 C 29498.61,4274.2542 29523.61,4174.2542 29497.61,4078.2542 C 29471.61,3983.2542 29393.61,3893.2542 29314.61,3828.2542 C 29235.61,3763.2542 29154.61,3723.2542 29110.61,3688.2542 C 29066.61,3653.2542 29059.61,3623.2542 29067.61,3603.2542 C 29075.61,3584.2542 29099.61,3575.2542 29156.61,3586.2542 C 29212.61,3597.2542 29300.61,3627.2542 29379.61,3644.2542 C 29458.61,3661.2542 29528.61,3664.2542 29588.61,3649.2542 C 29648.61,3634.2542 29699.61,3600.2542 29737.61,3553.2542 C 29775.61,3505.2542 29801.61,3444.2542 29802.61,3381.2542 C 29803.61,3318.2542 29777.61,3254.2542 29749.61,3220.2542 C 29721.61,3185.2542 29689.61,3180.2542 29680.61,3195.2542 C 29671.61,3210.2542 29685.61,3246.2542 29676.61,3284.2542 C 29668.61,3322.2542 29637.61,3363.2542 29574.61,3369.2542 C 29511.61,3375.2542 29414.61,3345.2542 29302.61,3287.2542 C 29189.61,3229.2542 29061.61,3142.2542 28922.61,3125.2542 C 28784.61,3108.2542 28636.61,3162.2542 28549.61,3237.2542 C 28462.61,3312.2542 28434.61,3410.2542 28464.61,3505.2542 C 28494.61,3600.2542 28581.61,3692.2542 28665.61,3773.2542 C 28749.61,3854.2542 28829.61,3924.2542 28860.61,3989.2542 C 28890.61,4053.2542 28870.61,4112.2542 28810.61,4138.2542 C 28749.61,4164.2542 28648.61,4156.2542 28427.61,4102.2542 C 28206.61,4048.2542 27866.61,3946.2542 27362.61,3803.2542 C 26859.61,3660.2542 26192.61,3476.2542 25587.61,3361.2542 C 24982.61,3247.2542 24437.61,3203.2542 23962.61,3236.2542 C 23487.61,3270.2542 23083.61,3381.2542 22803.61,3540.2542 C 22523.61,3699.2542 22368.61,3907.2542 22294.61,4100.2542 C 22220.61,4294.2542 22226.61,4474.2542 22325.61,4639.2542 C 22425.61,4805.2542 22617.61,4955.2542 22863.61,5045.2542 C 23109.61,5135.2542 23409.61,5164.2542 23691.61,5136.2542 C 23973.61,5108.2542 24237.61,5022.2542 24422.61,4938.2542 C 24607.61,4854.2542 24714.61,4772.2542 24792.61,4688.2542 C 24870.61,4603.2542 24918.61,4515.2542 24953.61,4491.2542 C 24989.61,4467.2542 25012.61,4507.2542 24962.61,4609.2542 C 24913.61,4712.2542 24791.61,4877.2542 24586.61,5030.2542 C 24381.61,5183.2542 24092.61,5323.2542 23782.61,5472.2542 C 23472.61,5621.2542 23141.61,5778.2542 22901.61,5999.2542 C 22661.61,6220.2542 22512.61,6505.2542 22456.61,6816.2542 C 22399.61,7127.2542 22435.61,7464.2542 22537.61,7747.2542 C 22639.61,8030.2542 22806.61,8258.2542 23051.61,8490.2542 C 23088.61,8525.2542 23126.61,8559.2542 23166.61,8594.2542 M 23486.61,8842.2542 C 23655.61,8961.2542 23852.61,9082.2542 24085.61,9208.2542 C 24552.61,9460.2542 25164.61,9731.2542 25819.61,9933.2542 C 26474.61,10135.254 27171.61,10269.254 27802.61,10296.254 C 28433.61,10323.254 28996.61,10244.254 29507.61,10123.254 C 29790.61,10056.254 30057.61,9977.2542 30289.61,9886.2542 M 30487.61,9801.2542 C 30593.61,9751.2542 30689.61,9699.2542 30771.61,9644.2542 C 31065.61,9447.2542 31195.61,9215.2542 31268.61,9022.2542 C 31341.61,8829.2542 31358.61,8676.2542 31345.61,8507.2542 C 31344.61,8488.2542 31342.61,8469.2542 31340.61,8450.2542 M 31304.61,8263.2542 C 31278.61,8172.2542 31240.61,8086.2542 31182.61,8013.2542 C 31073.61,7876.2542 30897.61,7788.2542 30765.61,7734.2542 C 30633.61,7681.2542 30545.61,7662.2542 30522.61,7631.2542 C 30499.61,7601.2542 30541.61,7559.2542 30640.61,7537.2542 C 30740.61,7515.2542 30897.61,7513.2542 31019.61,7476.2542 C 31142.61,7439.2542 31230.61,7368.2542 31283.61,7269.2542 C 31336.61,7169.2542 31355.61,7042.2542 31337.61,6948.2542 C 31319.61,6855.2542 31265.61,6796.2542 31232.61,6792.2542 C 31199.61,6788.2542 31186.61,6838.2542 31150.61,6915.2542 C 31114.61,6991.2542 31056.61,7094.2542 30882.61,7148.2542 C 30708.61,7201.2542 30419.61,7206.2542 30181.61,7227.2542 C 29943.61,7248.2542 29757.61,7286.2542 29677.61,7391.2542 C 29597.61,7497.2542 29625.61,7671.2542 29764.61,7789.2542 C 29903.61,7907.2542 30155.61,7970.2542 30375.61,8026.2542 C 30595.61,8082.2542 30784.61,8130.2542 30912.61,8222.2542 C 30939.61,8242.2542 30964.61,8263.2542 30986.61,8287.2542 M 31092.61,8460.2542 C 31109.61,8506.2542 31119.61,8555.2542 31124.61,8606.2542 C 31139.61,8762.2542 31099.61,8938.2542 30993.61,9097.2542 C 30887.61,9256.2542 30715.61,9399.2542 30491.61,9520.2542 C 30440.61,9548.2542 30387.61,9574.2542 30330.61,9600.2542 M 30136.61,9680.2542 C 29992.61,9734.2542 29834.61,9784.2542 29661.61,9830.2542 C 29332.61,9918.2542 28951.61,9993.2542 28532.61,10020.254 C 28113.61,10046.254 27656.61,10023.254 27215.61,9960.2542 C 26774.61,9897.2542 26349.61,9794.2542 25930.61,9663.2542 C 25511.61,9531.2542 25098.61,9370.2542 24691.61,9183.2542 C 24354.61,9029.2542 24021.61,8858.2542 23753.61,8673.2542 M 23445.61,8423.2542 C 23246.61,8229.2542 23118.61,8018.2542 23045.61,7769.2542 C 22955.61,7463.2542 22947.61,7101.2542 23013.61,6813.2542 C 23079.61,6525.2542 23219.61,6311.2542 23524.61,6073.2542 C 23829.61,5835.2542 24298.61,5573.2542 24612.61,5352.2542 C 24926.61,5131.2542 25085.61,4951.2542 25174.61,4764.2542 C 25263.61,4578.2542 25282.61,4385.2542 25244.61,4217.2542 C 25206.61,4049.2542 25112.61,3907.2542 25006.61,3835.2542 C 24900.61,3763.2542 24783.61,3761.2542 24727.61,3799.2542 C 24671.61,3838.2542 24678.61,3917.2542 24689.61,4025.2542 C 24701.61,4133.2542 24717.61,4269.2542 24659.61,4397.2542 C 24600.61,4525.2542 24466.61,4644.2542 24282.61,4735.2542 C 24098.61,4826.2542 23863.61,4889.2542 23603.61,4902.2542 C 23343.61,4915.2542 23058.61,4877.2542 22876.61,4769.2542 C 22694.61,4661.2542 22614.61,4483.2542 22643.61,4314.2542 C 22672.61,4145.2542 22811.61,3986.2542 23032.61,3850.2542 C 23253.61,3714.2542 23557.61,3601.2542 23887.61,3548.2542 C 24217.61,3496.2542 24573.61,3504.2542 24971.61,3558.2542 C 25369.61,3612.2542 25809.61,3713.2542 26261.61,3847.2542 C 26714.61,3981.2542 27179.61,4149.2542 27554.61,4302.2542 C 27929.61,4455.2542 28214.61,4593.2542 28548.61,4714.2542 C 28882.61,4834.2542 29266.61,4937.2542 29598.61,4983.2542 C 29930.61,5029.2542 30211.61,5019.2542 30410.61,4958.2542 C 30609.61,4897.2542 30726.61,4786.2542 30764.61,4670.2542 C 30802.61,4554.2542 30760.61,4432.2542 30681.61,4321.2542 C 30602.61,4210.2542 30487.61,4109.2542 30428.61,4005.2542 C 30368.61,3900.2542 30364.61,3791.2542 30419.61,3697.2542 C 30473.61,3603.2542 30587.61,3523.2542 30755.61,3483.2542 C 30924.61,3443.2542 31147.61,3443.2542 31371.61,3443.2542"
   id="path3059"
   style="fill:none;stroke:#000000;stroke-width:10" /><path
   d="M 31376.61,3202.2542 C 31596.61,3202.2542 31816.61,3202.2542 32034.61,3217.2542 C 32253.61,3232.2542 32471.61,3261.2542 32638.61,3332.2542 C 32806.61,3403.2542 32923.61,3516.2542 32984.61,3636.2542 C 33045.61,3755.2542 33049.61,3881.2542 32986.61,3992.2542 C 32923.61,4103.2542 32793.61,4199.2542 32698.61,4275.2542 C 32603.61,4351.2542 32543.61,4406.2542 32524.61,4477.2542 C 32505.61,4547.2542 32526.61,4632.2542 32621.61,4692.2542 C 32717.61,4752.2542 32888.61,4788.2542 33118.61,4776.2542 C 33348.61,4764.2542 33637.61,4704.2542 33928.61,4620.2542 C 34219.61,4536.2542 34511.61,4427.2542 34694.61,4348.2542 C 34877.61,4269.2542 34950.61,4220.2542 34975.61,4197.2542 C 35000.61,4174.2542 34977.61,4177.2542 34888.61,4205.2542 C 34799.61,4233.2542 34644.61,4285.2542 34443.61,4329.2542 C 34242.61,4373.2542 33996.61,4409.2542 33795.61,4415.2542 C 33593.61,4421.2542 33436.61,4398.2542 33345.61,4336.2542 C 33254.61,4274.2542 33229.61,4174.2542 33255.61,4078.2542 C 33281.61,3983.2542 33359.61,3893.2542 33438.61,3828.2542 C 33517.61,3763.2542 33598.61,3723.2542 33642.61,3688.2542 C 33686.61,3653.2542 33693.61,3623.2542 33685.61,3603.2542 C 33677.61,3584.2542 33653.61,3575.2542 33596.61,3586.2542 C 33540.61,3597.2542 33452.61,3627.2542 33373.61,3644.2542 C 33294.61,3661.2542 33224.61,3664.2542 33163.61,3649.2542 C 33103.61,3634.2542 33052.61,3600.2542 33014.61,3553.2542 C 32976.61,3505.2542 32950.61,3444.2542 32949.61,3381.2542 C 32948.61,3318.2542 32974.61,3254.2542 33002.61,3220.2542 C 33030.61,3185.2542 33062.61,3180.2542 33071.61,3195.2542 C 33080.61,3210.2542 33066.61,3246.2542 33075.61,3284.2542 C 33083.61,3322.2542 33114.61,3363.2542 33177.61,3369.2542 C 33240.61,3375.2542 33337.61,3345.2542 33449.61,3287.2542 C 33562.61,3229.2542 33690.61,3142.2542 33829.61,3125.2542 C 33967.61,3108.2542 34115.61,3162.2542 34202.61,3237.2542 C 34289.61,3312.2542 34317.61,3410.2542 34287.61,3505.2542 C 34257.61,3600.2542 34170.61,3692.2542 34086.61,3773.2542 C 34002.61,3854.2542 33922.61,3924.2542 33891.61,3989.2542 C 33861.61,4053.2542 33881.61,4112.2542 33941.61,4138.2542 C 34002.61,4164.2542 34103.61,4156.2542 34324.61,4102.2542 C 34545.61,4048.2542 34885.61,3946.2542 35389.61,3803.2542 C 35892.61,3660.2542 36559.61,3476.2542 37164.61,3361.2542 C 37769.61,3247.2542 38314.61,3203.2542 38789.61,3236.2542 C 39264.61,3270.2542 39668.61,3381.2542 39948.61,3540.2542 C 40228.61,3699.2542 40383.61,3907.2542 40457.61,4100.2542 C 40531.61,4294.2542 40525.61,4474.2542 40426.61,4639.2542 C 40326.61,4805.2542 40134.61,4955.2542 39888.61,5045.2542 C 39642.61,5135.2542 39342.61,5164.2542 39060.61,5136.2542 C 38778.61,5108.2542 38514.61,5022.2542 38329.61,4938.2542 C 38144.61,4854.2542 38037.61,4772.2542 37959.61,4688.2542 C 37881.61,4603.2542 37833.61,4515.2542 37798.61,4491.2542 C 37762.61,4467.2542 37739.61,4507.2542 37789.61,4609.2542 C 37838.61,4712.2542 37960.61,4877.2542 38165.61,5030.2542 C 38370.61,5183.2542 38659.61,5323.2542 38969.61,5472.2542 C 39279.61,5621.2542 39610.61,5778.2542 39850.61,5999.2542 C 40090.61,6220.2542 40239.61,6505.2542 40295.61,6816.2542 C 40352.61,7127.2542 40316.61,7464.2542 40214.61,7747.2542 C 40112.61,8030.2542 39945.61,8258.2542 39700.61,8490.2542 C 39673.61,8515.2542 39645.61,8541.2542 39617.61,8566.2542 M 39302.61,8816.2542 C 39124.61,8943.2542 38915.61,9074.2542 38665.61,9209.2542 C 38198.61,9461.2542 37586.61,9732.2542 36931.61,9934.2542 C 36276.61,10136.254 35579.61,10270.254 34948.61,10297.254 C 34317.61,10324.254 33754.61,10245.254 33243.61,10124.254 C 32981.61,10062.254 32732.61,9990.2542 32513.61,9907.2542 M 32289.61,9814.2542 C 32173.61,9761.2542 32068.61,9705.2542 31979.61,9645.2542 C 31685.61,9448.2542 31555.61,9216.2542 31482.61,9023.2542 C 31441.61,8914.2542 31417.61,8818.2542 31407.61,8724.2542 M 31403.61,8539.2542 C 31404.61,8528.2542 31404.61,8518.2542 31405.61,8507.2542 C 31406.61,8489.2542 31408.61,8471.2542 31410.61,8453.2542 M 31444.61,8269.2542 C 31470.61,8176.2542 31509.61,8088.2542 31568.61,8013.2542 C 31677.61,7876.2542 31853.61,7788.2542 31985.61,7734.2542 C 32117.61,7681.2542 32205.61,7662.2542 32228.61,7631.2542 C 32251.61,7601.2542 32209.61,7559.2542 32110.61,7537.2542 C 32010.61,7515.2542 31853.61,7513.2542 31731.61,7476.2542 C 31608.61,7439.2542 31520.61,7368.2542 31467.61,7269.2542 C 31414.61,7169.2542 31395.61,7042.2542 31413.61,6948.2542 C 31431.61,6855.2542 31485.61,6796.2542 31518.61,6792.2542 C 31551.61,6788.2542 31564.61,6838.2542 31600.61,6915.2542 C 31636.61,6991.2542 31694.61,7094.2542 31868.61,7148.2542 C 32042.61,7201.2542 32331.61,7206.2542 32569.61,7227.2542 C 32807.61,7248.2542 32993.61,7286.2542 33073.61,7391.2542 C 33153.61,7497.2542 33125.61,7671.2542 32986.61,7789.2542 C 32847.61,7907.2542 32595.61,7970.2542 32375.61,8026.2542 C 32155.61,8082.2542 31966.61,8130.2542 31838.61,8222.2542 C 31799.61,8250.2542 31765.61,8282.2542 31736.61,8318.2542 M 31650.61,8480.2542 C 31645.61,8494.2542 31641.61,8509.2542 31638.61,8524.2542 M 31623.61,8709.2542 C 31630.61,8837.2542 31673.61,8973.2542 31756.61,9098.2542 C 31862.61,9257.2542 32034.61,9400.2542 32258.61,9521.2542 C 32323.61,9556.2542 32392.61,9589.2542 32465.61,9621.2542 M 32680.61,9705.2542 C 32806.61,9750.2542 32941.61,9791.2542 33088.61,9831.2542 C 33417.61,9919.2542 33798.61,9994.2542 34217.61,10021.254 C 34636.61,10047.254 35093.61,10024.254 35534.61,9961.2542 C 35975.61,9898.2542 36400.61,9795.2542 36819.61,9664.2542 C 37238.61,9532.2542 37651.61,9371.2542 38058.61,9184.2542 C 38414.61,9021.2542 38767.61,8839.2542 39042.61,8641.2542 M 39345.61,8383.2542 C 39521.61,8200.2542 39636.61,8001.2542 39704.61,7770.2542 C 39794.61,7464.2542 39802.61,7102.2542 39736.61,6814.2542 C 39670.61,6526.2542 39530.61,6312.2542 39225.61,6074.2542 C 38920.61,5836.2542 38451.61,5574.2542 38137.61,5353.2542 C 37823.61,5132.2542 37664.61,4952.2542 37575.61,4765.2542 C 37486.61,4579.2542 37467.61,4386.2542 37505.61,4218.2542 C 37543.61,4050.2542 37637.61,3908.2542 37743.61,3836.2542 C 37849.61,3764.2542 37966.61,3762.2542 38022.61,3800.2542 C 38078.61,3839.2542 38071.61,3918.2542 38060.61,4026.2542 C 38048.61,4134.2542 38032.61,4270.2542 38090.61,4398.2542 C 38149.61,4526.2542 38283.61,4645.2542 38467.61,4736.2542 C 38651.61,4827.2542 38886.61,4890.2542 39146.61,4903.2542 C 39406.61,4916.2542 39691.61,4878.2542 39873.61,4770.2542 C 40055.61,4662.2542 40135.61,4484.2542 40106.61,4315.2542 C 40077.61,4146.2542 39938.61,3987.2542 39717.61,3851.2542 C 39496.61,3715.2542 39192.61,3602.2542 38862.61,3549.2542 C 38532.61,3497.2542 38176.61,3505.2542 37778.61,3559.2542 C 37380.61,3613.2542 36940.61,3714.2542 36488.61,3848.2542 C 36035.61,3982.2542 35570.61,4150.2542 35195.61,4303.2542 C 34820.61,4456.2542 34535.61,4594.2542 34201.61,4715.2542 C 33867.61,4835.2542 33483.61,4938.2542 33151.61,4984.2542 C 32819.61,5030.2542 32538.61,5020.2542 32339.61,4959.2542 C 32140.61,4898.2542 32023.61,4787.2542 31985.61,4671.2542 C 31947.61,4555.2542 31989.61,4433.2542 32068.61,4322.2542 C 32147.61,4211.2542 32262.61,4110.2542 32321.61,4006.2542 C 32381.61,3901.2542 32385.61,3792.2542 32330.61,3698.2542 C 32276.61,3604.2542 32162.61,3524.2542 31994.61,3484.2542 C 31825.61,3444.2542 31602.61,3444.2542 31378.61,3444.2542"
   id="path3061"
   style="fill:none;stroke:#000000;stroke-width:10" /><path
   d="M 33583.61,8934.2542 C 34065.61,9141.2542 34547.61,9349.2542 35109.61,9558.2542 C 35400.61,9666.2542 35713.61,9776.2542 36033.61,9873.2542 M 36598.61,10030.254 C 36711.61,10058.254 36823.61,10084.254 36935.61,10107.254 C 37556.61,10235.254 38155.61,10279.254 38641.61,10235.254 C 39127.61,10191.254 39500.61,10059.254 39719.61,9890.2542 C 39938.61,9721.2542 40003.61,9516.2542 39976.61,9361.2542 C 39949.61,9206.2542 39829.61,9101.2542 39622.61,8986.2542 C 39415.61,8871.2542 39119.61,8745.2542 38961.61,8565.2542 C 38803.61,8385.2542 38782.61,8150.2542 38850.61,7986.2542 C 38918.61,7822.2542 39075.61,7727.2542 39268.61,7697.2542 C 39408.61,7675.2542 39566.61,7687.2542 39718.61,7714.2542 M 40180.61,7837.2542 C 40252.61,7858.2542 40314.61,7874.2542 40362.61,7876.2542 C 40467.61,7880.2542 40507.61,7819.2542 40509.61,7756.2542 C 40511.61,7692.2542 40475.61,7625.2542 40486.61,7593.2542 C 40496.61,7561.2542 40553.61,7563.2542 40618.61,7602.2542 C 40683.61,7642.2542 40756.61,7719.2542 40794.61,7823.2542 C 40832.61,7927.2542 40834.61,8057.2542 40769.61,8145.2542 C 40704.61,8234.2542 40571.61,8281.2542 40390.61,8218.2542 C 40293.61,8184.2542 40182.61,8118.2542 40070.61,8053.2542 M 39668.61,7879.2542 C 39520.61,7854.2542 39397.61,7891.2542 39323.61,7965.2542 C 39230.61,8056.2542 39210.61,8203.2542 39295.61,8325.2542 C 39379.61,8448.2542 39568.61,8546.2542 39791.61,8651.2542 C 40014.61,8756.2542 40272.61,8867.2542 40439.61,9031.2542 C 40607.61,9195.2542 40684.61,9413.2542 40627.61,9668.2542 C 40569.61,9923.2542 40377.61,10214.254 39993.61,10393.254 C 39610.61,10572.254 39036.61,10639.254 38477.61,10632.254 C 37919.61,10625.254 37376.61,10543.254 36793.61,10392.254 C 36542.61,10327.254 36283.61,10249.254 36025.61,10164.254 M 35473.61,9971.2542 C 35322.61,9915.2542 35174.61,9859.2542 35031.61,9802.2542 C 34477.61,9583.2542 33993.61,9365.2542 33509.61,9147.2542"
   id="path3063"
   style="fill:none;stroke:#000000;stroke-width:10" /><path
   d="M 33583.61,8934.2542 C 33498.61,8897.2542 33413.61,8860.2542 33278.61,8813.2542 C 33143.61,8766.2542 32959.61,8709.2542 32704.61,8652.2542 C 32449.61,8594.2542 32122.61,8536.2542 31810.61,8526.2542 C 31652.61,8521.2542 31497.61,8529.2542 31350.61,8547.2542 M 31125.61,8582.2542 C 31063.61,8594.2542 31004.61,8607.2542 30946.61,8622.2542 C 30691.61,8687.2542 30480.61,8777.2542 30323.61,8928.2542 C 30166.61,9079.2542 30063.61,9290.2542 30086.61,9497.2542 C 30109.61,9703.2542 30258.61,9904.2542 30479.61,10032.254 C 30700.61,10160.254 30993.61,10214.254 31298.61,10222.254 C 31603.61,10229.254 31919.61,10190.254 32167.61,10101.254 C 32415.61,10013.254 32594.61,9876.2542 32687.61,9696.2542 C 32780.61,9516.2542 32788.61,9292.2542 32713.61,9085.2542 C 32681.61,8997.2542 32635.61,8912.2542 32577.61,8833.2542 M 32323.61,8578.2542 C 32312.61,8570.2542 32301.61,8562.2542 32290.61,8555.2542 C 32099.61,8423.2542 31875.61,8350.2542 31680.61,8308.2542 C 31485.61,8266.2542 31320.61,8256.2542 31101.61,8277.2542 C 30882.61,8298.2542 30610.61,8350.2542 30293.61,8465.2542 C 29977.61,8580.2542 29616.61,8757.2542 29195.61,8950.2542 C 28774.61,9142.2542 28292.61,9350.2542 27730.61,9559.2542 C 27428.61,9671.2542 27103.61,9785.2542 26770.61,9885.2542 M 26195.61,10042.254 C 26097.61,10066.254 26000.61,10088.254 25903.61,10108.254 C 25282.61,10236.254 24683.61,10280.254 24197.61,10236.254 C 23711.61,10192.254 23338.61,10060.254 23119.61,9891.2542 C 22900.61,9722.2542 22835.61,9517.2542 22862.61,9362.2542 C 22889.61,9207.2542 23009.61,9102.2542 23216.61,8987.2542 C 23423.61,8872.2542 23719.61,8746.2542 23877.61,8566.2542 C 24035.61,8386.2542 24056.61,8151.2542 23988.61,7987.2542 C 23920.61,7823.2542 23763.61,7728.2542 23570.61,7698.2542 C 23405.61,7672.2542 23214.61,7693.2542 23038.61,7731.2542 M 22581.61,7859.2542 C 22541.61,7869.2542 22506.61,7875.2542 22476.61,7877.2542 C 22371.61,7881.2542 22331.61,7820.2542 22329.61,7757.2542 C 22327.61,7693.2542 22363.61,7626.2542 22352.61,7594.2542 C 22342.61,7562.2542 22285.61,7564.2542 22220.61,7603.2542 C 22155.61,7643.2542 22082.61,7720.2542 22044.61,7824.2542 C 22006.61,7928.2542 22004.61,8058.2542 22069.61,8146.2542 C 22134.61,8235.2542 22267.61,8282.2542 22448.61,8219.2542 C 22527.61,8191.2542 22615.61,8143.2542 22705.61,8091.2542 M 23091.61,7899.2542 C 23275.61,7844.2542 23428.61,7880.2542 23516.61,7966.2542 C 23609.61,8057.2542 23629.61,8204.2542 23544.61,8326.2542 C 23460.61,8449.2542 23271.61,8547.2542 23048.61,8652.2542 C 22825.61,8757.2542 22567.61,8868.2542 22400.61,9032.2542 C 22232.61,9196.2542 22155.61,9414.2542 22212.61,9669.2542 C 22270.61,9924.2542 22462.61,10215.254 22846.61,10394.254 C 23229.61,10573.254 23803.61,10640.254 24362.61,10633.254 C 24920.61,10626.254 25463.61,10544.254 26046.61,10393.254 C 26287.61,10331.254 26535.61,10257.254 26782.61,10176.254 M 27343.61,9981.2542 C 27501.61,9923.2542 27657.61,9863.2542 27807.61,9804.2542 C 28361.61,9585.2542 28845.61,9367.2542 29233.61,9185.2542 C 29621.61,9003.2542 29914.61,8856.2542 30161.61,8745.2542 C 30409.61,8634.2542 30612.61,8560.2542 30807.61,8513.2542 C 31002.61,8466.2542 31188.61,8446.2542 31391.61,8455.2542 C 31538.61,8462.2542 31693.61,8484.2542 31838.61,8528.2542 M 32256.61,8758.2542 C 32323.61,8816.2542 32380.61,8879.2542 32424.61,8941.2542 C 32517.61,9070.2542 32555.61,9194.2542 32548.61,9329.2542 C 32541.61,9464.2542 32490.61,9611.2542 32393.61,9721.2542 C 32296.61,9832.2542 32154.61,9906.2542 31997.61,9956.2542 C 31840.61,10006.254 31668.61,10032.254 31475.61,10040.254 C 31282.61,10047.254 31069.61,10036.254 30888.61,9994.2542 C 30707.61,9952.2542 30560.61,9880.2542 30453.61,9775.2542 C 30347.61,9670.2542 30282.61,9531.2542 30290.61,9398.2542 C 30299.61,9265.2542 30381.61,9136.2542 30502.61,9035.2542 C 30623.61,8934.2542 30782.61,8861.2542 30958.61,8810.2542 C 31011.61,8795.2542 31066.61,8781.2542 31122.61,8770.2542 M 31342.61,8734.2542 C 31402.61,8727.2542 31462.61,8721.2542 31523.61,8717.2542 C 31720.61,8704.2542 31922.61,8706.2542 32134.61,8737.2542 C 32345.61,8769.2542 32566.61,8829.2542 32757.61,8886.2542 C 32948.61,8943.2542 33110.61,8995.2542 33229.61,9038.2542 C 33349.61,9081.2542 33427.61,9115.2542 33505.61,9149.2542"
   id="path3065"
   style="fill:none;stroke:#000000;stroke-width:10" /><path
   d="M 1786.6102,6815.2542 C 1852.6102,6527.2542 1992.6102,6313.2542 2297.6102,6075.2542 C 2602.6102,5837.2542 3071.6102,5575.2542 3385.6102,5354.2542 C 3699.6102,5133.2542 3858.6102,4953.2542 3947.6102,4766.2542 C 4036.6102,4580.2542 4055.6102,4387.2542 4017.6102,4219.2542 C 3979.6102,4051.2542 3885.6102,3909.2542 3779.6102,3837.2542 C 3673.6102,3765.2542 3556.6102,3763.2542 3500.6102,3801.2542 C 3444.6102,3840.2542 3451.6102,3919.2542 3462.6102,4027.2542 C 3474.6102,4135.2542 3490.6102,4271.2542 3432.6102,4399.2542 C 3373.6102,4527.2542 3239.6102,4646.2542 3055.6102,4737.2542 C 2871.6102,4828.2542 2636.6102,4891.2542 2376.6102,4904.2542 C 2116.6102,4917.2542 1831.6102,4879.2542 1649.6102,4771.2542 C 1467.6102,4663.2542 1387.6102,4485.2542 1416.6102,4316.2542 C 1445.6102,4147.2542 1584.6102,3988.2542 1805.6102,3852.2542 C 2026.6102,3716.2542 2330.6102,3603.2542 2660.6102,3550.2542 C 2990.6102,3498.2542 3346.6102,3506.2542 3744.6102,3560.2542 C 4142.6102,3614.2542 4582.6102,3715.2542 5034.6102,3849.2542 C 5487.6102,3983.2542 5952.6102,4151.2542 6327.6102,4304.2542 C 6702.6102,4457.2542 6987.6102,4595.2542 7321.6102,4716.2542 C 7655.6102,4836.2542 8039.6102,4939.2542 8371.6102,4985.2542 C 8703.6102,5031.2542 8984.6102,5021.2542 9183.6102,4960.2542 C 9382.6102,4899.2542 9499.6102,4788.2542 9537.6102,4672.2542 C 9575.6102,4556.2542 9533.6102,4434.2542 9454.6102,4323.2542 C 9375.6102,4212.2542 9260.6102,4111.2542 9201.6102,4007.2542 C 9141.6102,3902.2542 9137.6102,3793.2542 9192.6102,3699.2542 C 9246.6102,3605.2542 9360.6102,3525.2542 9528.6102,3485.2542 C 9697.6102,3445.2542 9920.6102,3445.2542 10144.61,3445.2542 C 10368.61,3445.2542 10592.61,3445.2542 10760.61,3485.2542 C 10929.61,3525.2542 11042.61,3604.2542 11096.61,3699.2542 C 11150.61,3793.2542 11146.61,3902.2542 11087.61,4007.2542 C 11027.61,4112.2542 10912.61,4212.2542 10834.61,4323.2542 C 10755.61,4434.2542 10714.61,4556.2542 10751.61,4672.2542 C 10789.61,4788.2542 10906.61,4899.2542 11105.61,4960.2542 C 11304.61,5021.2542 11585.61,5031.2542 11917.61,4985.2542 C 12249.61,4939.2542 12632.61,4836.2542 12967.61,4716.2542 C 13301.61,4596.2542 13586.61,4457.2542 13961.61,4304.2542 C 14336.61,4151.2542 14801.61,3983.2542 15254.61,3849.2542 C 15706.61,3715.2542 16146.61,3614.2542 16544.61,3560.2542 C 16942.61,3506.2542 17298.61,3497.2542 17628.61,3550.2542 C 17958.61,3602.2542 18262.61,3716.2542 18483.61,3852.2542 C 18704.61,3988.2542 18842.61,4147.2542 18872.61,4316.2542 C 18901.61,4485.2542 18822.61,4663.2542 18639.61,4771.2542 C 18457.61,4879.2542 18172.61,4917.2542 17912.61,4904.2542 C 17652.61,4891.2542 17418.61,4829.2542 17233.61,4737.2542 C 17049.61,4646.2542 16915.61,4526.2542 16856.61,4399.2542 C 16797.61,4271.2542 16814.61,4135.2542 16826.61,4027.2542 C 16838.61,3919.2542 16844.61,3839.2542 16788.61,3801.2542 C 16732.61,3762.2542 16615.61,3764.2542 16509.61,3837.2542 C 16403.61,3909.2542 16309.61,4052.2542 16271.61,4219.2542 C 16233.61,4387.2542 16252.61,4579.2542 16341.61,4766.2542 C 16430.61,4952.2542 16589.61,5133.2542 16903.61,5354.2542 C 17217.61,5575.2542 17687.61,5837.2542 17991.61,6075.2542 C 18296.61,6313.2542 18436.61,6526.2542 18502.61,6815.2542 C 18564.61,7085.2542 18560.61,7421.2542 18485.61,7714.2542 C 18480.61,7733.2542 18475.61,7752.2542 18469.61,7771.2542 C 18458.61,7808.2542 18446.61,7844.2542 18433.61,7879.2542 C 18363.61,8065.2542 18258.61,8231.2542 18110.61,8385.2542 C 18176.61,8450.2542 18271.61,8509.2542 18384.61,8567.2542 C 18413.61,8542.2542 18441.61,8516.2542 18467.61,8491.2542 C 18618.61,8348.2542 18740.61,8207.2542 18835.61,8053.2542 C 18878.61,7984.2542 18915.61,7912.2542 18947.61,7837.2542 C 18959.61,7808.2542 18971.61,7778.2542 18982.61,7748.2542 C 19084.61,7465.2542 19119.61,7128.2542 19063.61,6817.2542 C 19006.61,6506.2542 18858.61,6221.2542 18618.61,6000.2542 C 18378.61,5779.2542 18047.61,5622.2542 17737.61,5473.2542 C 17427.61,5324.2542 17138.61,5184.2542 16933.61,5031.2542 C 16728.61,4878.2542 16606.61,4713.2542 16557.61,4610.2542 C 16508.61,4507.2542 16531.61,4468.2542 16566.61,4492.2542 C 16602.61,4516.2542 16650.61,4604.2542 16727.61,4689.2542 C 16805.61,4774.2542 16911.61,4856.2542 17097.61,4939.2542 C 17282.61,5023.2542 17546.61,5109.2542 17828.61,5137.2542 C 18110.61,5165.2542 18409.61,5136.2542 18656.61,5046.2542 C 18902.61,4956.2542 19095.61,4805.2542 19194.61,4640.2542 C 19294.61,4475.2542 19300.61,4294.2542 19225.61,4101.2542 C 19151.61,3907.2542 18996.61,3700.2542 18716.61,3541.2542 C 18436.61,3382.2542 18032.61,3271.2542 17557.61,3237.2542 C 17082.61,3203.2542 16538.61,3247.2542 15932.61,3362.2542 C 15327.61,3476.2542 14660.61,3661.2542 14157.61,3804.2542 C 13654.61,3947.2542 13313.61,4049.2542 13092.61,4103.2542 C 12871.61,4157.2542 12769.61,4165.2542 12709.61,4139.2542 C 12648.61,4113.2542 12628.61,4055.2542 12659.61,3990.2542 C 12689.61,3926.2542 12770.61,3855.2542 12854.61,3774.2542 C 12938.61,3693.2542 13025.61,3601.2542 13055.61,3506.2542 C 13085.61,3411.2542 13058.61,3314.2542 12970.61,3238.2542 C 12883.61,3163.2542 12735.61,3109.2542 12597.61,3126.2542 C 12459.61,3143.2542 12330.61,3230.2542 12217.61,3288.2542 C 12104.61,3346.2542 12008.61,3375.2542 11945.61,3370.2542 C 11882.61,3364.2542 11851.61,3323.2542 11843.61,3285.2542 C 11835.61,3247.2542 11848.61,3211.2542 11839.61,3196.2542 C 11830.61,3181.2542 11799.61,3186.2542 11770.61,3221.2542 C 11742.61,3256.2542 11717.61,3319.2542 11717.61,3382.2542 C 11718.61,3445.2542 11744.61,3507.2542 11782.61,3554.2542 C 11820.61,3602.2542 11871.61,3635.2542 11931.61,3650.2542 C 11991.61,3665.2542 12061.61,3662.2542 12141.61,3645.2542 C 12220.61,3628.2542 12308.61,3598.2542 12364.61,3587.2542 C 12420.61,3576.2542 12444.61,3584.2542 12453.61,3604.2542 C 12461.61,3623.2542 12454.61,3654.2542 12410.61,3689.2542 C 12366.61,3724.2542 12285.61,3764.2542 12206.61,3829.2542 C 12127.61,3894.2542 12049.61,3984.2542 12023.61,4079.2542 C 11997.61,4174.2542 12022.61,4275.2542 12113.61,4337.2542 C 12204.61,4399.2542 12361.61,4422.2542 12563.61,4416.2542 C 12765.61,4410.2542 13011.61,4374.2542 13211.61,4330.2542 C 13412.61,4286.2542 13567.61,4234.2542 13656.61,4206.2542 C 13745.61,4178.2542 13768.61,4175.2542 13743.61,4198.2542 C 13718.61,4221.2542 13645.61,4270.2542 13462.61,4349.2542 C 13279.61,4428.2542 12987.61,4537.2542 12696.61,4621.2542 C 12405.61,4705.2542 12116.61,4765.2542 11886.61,4777.2542 C 11656.61,4789.2542 11485.61,4753.2542 11389.61,4693.2542 C 11293.61,4633.2542 11272.61,4548.2542 11292.61,4478.2542 C 11311.61,4408.2542 11371.61,4352.2542 11466.61,4276.2542 C 11561.61,4200.2542 11691.61,4104.2542 11754.61,3993.2542 C 11817.61,3882.2542 11813.61,3756.2542 11752.61,3637.2542 C 11691.61,3518.2542 11574.61,3404.2542 11406.61,3333.2542 C 11238.61,3262.2542 11021.61,3232.2542 10802.61,3218.2542 C 10583.61,3203.2542 10363.61,3203.2542 10144.61,3203.2542 C 9924.6102,3203.2542 9705.6102,3203.2542 9486.6102,3218.2542 C 9267.6102,3233.2542 9049.6102,3262.2542 8882.6102,3333.2542 C 8714.6102,3404.2542 8597.6102,3517.2542 8536.6102,3637.2542 C 8475.6102,3756.2542 8471.6102,3882.2542 8534.6102,3993.2542 C 8597.6102,4104.2542 8727.6102,4200.2542 8822.6102,4276.2542 C 8917.6102,4352.2542 8977.6102,4407.2542 8996.6102,4478.2542 C 9015.6102,4548.2542 8994.6102,4633.2542 8899.6102,4693.2542 C 8803.6102,4753.2542 8632.6102,4789.2542 8402.6102,4777.2542 C 8172.6102,4765.2542 7883.6102,4705.2542 7592.6102,4621.2542 C 7301.6102,4537.2542 7009.6102,4428.2542 6826.6102,4349.2542 C 6643.6102,4270.2542 6570.6102,4221.2542 6545.6102,4198.2542 C 6520.6102,4175.2542 6543.6102,4178.2542 6632.6102,4206.2542 C 6721.6102,4234.2542 6876.6102,4286.2542 7077.6102,4330.2542 C 7278.6102,4374.2542 7524.6102,4410.2542 7725.6102,4416.2542 C 7927.6102,4422.2542 8084.6102,4399.2542 8175.6102,4337.2542 C 8266.6102,4275.2542 8291.6102,4175.2542 8265.6102,4079.2542 C 8239.6102,3984.2542 8161.6102,3894.2542 8082.6102,3829.2542 C 8003.6102,3764.2542 7922.6102,3724.2542 7878.6102,3689.2542 C 7834.6102,3654.2542 7827.6102,3624.2542 7835.6102,3604.2542 C 7843.6102,3585.2542 7867.6102,3576.2542 7924.6102,3587.2542 C 7980.6102,3598.2542 8068.6102,3628.2542 8147.6102,3645.2542 C 8226.6102,3662.2542 8296.6102,3665.2542 8356.6102,3650.2542 C 8416.6102,3635.2542 8467.6102,3601.2542 8505.6102,3554.2542 C 8543.6102,3506.2542 8569.6102,3445.2542 8570.6102,3382.2542 C 8571.6102,3319.2542 8545.6102,3255.2542 8517.6102,3221.2542 C 8489.6102,3186.2542 8457.6102,3181.2542 8448.6102,3196.2542 C 8439.6102,3211.2542 8453.6102,3247.2542 8444.6102,3285.2542 C 8436.6102,3323.2542 8405.6102,3364.2542 8342.6102,3370.2542 C 8279.6102,3376.2542 8182.6102,3346.2542 8070.6102,3288.2542 C 7957.6102,3230.2542 7829.6102,3143.2542 7690.6102,3126.2542 C 7552.6102,3109.2542 7404.6102,3163.2542 7317.6102,3238.2542 C 7230.6102,3313.2542 7202.6102,3411.2542 7232.6102,3506.2542 C 7262.6102,3601.2542 7349.6102,3693.2542 7433.6102,3774.2542 C 7517.6102,3855.2542 7597.6102,3925.2542 7628.6102,3990.2542 C 7658.6102,4054.2542 7638.6102,4113.2542 7578.6102,4139.2542 C 7517.6102,4165.2542 7416.6102,4157.2542 7195.6102,4103.2542 C 6974.6102,4049.2542 6634.6102,3947.2542 6130.6102,3804.2542 C 5627.6102,3661.2542 4960.6102,3477.2542 4355.6102,3362.2542 C 3750.6102,3248.2542 3205.6102,3204.2542 2730.6102,3237.2542 C 2255.6102,3271.2542 1851.6102,3382.2542 1571.6102,3541.2542 C 1291.6102,3700.2542 1136.6102,3908.2542 1062.6102,4101.2542 C 988.61017,4295.2542 994.61017,4475.2542 1093.6102,4640.2542 C 1193.6102,4806.2542 1385.6102,4956.2542 1631.6102,5046.2542 C 1877.6102,5136.2542 2177.6102,5165.2542 2459.6102,5137.2542 C 2741.6102,5109.2542 3005.6102,5023.2542 3190.6102,4939.2542 C 3375.6102,4855.2542 3482.6102,4773.2542 3560.6102,4689.2542 C 3638.6102,4604.2542 3686.6102,4516.2542 3721.6102,4492.2542 C 3757.6102,4468.2542 3780.6102,4508.2542 3730.6102,4610.2542 C 3681.6102,4713.2542 3559.6102,4878.2542 3354.6102,5031.2542 C 3149.6102,5184.2542 2860.6102,5324.2542 2550.6102,5473.2542 C 2240.6102,5622.2542 1909.6102,5779.2542 1669.6102,6000.2542 C 1429.6102,6221.2542 1280.6102,6506.2542 1224.6102,6817.2542 C 1167.6102,7128.2542 1203.6102,7465.2542 1305.6102,7748.2542 C 1319.6102,7786.2542 1333.6102,7822.2542 1349.6102,7858.2542 C 1385.6102,7939.2542 1427.6102,8015.2542 1475.6102,8089.2542 C 1566.6102,8229.2542 1680.6102,8359.2542 1819.6102,8491.2542 C 1856.6102,8526.2542 1894.6102,8560.2542 1934.6102,8595.2542 C 2045.6102,8540.2542 2143.6102,8485.2542 2216.6102,8426.2542 C 2051.6102,8266.2542 1936.6102,8094.2542 1860.6102,7898.2542 C 1844.6102,7857.2542 1829.6102,7815.2542 1817.6102,7771.2542 C 1813.6102,7757.2542 1809.6102,7744.2542 1806.6102,7730.2542 C 1727.6102,7433.2542 1722.6102,7090.2542 1785.6102,6815.2542 z"
   id="path3067"
   style="fill:#000000;stroke:#000000;stroke-width:7.61999989" /><path
   d="M 3464.6102,9185.2542 C 3127.6102,9031.2542 2794.6102,8860.2542 2526.6102,8675.2542 C 2445.6102,8737.2542 2350.6102,8792.2542 2256.6102,8843.2542 C 2425.6102,8962.2542 2622.6102,9083.2542 2855.6102,9209.2542 C 3322.6102,9461.2542 3934.6102,9732.2542 4589.6102,9934.2542 C 4713.6102,9972.2542 4838.6102,10008.254 4964.6102,10041.254 C 5159.6102,10092.254 5356.6102,10137.254 5552.6102,10174.254 C 5900.6102,10240.254 6244.6102,10283.254 6571.6102,10297.254 C 7202.6102,10324.254 7765.6102,10245.254 8276.6102,10124.254 C 8559.6102,10057.254 8826.6102,9978.2542 9058.6102,9887.2542 C 8995.6102,9824.2542 8944.6102,9755.2542 8909.6102,9681.2542 C 8765.6102,9735.2542 8607.6102,9785.2542 8434.6102,9831.2542 C 8105.6102,9919.2542 7724.6102,9994.2542 7305.6102,10021.254 C 6926.6102,10045.254 6515.6102,10028.254 6114.6102,9978.2542 C 6072.6102,9973.2542 6030.6102,9967.2542 5988.6102,9961.2542 C 5836.6102,9939.2542 5687.6102,9913.2542 5539.6102,9883.2542 C 5256.6102,9825.2542 4978.6102,9751.2542 4703.6102,9664.2542 C 4284.6102,9532.2542 3871.6102,9371.2542 3464.6102,9184.2542 z"
   id="path3069"
   style="fill:#000000;stroke:#000000;stroke-width:7.61999989" /><path
   d="M 9765.6102,9099.2542 C 9659.6102,9258.2542 9487.6102,9401.2542 9263.6102,9522.2542 C 9212.6102,9550.2542 9159.6102,9576.2542 9102.6102,9602.2542 C 9130.6102,9664.2542 9172.6102,9722.2542 9223.6102,9773.2542 C 9233.6102,9783.2542 9244.6102,9793.2542 9256.6102,9803.2542 C 9362.6102,9753.2542 9458.6102,9701.2542 9540.6102,9646.2542 C 9834.6102,9449.2542 9964.6102,9217.2542 10037.61,9024.2542 C 10077.61,8918.2542 10100.61,8824.2542 10111.61,8733.2542 C 10118.61,8671.2542 10120.61,8610.2542 10117.61,8547.2542 C 10116.61,8534.2542 10116.61,8522.2542 10115.61,8509.2542 C 10114.61,8490.2542 10112.61,8471.2542 10110.61,8452.2542 C 10026.61,8450.2542 9944.6102,8453.2542 9863.6102,8462.2542 C 9877.6102,8500.2542 9886.6102,8540.2542 9892.6102,8582.2542 C 9893.6102,8591.2542 9894.6102,8600.2542 9895.6102,8609.2542 C 9900.6102,8661.2542 9899.6102,8714.2542 9891.6102,8769.2542 C 9876.6102,8880.2542 9835.6102,8994.2542 9764.6102,9100.2542 z"
   id="path3071"
   style="fill:#000000;stroke:#000000;stroke-width:7.61999989" /><path
   d="M 9146.6102,8028.2542 C 9366.6102,8084.2542 9555.6102,8132.2542 9683.6102,8224.2542 C 9710.6102,8244.2542 9735.6102,8265.2542 9757.6102,8289.2542 C 9795.6102,8284.2542 9833.6102,8280.2542 9868.6102,8276.2542 C 9942.6102,8269.2542 10009.61,8265.2542 10074.61,8266.2542 C 10048.61,8175.2542 10010.61,8089.2542 9952.6102,8016.2542 C 9843.6102,7879.2542 9667.6102,7791.2542 9535.6102,7737.2542 C 9403.6102,7684.2542 9315.6102,7665.2542 9292.6102,7634.2542 C 9269.6102,7604.2542 9311.6102,7562.2542 9410.6102,7540.2542 C 9510.6102,7518.2542 9667.6102,7516.2542 9789.6102,7479.2542 C 9912.6102,7442.2542 10000.61,7371.2542 10053.61,7272.2542 C 10106.61,7172.2542 10125.61,7045.2542 10107.61,6951.2542 C 10089.61,6858.2542 10035.61,6799.2542 10002.61,6795.2542 C 9969.6102,6791.2542 9956.6102,6841.2542 9920.6102,6918.2542 C 9884.6102,6994.2542 9826.6102,7097.2542 9652.6102,7151.2542 C 9478.6102,7204.2542 9189.6102,7209.2542 8951.6102,7230.2542 C 8713.6102,7251.2542 8527.6102,7289.2542 8447.6102,7394.2542 C 8367.6102,7500.2542 8395.6102,7674.2542 8534.6102,7792.2542 C 8673.6102,7910.2542 8925.6102,7973.2542 9145.6102,8029.2542 z"
   id="path3073"
   style="fill:#000000;stroke:#000000;stroke-width:7.61999989" /><path
   d="M 10754.61,7737.2542 C 10622.61,7790.2542 10446.61,7878.2542 10337.61,8016.2542 C 10278.61,8090.2542 10239.61,8179.2542 10213.61,8272.2542 C 10290.61,8279.2542 10367.61,8291.2542 10448.61,8308.2542 C 10467.61,8312.2542 10485.61,8316.2542 10504.61,8321.2542 C 10532.61,8285.2542 10566.61,8253.2542 10606.61,8225.2542 C 10735.61,8133.2542 10923.61,8085.2542 11143.61,8029.2542 C 11363.61,7973.2542 11614.61,7911.2542 11754.61,7792.2542 C 11893.61,7674.2542 11921.61,7500.2542 11841.61,7394.2542 C 11761.61,7288.2542 11575.61,7250.2542 11337.61,7230.2542 C 11099.61,7209.2542 10810.61,7205.2542 10636.61,7151.2542 C 10462.61,7098.2542 10403.61,6995.2542 10368.61,6918.2542 C 10332.61,6842.2542 10320.61,6791.2542 10286.61,6795.2542 C 10253.61,6799.2542 10198.61,6858.2542 10181.61,6951.2542 C 10163.61,7044.2542 10182.61,7172.2542 10235.61,7272.2542 C 10288.61,7372.2542 10376.61,7443.2542 10499.61,7479.2542 C 10622.61,7516.2542 10779.61,7518.2542 10878.61,7540.2542 C 10978.61,7562.2542 11019.61,7604.2542 10996.61,7634.2542 C 10973.61,7664.2542 10885.61,7683.2542 10753.61,7737.2542 z"
   id="path3075"
   style="fill:#000000;stroke:#000000;stroke-width:7.61999989" /><path
   d="M 10419.61,8482.2542 C 10339.61,8468.2542 10258.61,8459.2542 10179.61,8455.2542 C 10177.61,8473.2542 10175.61,8491.2542 10174.61,8509.2542 C 10173.61,8520.2542 10173.61,8530.2542 10172.61,8541.2542 C 10249.61,8533.2542 10327.61,8528.2542 10407.61,8526.2542 C 10410.61,8511.2542 10414.61,8497.2542 10419.61,8482.2542 z"
   id="path3077"
   style="fill:#000000;stroke:#000000;stroke-width:7.61999989" /><path
   d="M 10294.61,8716.2542 C 10255.61,8719.2542 10215.61,8722.2542 10176.61,8726.2542 C 10186.61,8820.2542 10209.61,8916.2542 10251.61,9025.2542 C 10324.61,9218.2542 10454.61,9450.2542 10748.61,9647.2542 C 10837.61,9707.2542 10942.61,9763.2542 11058.61,9816.2542 C 11097.61,9788.2542 11133.61,9756.2542 11164.61,9721.2542 C 11190.61,9691.2542 11213.61,9658.2542 11233.61,9624.2542 C 11160.61,9592.2542 11091.61,9559.2542 11026.61,9524.2542 C 10802.61,9402.2542 10630.61,9260.2542 10524.61,9101.2542 C 10441.61,8976.2542 10398.61,8840.2542 10391.61,8712.2542 C 10358.61,8713.2542 10326.61,8715.2542 10293.61,8717.2542 z"
   id="path3079"
   style="fill:#000000;stroke:#000000;stroke-width:7.61999989" /><path
   d="M 11448.61,9707.2542 C 11407.61,9782.2542 11352.61,9849.2542 11282.61,9908.2542 C 11502.61,9991.2542 11750.61,10063.254 12012.61,10125.254 C 12523.61,10245.254 13087.61,10325.254 13717.61,10298.254 C 14061.61,10283.254 14425.61,10237.254 14791.61,10164.254 C 14983.61,10126.254 15176.61,10081.254 15366.61,10030.254 C 15478.61,10000.254 15590.61,9968.2542 15700.61,9934.2542 C 16355.61,9732.2542 16966.61,9462.2542 17434.61,9209.2542 C 17684.61,9074.2542 17893.61,8944.2542 18071.61,8816.2542 C 17977.61,8764.2542 17885.61,8706.2542 17809.61,8642.2542 C 17534.61,8839.2542 17182.61,9022.2542 16825.61,9185.2542 C 16418.61,9371.2542 16005.61,9533.2542 15586.61,9665.2542 C 15328.61,9746.2542 15067.61,9817.2542 14801.61,9873.2542 C 14636.61,9908.2542 14469.61,9938.2542 14301.61,9962.2542 C 14281.61,9965.2542 14260.61,9968.2542 14239.61,9971.2542 C 13817.61,10027.254 13383.61,10047.254 12984.61,10022.254 C 12565.61,9996.2542 12184.61,9920.2542 11855.61,9832.2542 C 11709.61,9793.2542 11573.61,9751.2542 11447.61,9706.2542 z"
   id="path3081"
   style="fill:#000000;stroke:#000000;stroke-width:7.61999989" /><path
   d="M 2256.6102,8843.2542 C 2351.6102,8792.2542 2445.6102,8737.2542 2526.6102,8675.2542 C 2571.6102,8641.2542 2611.6102,8604.2542 2646.6102,8565.2542 C 2804.6102,8385.2542 2825.6102,8150.2542 2757.6102,7986.2542 C 2689.6102,7822.2542 2532.6102,7727.2542 2339.6102,7697.2542 C 2174.6102,7671.2542 1983.6102,7692.2542 1807.6102,7730.2542 C 1811.6102,7744.2542 1814.6102,7757.2542 1818.6102,7771.2542 C 1831.6102,7814.2542 1845.6102,7856.2542 1861.6102,7898.2542 C 2045.6102,7843.2542 2198.6102,7879.2542 2286.6102,7965.2542 C 2379.6102,8056.2542 2399.6102,8203.2542 2314.6102,8325.2542 C 2290.6102,8360.2542 2257.6102,8393.2542 2218.6102,8425.2542 C 2144.6102,8484.2542 2047.6102,8539.2542 1936.6102,8594.2542 C 1898.6102,8613.2542 1859.6102,8631.2542 1819.6102,8650.2542 C 1596.6102,8755.2542 1338.6102,8866.2542 1171.6102,9030.2542 C 1003.6102,9194.2542 926.61017,9412.2542 983.61017,9667.2542 C 1041.6102,9922.2542 1233.6102,10213.254 1617.6102,10392.254 C 2000.6102,10571.254 2574.6102,10638.254 3133.6102,10631.254 C 3691.6102,10624.254 4234.6102,10542.254 4817.6102,10391.254 C 5058.6102,10329.254 5306.6102,10255.254 5553.6102,10174.254 C 5357.6102,10137.254 5160.6102,10092.254 4965.6102,10041.254 C 4867.6102,10065.254 4770.6102,10087.254 4673.6102,10107.254 C 4052.6102,10235.254 3453.6102,10279.254 2967.6102,10235.254 C 2481.6102,10191.254 2108.6102,10059.254 1889.6102,9890.2542 C 1670.6102,9721.2542 1605.6102,9516.2542 1632.6102,9361.2542 C 1659.6102,9206.2542 1779.6102,9101.2542 1986.6102,8986.2542 C 2067.6102,8941.2542 2162.6102,8894.2542 2257.6102,8843.2542 z"
   id="path3083"
   style="fill:#3d0404;stroke:#000000;stroke-width:7.61999989" /><path
   d="M 1219.6102,8218.2542 C 1298.6102,8190.2542 1386.6102,8142.2542 1476.6102,8090.2542 C 1428.6102,8016.2542 1386.6102,7940.2542 1350.6102,7859.2542 C 1310.6102,7869.2542 1275.6102,7875.2542 1245.6102,7877.2542 C 1140.6102,7881.2542 1100.6102,7820.2542 1098.6102,7757.2542 C 1096.6102,7693.2542 1132.6102,7626.2542 1121.6102,7594.2542 C 1111.6102,7562.2542 1054.6102,7564.2542 989.61017,7603.2542 C 924.61017,7643.2542 851.61017,7720.2542 813.61017,7824.2542 C 775.61017,7928.2542 773.61017,8058.2542 838.61017,8146.2542 C 903.61017,8235.2542 1036.6102,8282.2542 1217.6102,8219.2542 z"
   id="path3085"
   style="fill:#3d0404;stroke:#000000;stroke-width:7.61999989" /><path
   d="M 7964.6102,8949.2542 C 7543.6102,9141.2542 7061.6102,9349.2542 6499.6102,9558.2542 C 6197.6102,9670.2542 5872.6102,9784.2542 5539.6102,9884.2542 C 5687.6102,9915.2542 5837.6102,9941.2542 5988.6102,9962.2542 C 6030.6102,9968.2542 6072.6102,9974.2542 6114.6102,9979.2542 C 6272.6102,9921.2542 6428.6102,9861.2542 6578.6102,9802.2542 C 7132.6102,9583.2542 7616.6102,9365.2542 8004.6102,9183.2542 C 8392.6102,9001.2542 8685.6102,8854.2542 8932.6102,8743.2542 C 9180.6102,8632.2542 9383.6102,8558.2542 9578.6102,8511.2542 C 9674.6102,8488.2542 9769.6102,8471.2542 9864.6102,8461.2542 C 9945.6102,8453.2542 10026.61,8449.2542 10111.61,8451.2542 C 10128.61,8451.2542 10145.61,8452.2542 10163.61,8453.2542 C 10169.61,8453.2542 10174.61,8454.2542 10180.61,8454.2542 C 10259.61,8458.2542 10340.61,8467.2542 10420.61,8481.2542 C 10484.61,8492.2542 10548.61,8507.2542 10610.61,8526.2542 C 10771.61,8532.2542 10936.61,8552.2542 11092.61,8577.2542 C 11081.61,8569.2542 11070.61,8561.2542 11059.61,8554.2542 C 10886.61,8435.2542 10686.61,8363.2542 10506.61,8320.2542 C 10487.61,8315.2542 10468.61,8311.2542 10450.61,8307.2542 C 10369.61,8289.2542 10292.61,8277.2542 10215.61,8271.2542 C 10170.61,8267.2542 10124.61,8265.2542 10077.61,8265.2542 C 10012.61,8265.2542 9945.6102,8268.2542 9871.6102,8275.2542 C 9835.6102,8278.2542 9798.6102,8283.2542 9760.6102,8288.2542 C 9562.6102,8315.2542 9328.6102,8367.2542 9064.6102,8463.2542 C 8748.6102,8578.2542 8387.6102,8755.2542 7966.6102,8948.2542 z"
   id="path3087"
   style="fill:#3d0404;stroke:#000000;stroke-width:7.61999989" /><path
   d="M 9714.6102,8621.2542 C 9459.6102,8686.2542 9248.6102,8776.2542 9091.6102,8927.2542 C 8934.6102,9078.2542 8831.6102,9289.2542 8854.6102,9496.2542 C 8861.6102,9559.2542 8880.6102,9622.2542 8909.6102,9682.2542 C 8945.6102,9755.2542 8995.6102,9825.2542 9058.6102,9888.2542 C 9112.6102,9942.2542 9176.6102,9990.2542 9246.6102,10031.254 C 9467.6102,10159.254 9760.6102,10213.254 10065.61,10221.254 C 10370.61,10228.254 10686.61,10189.254 10934.61,10100.254 C 11072.61,10051.254 11189.61,9986.2542 11282.61,9908.2542 C 11351.61,9849.2542 11407.61,9782.2542 11448.61,9707.2542 C 11450.61,9703.2542 11452.61,9699.2542 11454.61,9695.2542 C 11547.61,9515.2542 11555.61,9291.2542 11480.61,9084.2542 C 11448.61,8996.2542 11402.61,8911.2542 11344.61,8832.2542 C 11241.61,8804.2542 11133.61,8777.2542 11026.61,8756.2542 C 11093.61,8814.2542 11150.61,8877.2542 11194.61,8939.2542 C 11287.61,9068.2542 11325.61,9192.2542 11318.61,9327.2542 C 11313.61,9425.2542 11285.61,9530.2542 11232.61,9622.2542 C 11212.61,9656.2542 11189.61,9689.2542 11163.61,9719.2542 C 11132.61,9754.2542 11096.61,9786.2542 11057.61,9814.2542 C 10973.61,9874.2542 10873.61,9920.2542 10766.61,9954.2542 C 10609.61,10004.254 10437.61,10030.254 10244.61,10038.254 C 10051.61,10045.254 9838.6102,10034.254 9657.6102,9992.2542 C 9494.6102,9954.2542 9358.6102,9892.2542 9255.6102,9803.2542 C 9244.6102,9793.2542 9233.6102,9783.2542 9222.6102,9773.2542 C 9171.6102,9722.2542 9129.6102,9664.2542 9101.6102,9602.2542 C 9071.6102,9536.2542 9055.6102,9465.2542 9060.6102,9396.2542 C 9069.6102,9263.2542 9151.6102,9134.2542 9272.6102,9033.2542 C 9393.6102,8932.2542 9552.6102,8859.2542 9728.6102,8808.2542 C 9781.6102,8793.2542 9836.6102,8779.2542 9892.6102,8768.2542 C 9899.6102,8713.2542 9901.6102,8660.2542 9896.6102,8608.2542 C 9895.6102,8599.2542 9894.6102,8590.2542 9893.6102,8581.2542 C 9831.6102,8593.2542 9772.6102,8606.2542 9714.6102,8621.2542 z"
   id="path3089"
   style="fill:#3d0404;stroke:#000000;stroke-width:7.61999989" /><path
   d="M 10118.61,8547.2542 C 10121.61,8610.2542 10120.61,8671.2542 10112.61,8733.2542 C 10133.61,8730.2542 10154.61,8728.2542 10176.61,8726.2542 C 10215.61,8722.2542 10254.61,8719.2542 10294.61,8716.2542 C 10326.61,8714.2542 10359.61,8712.2542 10392.61,8711.2542 C 10558.61,8704.2542 10728.61,8710.2542 10905.61,8737.2542 C 10945.61,8743.2542 10986.61,8750.2542 11027.61,8758.2542 C 11134.61,8779.2542 11242.61,8805.2542 11345.61,8834.2542 C 11408.61,8851.2542 11470.61,8869.2542 11529.61,8886.2542 C 11720.61,8943.2542 11882.61,8995.2542 12001.61,9038.2542 C 12121.61,9081.2542 12199.61,9115.2542 12277.61,9149.2542 C 12761.61,9367.2542 13245.61,9585.2542 13799.61,9804.2542 C 13942.61,9861.2542 14090.61,9917.2542 14241.61,9973.2542 L 14303.61,9964.2542 C 14472.61,9940.2542 14639.61,9910.2542 14803.61,9875.2542 C 14483.61,9777.2542 14170.61,9668.2542 13879.61,9560.2542 C 13317.61,9351.2542 12835.61,9143.2542 12353.61,8936.2542 C 12268.61,8899.2542 12183.61,8862.2542 12048.61,8815.2542 C 11913.61,8768.2542 11729.61,8711.2542 11474.61,8654.2542 C 11359.61,8628.2542 11229.61,8602.2542 11092.61,8580.2542 C 10936.61,8555.2542 10771.61,8536.2542 10610.61,8529.2542 C 10600.61,8529.2542 10590.61,8528.2542 10580.61,8528.2542 C 10522.61,8526.2542 10465.61,8526.2542 10409.61,8528.2542 C 10329.61,8530.2542 10251.61,8535.2542 10174.61,8543.2542 C 10156.61,8545.2542 10138.61,8547.2542 10120.61,8549.2542 z"
   id="path3091"
   style="fill:#3d0404;stroke:#000000;stroke-width:7.61999989" /><path
   d="M 18489.61,9890.2542 C 18270.61,10059.254 17897.61,10191.254 17411.61,10235.254 C 16925.61,10279.254 16326.61,10235.254 15705.61,10107.254 C 15593.61,10084.254 15480.61,10058.254 15368.61,10030.254 C 15177.61,10081.254 14985.61,10126.254 14793.61,10164.254 C 15051.61,10249.254 15310.61,10327.254 15561.61,10392.254 C 16144.61,10543.254 16687.61,10625.254 17245.61,10632.254 C 17803.61,10639.254 18377.61,10572.254 18761.61,10393.254 C 19144.61,10214.254 19337.61,9923.2542 19395.61,9668.2542 C 19453.61,9413.2542 19375.61,9196.2542 19207.61,9031.2542 C 19039.61,8867.2542 18782.61,8755.2542 18559.61,8651.2542 C 18499.61,8623.2542 18441.61,8595.2542 18387.61,8567.2542 C 18275.61,8509.2542 18179.61,8450.2542 18113.61,8385.2542 C 18094.61,8366.2542 18077.61,8346.2542 18063.61,8326.2542 C 17979.61,8203.2542 17999.61,8057.2542 18091.61,7966.2542 C 18166.61,7893.2542 18288.61,7855.2542 18436.61,7880.2542 C 18449.61,7845.2542 18461.61,7809.2542 18472.61,7772.2542 C 18478.61,7753.2542 18483.61,7734.2542 18488.61,7715.2542 C 18336.61,7687.2542 18177.61,7676.2542 18038.61,7698.2542 C 17845.61,7728.2542 17688.61,7823.2542 17620.61,7987.2542 C 17552.61,8151.2542 17573.61,8386.2542 17731.61,8566.2542 C 17755.61,8593.2542 17781.61,8619.2542 17810.61,8643.2542 C 17886.61,8707.2542 17978.61,8765.2542 18072.61,8817.2542 C 18183.61,8879.2542 18296.61,8934.2542 18392.61,8987.2542 C 18599.61,9102.2542 18719.61,9207.2542 18746.61,9362.2542 C 18773.61,9517.2542 18708.61,9722.2542 18489.61,9891.2542 z"
   id="path3093"
   style="fill:#3d0404;stroke:#000000;stroke-width:7.61999989" /><path
   d="M 18837.61,8053.2542 C 18950.61,8118.2542 19061.61,8183.2542 19157.61,8218.2542 C 19339.61,8282.2542 19471.61,8234.2542 19536.61,8145.2542 C 19601.61,8056.2542 19599.61,7926.2542 19561.61,7823.2542 C 19523.61,7719.2542 19450.61,7642.2542 19385.61,7602.2542 C 19320.61,7562.2542 19263.61,7560.2542 19253.61,7593.2542 C 19243.61,7625.2542 19278.61,7693.2542 19276.61,7756.2542 C 19274.61,7820.2542 19234.61,7881.2542 19129.61,7876.2542 C 19081.61,7874.2542 19019.61,7858.2542 18947.61,7837.2542 C 18915.61,7912.2542 18878.61,7984.2542 18835.61,8053.2542 z"
   id="path3095"
   style="fill:#3d0404;stroke:#000000;stroke-width:7.61999989" />
<text
   x="6179.1738"
   y="6390.623"
   id="text3124"
   xml:space="preserve"
   style="font-size:1128.88891602px;font-style:normal;font-weight:normal;line-height:125%;letter-spacing:0px;word-spacing:0px;fill:#000000;fill-opacity:1;stroke:none;font-family:Sans"><tspan
     x="6179.1738"
     y="6390.623"
     id="tspan3126"
     style="font-size:677.33337402px;font-style:normal;font-variant:normal;font-weight:bold;font-stretch:normal;font-family:Arial;-inkscape-font-specification:Arial Bold">www.craftsmanspace.com</tspan></text>


</svg>