<svg xmlns="http://www.w3.org/2000/svg" viewBox="0 0 80 80">
  <defs>
    <style>
      .cls-1 {
        fill: #fff;
      }

      .cls-2 {
        fill: #a07141;
      }
    </style>
  </defs>
  <title>favicon</title>
  <g id="Layer_2" data-name="Layer 2">
    <rect class="cls-1" width="80" height="80"/>
  </g>
  <g id="Layer_1" data-name="Layer 1">
    <g id="Layer_1-2" data-name="Layer 1">
      <g>
        <path class="cls-2" d="M41.2,3.6A8.1,8.1,0,0,0,45,11.7c2.1,1.4.4,2.2-1.6,3.3s-2.4,3.4-2.9,6.2c-1-2.9-1.3-5.7-4.4-6.6-.5-.1-1.6-1-1.2-1.7a3.9,3.9,0,0,1,.8-1A7.7,7.7,0,0,0,40,3.8Z"/>
        <path class="cls-2" d="M63.1,75.9c-.8-.9-5-4-6-4.2a30.3,30.3,0,0,1-10.2-4.6l-1-.9c-.5-.5-1.1-1.2-.5-1.7s1.2-.3,1.7,0a35.3,35.3,0,0,0,7.4,3.4c1,.2,2.4,1.3,2.8-.1a4.4,4.4,0,0,0-.2-4.3c-2.8-4.2-7.3-4.2-11.4-4.7a59.5,59.5,0,0,0-17.8,1c-2.4.6-5.3,4-5.3,6.4s.5,2.8,2.6,2.3A41.7,41.7,0,0,0,32.6,65c.9-.3,1.5-1.5,2.4-.3s-.3,1.7-1.4,2.4-2.6,1.5-3.9,2.4c-4.2,2.2-8.8,3.8-12.8,6.6-1.9,1.3-3.8-1.8-.5-1.8s5-3.2,5.3-6.5c.2-1.7-.1-3-2.4-3.3a3.9,3.9,0,0,1-2.4-1.2c-1-.9-2.2-1.7-1.2-3.5s2.4-1,3.6-.3A4.3,4.3,0,0,1,21,61.1c1.4,2.2,2.4.8,3-.4s.8-4-.9-5.9-5.3-2.7-7.4-1.7-4.8,3.6-4.8,6.6,1.7,6,4.6,7.7a15.1,15.1,0,0,0,2.6,1.2c.9.4,2.2.4,1.6,1.8a2.3,2.3,0,0,1-3,1.3c-4.1-1.2-8.1-6.2-8.6-10.5s1.2-6,3.3-8.4c-1.1-.9-2.3-.4-3-.9s-2.9-1.7-3.6-3.6a2.1,2.1,0,0,1,.9-2.1,1.7,1.7,0,0,1,1.7,0c.5.5.9,1.2.4,1.7-1.4,2.5.5,2.3,1.7,2.5,3.6.3,7.4-.4,11.4.5-1.8-3-3.8-5.4-3.8-8.6-.2-5.4,1.7-8.7,6.5-10.7,2.3-1.1,4.7-1.8,6.9-2.6A13.6,13.6,0,0,0,36,25.2c.6-.9.9-1.6,0-2.3s-1,.4-1.3.9a1.4,1.4,0,0,1-2.1.5,1.4,1.4,0,0,1-.9-1.7c.2-.9.5-1.4,1.4-1.6a19.2,19.2,0,0,1,2.4,0v-.3c-1-1-2-2.1-1.4-3.6a2,2,0,0,1,1.6-1.2,3.2,3.2,0,0,1,2.9,2.6c1.4,4.1,2.3,8.4-1.5,11.9-.9.8-1.1,1.5,0,2.4a13,13,0,0,1,3.3,4.6c.3-.5.3-.8.5-1,2.4-2.8,4.1-5.4.8-9-1.7-2.2-.8-5.8.2-8.6s1.6-3.6,3.8-2.6.9,2.8.2,4.2,1.2.3,1.7.5A1.7,1.7,0,0,1,49,22.6a1.3,1.3,0,0,1-1.2,1.5,1.9,1.9,0,0,1-2.3-.5c-.3-.3-.1-1.5-1.4-.8s-.8,1.3,0,2.2a14.2,14.2,0,0,0,6.8,4.1,40.8,40.8,0,0,1,6,2.3c6.6,2.9,8.6,9.3,4.8,15.7a12.6,12.6,0,0,1-2.2,4.5c4-.6,7.6,0,11.2-.4,1.2-.2,3.8.2,2.1-2.6-.5-.8,0-1.7,1.2-2s1.5.5,1.7,1.5-.9,2.8-2.2,3.6-3,.9-4.9,1.4c2.8,2.9,4.2,6.1,3.5,10a12.7,12.7,0,0,1-8,9,2.3,2.3,0,0,1-3.2-1.2c-.5-1.7,1-1.7,1.7-2.3,6.2-2.4,8.6-8.8,4.8-13.2s-8.8-3.5-11,.5a5,5,0,0,0-.4,4.6c.9,2.3,1.8,2.4,3.5.6.2-.2.3-.6.9-.9a3.5,3.5,0,0,1,3.7-.9,1.4,1.4,0,0,1,1.1,1.6,3.2,3.2,0,0,1-2.4,2.7c-1.6.9-2.8-.1-3.8,3.7a6.1,6.1,0,0,0,5.7,7C66.7,74.5,64.9,77.6,63.1,75.9ZM48.8,40.7a12.1,12.1,0,0,0-2.2-5.9c-.9-1.2-1.6-1-2.6-.1a10,10,0,0,0-.5,13.6c.5.9,1.2.9,1.7,0A12.3,12.3,0,0,0,48.8,40.7Zm-10.3-.3c0-1.6-1.3-3.5-2.6-5s-2.3-1.1-3.3.1c-2.6,3.5-1.7,10.2,1.5,13,1.1.8,1.6.3,2.3-.4A15.7,15.7,0,0,0,38.5,40.4Zm1.3,14.3c4,.3,7.8.8,11.8,1.3,1.2.2,2,0,2.2-1.3s-1-1.4-2.1-1.4a3.2,3.2,0,0,0-1.7.3,1.8,1.8,0,0,1-2.9-.5,3.8,3.8,0,0,0-5.5-.3c-1.2,1-1.8.8-2.8-.2s-3.3-1.6-4.7-.3-3.2,2.2-5.3,1a1.8,1.8,0,0,0-2.2.5c-.4.4-.2,1,0,1.4s1.3.5,2.2.5A61.6,61.6,0,0,0,39.8,54.7ZM22.1,41.9c.1,3.3,2,5.2,3.8,7.4.3.5,1.2.5,1.3-.1.9-2.8,2.3-5.4.9-8.2s-2.1-3.4-3.8-2.9S22.4,40.4,22.1,41.9ZM51,44c.4,1.7,0,5,1.8,5.3s2.7-2.6,3.8-4.3.8-4.6-.6-6.7-1.2-.5-1.7-.2C51.9,39.1,51,41.2,51,44ZM37.1,27.4c-3.6,4.7-10.4,3.8-14.2,8.6,3-.3,4.7,1.6,6.6,3.5C30,34,35.2,31.7,37.1,27.4Zm5.5,0A5.3,5.3,0,0,0,44.8,31a18.4,18.4,0,0,1,4,4.7c.5,1,.9,2.8,1.6,2.9s2-1.3,2.9-2c2.7-1.6,2.6-2.1-.2-3.5S45.4,30.5,42.6,27.4Z"/>
        <path class="cls-2" d="M35.5,69.2c-.2-1.1.4-1.6.5-2.5a4,4,0,0,0-1.7-4.3c-1-.5-2.2-1.2-2.2.9A1.5,1.5,0,0,1,30.7,65,1.3,1.3,0,0,1,29,63.8c-.4-1,0-1.5.5-2.4s5.5-1.4,6.9.5A5.4,5.4,0,0,1,35.5,69.2Z"/>
        <path class="cls-2" d="M43.6,68.5c-2-2.1-2.2-4.7-.1-6.6s5.1-1.7,6.7-.3a2,2,0,0,1,.5,2.6,1.3,1.3,0,0,1-1.6,1,1.5,1.5,0,0,1-1.3-1.7c0-2.3-1.2-1.6-2.3-.9a5.5,5.5,0,0,0-2,3.5C43.6,66.7,44.1,67.6,43.6,68.5Z"/>
      </g>
    </g>
  </g>
</svg>
