<?xml version="1.0" encoding="utf-8"?>
<!-- Generator: Adobe Illustrator 19.0.0, SVG Export Plug-In . SVG Version: 6.00 Build 0)  -->
<svg version="1.1" id="Layer_1" xmlns="http://www.w3.org/2000/svg" xmlns:xlink="http://www.w3.org/1999/xlink" x="0px" y="0px"
	 viewBox="334 -4 1280 800" style="enable-background:new 334 -4 1280 800;" xml:space="preserve">
<style type="text/css">
	.st0{font-family:'Georgia';}
	.st1{font-size:70px;}
</style>
<g id="Layer_1_1_">
	<g>
		<path d="M914,79c-0.9,6.8,1.4,11.5,7.4,15.5c3.8,2.5,2.9,5.1-1.3,6.7c-4.8,1.8-5.5,6.3-7.5,11.2c-1.8-5.8-3.4-10.7-9.2-12
			c-1.2-0.3-1.6-1.7-1.2-2.9c0.3-0.9,0.6-2.2,1.3-2.6c6.2-3.5,8.6-8.9,8.5-15.8C912.7,79,913.3,79,914,79z"/>
		<path d="M950.3,170.4c7.8-1.1,14.6-0.1,21.4-0.6c2.4-0.2,7.1,0.4,3.7-4.9c-1.1-1.7,0.1-3.3,2.1-3.7c2-0.3,3.2,1,3.3,2.9
			c0.2,3.2-1.5,5.3-4,7s-5.6,1.7-9.1,2.5c5.2,5.7,8.1,11.6,6.3,18.9c-2.1,8.4-7.2,14.1-15.1,17.3c-2.7,1.1-5.1,0.7-6.2-2.1
			c-1.3-3.4,1.8-3.3,3.6-4c11.9-4.6,16.3-16.8,9-25.5c-5.8-6.9-16.8-6.3-20.9,1c-1.6,2.8-1.8,5.7-0.7,8.7c1.5,4.1,3.5,4.5,6.4,1.3
			c0.5-0.5,0.9-1,1.4-1.4c2.2-2,4.6-2.6,7.4-1.6c1.4,0.5,2,1.7,1.9,3.2c-0.3,2.8-2.2,4.4-4.6,5.4c-3.2,1.4-7.9,0.7-7.2,6.7
			c0.6,5.5,3.2,10.6,7.9,12.3c4.8,1.7,9.5,1.7,13.6-2c2.1-1.8,3.1-4.3,4.2-6.7c2.4-5.1,6.4-8.2,11.6-10.4c4.4-1.9,6.2-0.5,6.6,3.8
			c0.1,0.8,0.2,1.6,0.4,3c3.6-3.1,6.5-6.5,11.1-7.5s5.7-0.4,4.9,4.2c-0.5,3,0.6,3.5,3.1,3.4c4-0.2,7.7,0.5,9.9,4.4
			c1.1,1.9,1.2,4-0.9,5.3c-2,1.2-3.4,0-4.5-1.8c-3.2-4.9-6.8-6-12.6-3.7c-4.6,1.8-8.2,5-11.9,8.2c-12.7,11.1-30.4,10.6-42.3-1.3
			c-1.5-1.5-3.3-2.2-5.3-2.6c-7.2-1.4-13.4-4.9-19.4-8.8c-0.7-0.4-1.3-1-1.9-1.6c-1-1-1.8-2.2-1-3.5c1-1.7,2.4-0.6,3.5,0.1
			c4.5,2.6,9,5,14,6.4c1.8,0.5,4.4,2.1,5.4-0.3c1-2.5,1.7-5.2-0.4-8.4c-5.3-8.1-13.7-8.1-21.6-8.8c-11.3-1-22.6-0.6-33.8,1.8
			c-4.5,1-10.3,7.8-10.4,12c-0.1,3.8,1.3,5.3,5.1,4.1c5-1.5,9.6-3.7,14.1-6.3c1.4-0.8,3.2-3,4.7-0.6c1.6,2.4-0.9,3.5-2.5,4.6
			c-2.5,1.6-5.1,3.2-7.7,4.6c-8.1,4.2-16.7,7.2-24.5,12.5c-10.3,7-22.3,5.2-32.9-2.1c-4.6-3.2-8.5-7.5-13.8-9.8
			c-6.1-2.6-9.5-1.7-13.3,3.8c-1.1,1.6-2.4,2.4-4.2,1.5c-1.7-0.8-2.3-2.5-1.6-4.2c1.5-4.3,5-5.6,9.1-5.5c3.1,0,6.1,0.6,4.5-4.5
			c-1-3.1,1-4.1,4-3.3c4.1,1,7.2,3,12,8.3c0.2-0.2,0.6-0.4,0.6-0.6c0.5-8.8,1.4-9.3,9.4-5.4c4.7,2.2,7.3,6.2,9.3,10.7
			c3,6.7,7.9,9.2,14.8,8c5.6-1,9.7-6.2,10.1-12.7c0.2-3.3-0.3-5.9-4.5-6.2c-1.5-0.1-3.2-1.1-4.5-2.1c-2-1.6-4-3.6-2.1-6.3
			c1.7-2.4,4.5-2,6.8-0.7c1.3,0.7,2.6,1.7,3.4,2.9c2.6,4,4.4,1.6,5.7-0.9c2.2-3.9,1.5-7.8-1.4-11.1c-3.1-3.7-10.1-5.3-14.2-3.4
			c-5.4,2.5-9,6.7-9.2,12.7c-0.2,6.5,3.3,11.4,8.6,14.9c1.5,1,3.3,1.5,5,2.3c1.5,0.7,4.1,0.7,2.9,3.5c-1.1,2.4-2.7,3.5-5.6,2.7
			c-8.1-2.1-15.8-11.7-16.4-20.2c-0.5-6.3,2.2-11.3,6.1-16.1c-1.8-1.5-4-0.8-5.8-1.6c-3.2-1.4-5.7-3.5-6.7-6.9
			c-0.5-1.6,0.2-3,1.6-3.9c1.1-0.7,2.2-0.7,3.3,0.1c1.2,1,1.4,2.3,0.7,3.6c-2.6,4.5,1.3,4.3,3.6,4.5c6.9,0.7,13.9-0.8,21.6,1
			c-3.4-5.6-7.3-10.1-7.4-16.3c-0.3-10.2,3.3-16.4,12.6-20.5c4.3-1.9,8.7-3.3,13.2-4.8c4.2-1.4,7.8-3.7,10.7-7.1
			c1.3-1.5,1.7-2.9,0-4.3c-2-1.7-2,0.6-2.6,1.5c-1,1.4-2.3,1.9-3.9,1.1c-1.4-0.6-1.8-1.9-1.7-3.3c0.2-1.7,1.1-2.8,2.8-3.1
			c1.5-0.2,3,0,4.5,0c0-0.2,0-0.6-0.1-0.8c-2-1.9-3.8-3.9-2.6-6.9c0.5-1.3,1.7-2.2,3.1-2.1c3.2,0,4.8,2.5,5.6,5c2.6,8,4,16-2.9,22.8
			c-1.6,1.6-1.8,3,0,4.6c2.4,2.3,4.7,4.7,6.1,8.8c0.7-1.1,0.9-1.6,1.2-1.9c4.4-5.4,7.9-10.1,1.6-17.3c-3.6-4.2-1.6-10.9,0.5-16.4
			c1.2-3.2,3.1-6.8,7.1-5c4.2,1.8,1.6,5.3,0.5,8.1c0.8,1.6,2.4,0.8,3.6,1.3c1.5,0.6,2.6,1.6,2.7,3.3c0.1,1.5-0.7,2.5-2.1,3.1
			c-1.6,0.7-2.9,0.2-4-1.1c-0.7-0.8-0.5-3.2-2.6-1.6c-1.6,1.3-1.4,2.8-0.1,4.3c3.5,4.1,8.2,6.2,13.1,7.9c3.8,1.3,7.7,2.4,11.3,4.1
			c12.6,5.8,16.3,17.9,9.3,30C953.4,165.9,952.1,167.7,950.3,170.4z M929.9,149.8c-0.2-4.5-1.9-7.8-4.3-10.9
			c-1.7-2.3-2.9-1.9-4.8-0.2c-7,6.6-7.5,18.3-1,25.9c1.3,1.6,2.3,1.7,3.5,0.1C926.7,160.1,929.5,155.2,929.9,149.8z M910,149.1
			c0.1-3.2-2.1-6.6-5.1-9.7c-2.4-2.5-4.1-2-6.1,0.5c-5.1,6.6-3.4,19.4,3.2,24.6c1.9,1.5,3,0.8,4-0.9
			C908.5,159.5,909.9,155.1,910,149.1z M912.6,176.7c7.6,0.8,15,1.6,22.4,2.5c2.2,0.3,3.7-0.1,4-2.5c0.3-2.9-2-2.6-3.7-2.7
			c-1.1,0-2.5,0.1-3.4,0.7c-2.4,1.6-4,1.1-5.9-1c-3.2-3.5-7.2-3.6-10.7-0.6c-2.2,1.8-3.3,1.6-5.3-0.2c-2.6-2.3-6.2-3-8.7-0.7
			c-3.3,3-6.2,4.2-10.3,2c-1.2-0.6-3-0.3-4.1,1c-0.7,0.9-0.5,1.9,0,2.8c0.9,1.8,2.5,1.2,4,1C898.1,178.3,905.4,177.5,912.6,176.7z
			 M879,152.3c0.2,6,3.8,10,7.2,14c0.9,1.1,2.2,1.2,2.7-0.4c1.6-5.2,4.2-10.3,1.5-15.8c-1.5-3-3.8-6.5-7.2-5.8
			C879.5,145,879.5,149.2,879,152.3z M934,156c0.6,3.4,0,9.5,3.6,10.4c3.4,0.8,5.4-5,7.3-8.4c2.6-4.6,1.5-8.9-1.2-13.1
			c-0.9-1.4-2.2-1.2-3.5-0.5C935.9,146.8,934,150.6,934,156z M907.4,124.2c-6.8,8.9-19.8,7.4-27,16.4c5.8-0.8,8.6,3.2,12.4,6.4
			C894.2,136.9,903.8,132.7,907.4,124.2z M918,124.2c0.4,3.1,1.9,5.1,4.1,6.8c3.1,2.3,5.5,5.3,7.5,8.6c1.2,1.9,1.6,5.3,3.2,5.9
			c2.3,0.9,3.8-2.5,5.9-3.7c5.2-3,5.1-3.8-0.2-6.5C931.5,131.9,923.5,130.4,918,124.2z"/>
		<path d="M1023.3,308.1c-10.7,0-21.3,0-32-0.1c-1.6,0-4.4,0.9-4.4-1.7c0-2.1,2.6-1.5,4.2-1.5c21.7-0.1,43.3,0,65,0
			c0.7,0,1.3,0,2,0.1c1,0.1,2.3,0.2,2.3,1.4c0.1,1.6-1.4,1.6-2.5,1.7c-1.7,0.1-3.3,0.1-5,0.1
			C1042.9,308.1,1033.1,308.1,1023.3,308.1z"/>
		<path d="M801.5,308.1c-10.8,0-21.6,0-32.4,0c-1.5,0-4.1,0.6-4.1-1.6s2.5-1.6,4-1.6c21.8-0.1,43.6,0,65.4,0c1.5,0,3.9-0.6,3.8,1.8
			c-0.1,1.8-2.4,1.4-3.8,1.4C823.4,308.1,812.4,308,801.5,308.1z"/>
		<path d="M904.2,204.1c-0.5-1.8,0.8-3.1,1.1-4.7c0.7-3.5-0.6-6.3-3.4-8.2c-1.8-1.2-4.2-2.4-4.2,1.7c0,1.9-0.9,3.2-2.8,3.6
			c-1.7,0.3-2.9-0.6-3.5-2.1c-0.8-1.8-0.1-3.2,1.2-4.5c3.2-3.1,10.6-2.6,13.5,1C909.4,194.9,908.5,201.1,904.2,204.1z"/>
		<path d="M920.1,203c-3.9-3.8-4-8.9-0.4-12.6c2.9-3,9.9-3.5,12.8-0.9c1.5,1.4,2,3.1,1.3,5c-0.5,1.4-1.7,2.1-3.1,1.9
			c-2-0.3-2.7-1.7-2.7-3.6c0-4.1-2.3-2.9-4.2-1.7c-2.4,1.4-3.6,3.7-3.7,6.6C919.9,199.5,921,201.2,920.1,203z"/>
	</g>
</g>
<g id="Layer_2">
	<text transform="matrix(1 0 0 1 761.1827 283.0676)" class="st0 st1">PARIMIS</text>
</g>
<g id="Layer_3">
	<polygon points="913.7,291.1 918.2,300.2 928.3,301.7 921,308.8 922.7,318.8 913.7,314.1 904.8,318.8 906.5,308.8 899.2,301.7 
		909.2,300.2 	"/>
	<polygon points="883.4,293.7 887.1,301.1 895.2,302.3 889.3,308.1 890.7,316.2 883.4,312.4 876.1,316.2 877.5,308.1 871.5,302.3 
		879.7,301.1 	"/>
	<polygon points="857.3,296.6 860,302.1 866,303 861.7,307.3 862.7,313.3 857.3,310.5 851.9,313.3 852.9,307.3 848.5,303 
		854.6,302.1 	"/>
	<polygon points="858.3,296.6 861,302.1 867,303 862.7,307.3 863.7,313.3 858.3,310.5 852.9,313.3 853.9,307.3 849.5,303 
		855.6,302.1 	"/>
	<polygon points="944.8,293.7 941.2,301.1 933,302.3 938.9,308.1 937.5,316.2 944.8,312.4 952.2,316.2 950.8,308.1 956.7,302.3 
		948.5,301.1 	"/>
	<polygon points="969,296.6 966.2,302.1 960.2,303 964.6,307.3 963.5,313.3 969,310.5 974.4,313.3 973.3,307.3 977.7,303 
		971.7,302.1 	"/>
	<polygon points="970,296.6 967.2,302.1 961.2,303 965.6,307.3 964.5,313.3 970,310.5 975.4,313.3 974.3,307.3 978.7,303 
		972.7,302.1 	"/>
</g>
</svg>
