<?xml version="1.0" standalone="no"?>
<!DOCTYPE svg PUBLIC "-//W3C//DTD SVG 20010904//EN"
 "http://www.w3.org/TR/2001/REC-SVG-20010904/DTD/svg10.dtd">
<svg version="1.0" xmlns="http://www.w3.org/2000/svg"
 width="500.000000pt" height="500.000000pt" viewBox="0 0 500.000000 500.000000"
 preserveAspectRatio="xMidYMid meet">
<metadata>
Created by potrace 1.11, written by Peter Selinger 2001-2013
</metadata>
<g transform="translate(0.000000,500.000000) scale(0.100000,-0.100000)"
fill="#000000" stroke="none">
<path d="M2500 4697 c0 -81 -19 -166 -51 -229 -28 -54 -122 -153 -176 -185
-87 -51 -116 -118 -70 -160 12 -12 47 -32 78 -46 111 -49 161 -118 214 -292
15 -50 30 -94 33 -100 4 -5 12 33 19 85 25 189 57 242 186 306 105 53 137 79
137 114 0 25 -14 41 -82 97 -149 124 -210 238 -212 400 l-1 83 -37 0 -38 0 0
-73z"/>
<path d="M2191 3997 c-37 -19 -63 -60 -68 -110 -4 -37 -1 -54 20 -89 14 -24
37 -54 51 -67 14 -14 26 -28 26 -33 0 -4 -34 -8 -75 -8 -91 0 -131 -17 -151
-65 -24 -57 -18 -100 16 -129 36 -30 90 -42 119 -27 12 7 32 34 46 61 29 56
49 63 83 27 44 -47 24 -105 -66 -188 -115 -107 -184 -144 -427 -229 -313 -110
-441 -176 -540 -282 -112 -118 -155 -242 -155 -453 0 -181 22 -246 155 -460
34 -55 65 -105 68 -111 5 -8 -5 -9 -36 -2 -23 5 -197 12 -387 16 -387 9 -403
11 -408 70 -2 20 5 47 17 68 29 48 26 80 -8 115 -64 63 -171 6 -171 -91 0
-106 168 -258 304 -274 69 -8 100 -22 92 -42 -3 -8 -23 -38 -45 -67 -52 -69
-105 -177 -125 -253 -20 -76 -21 -221 -2 -292 71 -265 354 -553 560 -569 56
-5 64 -3 94 22 62 52 82 127 39 145 -12 5 -58 23 -102 39 -232 88 -387 245
-426 430 -16 76 -6 193 21 266 30 79 154 204 250 253 156 78 357 40 477 -92
74 -80 98 -135 98 -221 0 -56 -6 -82 -29 -133 -30 -65 -74 -112 -106 -112 -10
0 -34 19 -54 42 -69 81 -95 104 -146 132 -56 30 -139 38 -179 17 -34 -19 -61
-71 -61 -119 0 -36 6 -49 41 -87 63 -68 148 -121 207 -129 61 -8 111 -40 135
-86 15 -28 17 -49 13 -105 -17 -220 -168 -400 -357 -422 -102 -12 -122 -92
-30 -124 36 -13 46 -8 209 91 57 35 223 118 368 186 266 123 288 135 514 275
156 96 176 127 119 187 -28 31 -47 28 -125 -20 -108 -65 -355 -183 -448 -213
-145 -47 -190 -22 -191 109 0 64 4 81 39 151 47 96 145 199 226 238 159 76
717 127 1079 98 324 -26 483 -57 600 -116 134 -67 238 -192 247 -297 5 -61
-29 -174 -59 -192 -37 -23 -407 125 -592 238 -33 20 -68 36 -77 36 -24 0 -58
-39 -58 -68 0 -89 439 -342 708 -407 83 -20 196 -90 366 -227 88 -71 103 -79
130 -74 34 7 76 48 76 75 0 32 -24 48 -90 61 -172 32 -294 155 -323 327 -13
74 -3 126 41 212 30 59 59 79 156 107 114 34 186 107 186 191 0 23 -3 49 -6
58 -11 27 -66 48 -129 49 -79 0 -127 -25 -214 -114 -110 -113 -147 -112 -206
5 -26 53 -30 70 -30 145 0 72 4 93 27 141 129 261 491 295 694 65 93 -106 136
-246 114 -375 -32 -191 -165 -346 -388 -452 -59 -28 -113 -58 -119 -67 -30
-38 -3 -122 52 -158 43 -28 120 -15 228 39 193 96 326 254 398 472 26 82 31
225 10 315 -20 83 -83 207 -145 284 -31 39 -53 73 -49 77 5 3 49 14 98 23 207
40 325 137 325 267 0 48 -5 63 -27 89 -24 29 -31 32 -70 27 -86 -9 -115 -70
-73 -152 27 -53 26 -91 -4 -110 -34 -22 -204 -34 -542 -37 l-290 -3 43 67 c24
37 55 98 69 135 14 37 43 103 64 147 54 112 74 199 73 326 0 81 -5 120 -22
170 -47 138 -137 253 -263 336 -93 62 -275 143 -423 189 -251 78 -372 142
-474 251 -84 89 -92 137 -29 170 38 20 54 13 72 -30 20 -49 68 -71 131 -62 65
10 95 41 95 98 0 72 -50 118 -128 118 -62 0 -68 18 -33 89 32 62 39 117 21
152 -29 53 -148 76 -207 40 -38 -24 -91 -127 -130 -256 -23 -77 -27 -109 -27
-220 -1 -144 3 -157 75 -248 63 -80 84 -132 84 -212 0 -84 -26 -146 -101 -243
-27 -35 -59 -79 -71 -99 l-21 -36 -30 59 c-38 75 -72 121 -155 212 -37 39 -67
77 -67 83 0 21 24 55 81 116 117 126 157 273 125 466 -25 157 -68 284 -113
336 -55 64 -118 86 -172 58z m640 -849 c68 -40 171 -86 382 -173 65 -26 146
-66 179 -87 77 -50 77 -76 3 -128 -27 -19 -81 -65 -120 -101 -112 -106 -134
-103 -189 26 -52 124 -124 224 -263 360 -114 112 -153 166 -153 211 0 11 14 3
48 -26 26 -23 77 -60 113 -82z m-566 48 c-38 -57 -83 -111 -191 -228 -81 -87
-134 -160 -172 -234 -27 -54 -38 -85 -56 -167 l-7 -29 -74 71 c-93 88 -176
132 -263 139 l-63 5 38 39 c88 91 184 144 428 238 186 71 265 113 337 179 29
27 55 48 56 46 2 -2 -13 -29 -33 -59z m630 -361 c46 -51 113 -184 136 -271 38
-146 0 -302 -112 -464 -47 -68 -133 -160 -149 -160 -35 0 -135 146 -171 250
-34 99 -38 261 -10 365 36 130 109 245 191 297 52 33 73 30 115 -17z m-659
-44 c60 -61 118 -148 144 -219 19 -50 21 -70 17 -162 -6 -121 -31 -219 -86
-335 -34 -73 -86 -135 -112 -135 -47 0 -136 94 -184 195 -48 101 -68 193 -69
310 -1 155 39 280 115 356 61 61 108 59 175 -10z m1274 -198 c69 -109 91 -236
56 -332 -30 -81 -137 -266 -176 -303 -71 -68 -144 -44 -169 56 -21 84 -33 279
-22 342 22 119 77 196 181 253 77 43 94 41 130 -16z m-1874 -2 c37 -29 95
-106 125 -167 20 -42 24 -63 24 -149 -1 -92 -4 -111 -46 -235 l-45 -135 -34 0
c-31 0 -40 8 -115 107 -137 180 -176 286 -155 417 16 105 41 158 82 176 47 22
128 14 164 -14z m721 -834 c16 -9 51 -34 78 -56 62 -52 91 -53 155 -6 66 48
110 65 172 65 70 -1 121 -25 185 -88 45 -45 56 -52 92 -52 23 0 59 10 87 25
37 19 62 25 113 25 93 0 115 -14 119 -71 3 -53 -22 -94 -64 -102 -15 -2 -167
13 -338 35 -375 47 -468 50 -686 20 -91 -12 -257 -26 -370 -32 -231 -10 -235
-9 -247 63 -7 46 13 72 67 88 33 10 46 8 106 -16 106 -42 183 -26 289 60 62
51 102 66 161 61 29 -2 65 -11 81 -19z"/>
<path d="M1953 1221 c-103 -27 -161 -100 -149 -186 10 -66 43 -100 96 -99 65
2 94 29 102 98 13 99 33 114 113 77 56 -25 111 -90 129 -152 21 -68 20 -84 -4
-161 -11 -34 -20 -76 -20 -92 l0 -30 30 29 c17 16 43 54 58 85 37 76 39 199 3
278 -28 61 -92 123 -148 141 -49 15 -169 23 -210 12z"/>
<path d="M2835 1197 c-90 -30 -160 -90 -193 -166 -19 -46 -19 -146 1 -191 23
-51 76 -122 87 -115 13 8 13 65 -1 117 -10 37 -8 51 10 98 24 65 69 122 121
155 85 54 114 41 125 -56 9 -73 33 -104 89 -114 53 -10 81 12 103 81 l17 57
-25 46 c-38 67 -95 94 -208 98 -52 2 -102 -2 -126 -10z"/>
</g>
</svg>
