<?xml version="1.0" standalone="no"?>
<!DOCTYPE svg PUBLIC "-//W3C//DTD SVG 20010904//EN"
 "http://www.w3.org/TR/2001/REC-SVG-20010904/DTD/svg10.dtd">
<svg version="1.0" xmlns="http://www.w3.org/2000/svg"
 width="500.000000pt" height="500.000000pt" viewBox="0 0 500.000000 500.000000"
 preserveAspectRatio="xMidYMid meet">
<metadata>
Created by potrace 1.11, written by Peter Selinger 2001-2013
</metadata>
<g transform="translate(0.000000,500.000000) scale(0.100000,-0.100000)"
fill="#000000" stroke="none">
<path d="M2514 4663 c-19 -4 -22 -12 -26 -86 -7 -112 -36 -183 -105 -258 -31
-33 -75 -71 -99 -85 -78 -46 -96 -104 -44 -147 16 -14 43 -28 59 -32 40 -9
107 -69 133 -119 12 -22 36 -84 53 -136 l32 -95 7 50 c27 197 53 244 170 301
138 70 150 106 58 177 -141 109 -202 226 -202 388 0 27 -3 48 -7 48 -5 -1 -18
-4 -29 -6z"/>
<path d="M2194 3966 c-30 -30 -34 -41 -34 -83 0 -39 6 -59 29 -91 16 -22 34
-43 40 -47 6 -3 11 -12 11 -18 0 -8 -18 -11 -57 -9 -95 6 -137 -23 -150 -101
-4 -29 -1 -40 20 -61 56 -56 116 -47 152 24 14 28 29 50 34 50 4 0 20 -12 36
-26 22 -21 26 -31 21 -56 -9 -43 -46 -90 -119 -148 -80 -63 -168 -105 -352
-170 -229 -79 -363 -148 -438 -223 -114 -115 -151 -225 -145 -436 3 -131 5
-139 39 -211 19 -41 63 -119 98 -174 l62 -98 -33 6 c-18 4 -173 10 -344 14
-270 7 -315 10 -338 25 -31 21 -33 40 -6 92 25 49 25 66 -1 99 -29 37 -86 36
-121 -1 -53 -57 -43 -116 33 -198 50 -54 153 -115 196 -115 29 0 93 -18 93
-26 0 -2 -20 -31 -45 -65 -56 -76 -101 -169 -116 -239 -6 -29 -9 -97 -7 -151
4 -94 5 -101 55 -201 86 -170 196 -286 338 -354 96 -47 154 -47 200 -1 62 62
54 118 -19 132 -17 4 -72 27 -123 51 -125 62 -210 140 -260 242 -37 74 -38 79
-38 186 0 97 3 117 24 161 52 106 207 224 317 241 111 16 250 -38 323 -126 62
-74 85 -133 79 -199 -6 -61 -53 -158 -90 -185 -25 -18 -28 -18 -52 -2 -15 9
-38 34 -52 56 -39 59 -114 103 -185 108 -56 4 -60 3 -94 -31 -29 -29 -35 -42
-35 -78 0 -40 5 -48 57 -97 60 -57 119 -92 155 -92 13 0 42 -9 65 -19 58 -27
77 -66 70 -150 -13 -181 -129 -332 -275 -361 -75 -15 -106 -31 -110 -57 -4
-30 32 -63 68 -63 18 0 56 17 97 43 106 68 183 108 393 205 200 92 245 116
410 216 139 85 160 102 160 135 0 32 -33 71 -59 71 -10 0 -29 -8 -42 -19 -36
-27 -222 -125 -319 -166 -219 -94 -280 -75 -268 79 12 145 150 302 300 342
198 51 538 79 801 64 414 -23 580 -66 705 -183 61 -59 97 -115 107 -169 9 -50
-27 -174 -53 -183 -33 -10 -252 74 -421 161 -157 81 -165 84 -187 69 -76 -49
31 -152 302 -290 100 -51 164 -76 281 -110 92 -27 195 -90 328 -200 83 -69
112 -78 153 -49 18 12 22 24 20 52 -3 36 -4 36 -65 49 -125 25 -209 89 -260
198 -38 82 -38 175 -1 257 30 64 47 78 138 108 84 28 124 53 149 94 21 33 28
109 13 132 -27 41 -133 50 -197 17 -22 -12 -70 -51 -107 -87 -94 -92 -126 -89
-173 16 -71 157 -1 329 164 407 77 36 207 37 296 1 117 -46 221 -178 246 -313
34 -188 -97 -397 -317 -503 -145 -70 -162 -90 -129 -154 36 -70 94 -85 189
-49 132 49 259 158 336 288 108 183 120 370 34 547 -19 39 -57 99 -85 133 -32
40 -45 63 -37 66 7 2 54 13 105 24 102 22 136 37 188 83 69 60 93 145 60 208
-25 48 -93 52 -135 10 -26 -26 -25 -53 1 -107 27 -56 20 -87 -23 -103 -19 -7
-114 -13 -223 -16 -104 -2 -256 -6 -338 -8 l-148 -4 21 32 c43 64 159 321 181
401 23 81 17 257 -10 327 -79 203 -246 324 -610 444 -205 68 -286 110 -378
197 -86 82 -100 118 -59 154 36 31 52 29 71 -6 21 -41 53 -61 98 -61 99 0 142
81 79 151 -23 25 -37 32 -76 34 -27 2 -53 8 -58 13 -5 5 3 34 22 73 16 35 30
73 30 84 0 51 -62 95 -134 95 -65 0 -104 -42 -145 -156 -82 -226 -80 -383 5
-485 51 -62 76 -115 81 -180 5 -49 1 -66 -24 -121 -16 -35 -53 -92 -81 -127
-29 -35 -52 -70 -52 -78 0 -28 -16 -11 -48 52 -19 35 -67 100 -108 145 -41 44
-74 89 -74 100 0 11 27 49 59 85 137 151 162 307 88 562 -33 113 -69 170 -120
194 -60 27 -84 24 -123 -15z m590 -725 c31 -19 121 -60 199 -93 267 -110 337
-149 337 -189 0 -12 -18 -32 -47 -52 -27 -17 -74 -58 -107 -90 -94 -92 -125
-87 -166 26 -33 90 -111 198 -223 307 -93 89 -124 131 -142 190 -7 21 -1 18
42 -20 28 -25 76 -60 107 -79z m-507 37 c-20 -29 -75 -96 -123 -148 -48 -52
-104 -118 -125 -145 -47 -63 -99 -172 -106 -225 -3 -22 -8 -40 -10 -40 -3 0
-35 27 -71 60 -78 71 -146 107 -219 116 -46 6 -51 9 -43 24 13 24 123 106 184
137 27 14 108 47 179 74 160 61 270 118 322 167 22 21 42 37 44 35 2 -2 -12
-27 -32 -55z m546 -298 c43 -38 112 -174 134 -264 16 -65 16 -75 0 -150 -21
-104 -71 -204 -144 -290 -83 -99 -86 -100 -135 -46 -137 153 -169 411 -73 600
35 68 98 144 136 163 44 22 43 22 82 -13z m-597 -19 c42 -26 130 -145 155
-211 43 -111 11 -316 -74 -475 -54 -102 -105 -105 -181 -12 -90 111 -140 298
-118 447 14 102 53 190 103 235 44 40 70 43 115 16z m1153 -213 c48 -85 66
-166 53 -234 -15 -71 -124 -275 -169 -315 -41 -36 -81 -38 -112 -5 -28 30 -38
67 -51 196 -20 201 30 319 165 388 64 33 79 29 114 -30z m-1643 7 c41 -31 103
-125 121 -184 20 -65 11 -157 -27 -276 -58 -181 -69 -184 -174 -45 -89 118
-111 158 -132 241 -17 66 -14 120 12 200 17 54 40 78 86 89 44 11 76 4 114
-25z m619 -724 c22 -10 60 -34 83 -55 24 -20 52 -36 62 -36 10 0 41 16 69 35
67 46 96 57 153 56 57 0 110 -26 163 -80 32 -34 46 -41 77 -41 21 0 52 9 70
20 37 22 154 28 189 10 29 -16 26 -84 -6 -115 -29 -30 -49 -30 -195 -10 -58 9
-203 26 -322 40 -201 22 -223 23 -300 10 -186 -32 -587 -60 -619 -44 -9 5 -22
23 -28 41 -10 28 -9 36 7 58 30 40 80 47 141 22 90 -39 161 -24 258 54 71 58
127 68 198 35z"/>
<path d="M2006 1560 c-101 -26 -147 -106 -115 -199 12 -35 35 -51 73 -51 62 0
96 41 96 114 0 56 33 70 93 40 104 -53 145 -156 108 -274 -35 -109 -25 -130
29 -57 65 89 75 208 26 305 -29 57 -59 86 -109 107 -48 20 -150 27 -201 15z"/>
<path d="M2762 1531 c-107 -37 -168 -129 -160 -240 3 -48 11 -70 43 -117 36
-55 39 -57 48 -36 7 16 7 39 -2 74 -10 45 -9 59 6 101 22 60 73 121 124 147
68 35 79 28 90 -60 9 -66 41 -100 93 -100 47 0 86 55 86 122 0 40 -61 102
-115 117 -59 16 -153 13 -213 -8z"/>
</g>
</svg>
