<?xml version="1.0" encoding="utf-8"?>
<!-- Generator: Adobe Illustrator 19.0.0, SVG Export Plug-In . SVG Version: 6.00 Build 0)  -->
<svg version="1.1" xmlns="http://www.w3.org/2000/svg" xmlns:xlink="http://www.w3.org/1999/xlink" x="0px" y="0px"
	 viewBox="0 0 1280 800" style="enable-background:new 0 0 1280 800;" xml:space="preserve">
<style type="text/css">
	.st0{fill:#A07141;}
	.st1{font-family:'Georgia';}
	.st2{font-size:70px;}
</style>
<g id="Layer_1">
	<g>
		<path class="st0" d="M580,83c-0.9,6.8,1.4,11.5,7.4,15.5c3.8,2.5,2.9,5.1-1.3,6.7c-4.8,1.8-5.5,6.3-7.5,11.2
			c-1.8-5.8-3.4-10.7-9.2-12c-1.2-0.3-1.6-1.7-1.2-2.9c0.3-0.9,0.6-2.2,1.3-2.6c6.2-3.5,8.6-8.9,8.5-15.8C578.7,83,579.3,83,580,83z
			"/>
		<path class="st0" d="M616.3,174.4c7.8-1.1,14.6-0.1,21.4-0.6c2.4-0.2,7.1,0.4,3.7-4.9c-1.1-1.7,0.1-3.3,2.1-3.7
			c2-0.3,3.2,1,3.3,2.9c0.2,3.2-1.5,5.3-4,7c-2.5,1.7-5.6,1.7-9.1,2.5c5.2,5.7,8.1,11.6,6.3,18.9c-2.1,8.4-7.2,14.1-15.1,17.3
			c-2.7,1.1-5.1,0.7-6.2-2.1c-1.3-3.4,1.8-3.3,3.6-4c11.9-4.6,16.3-16.8,9-25.5c-5.8-6.9-16.8-6.3-20.9,1c-1.6,2.8-1.8,5.7-0.7,8.7
			c1.5,4.1,3.5,4.5,6.4,1.3c0.5-0.5,0.9-1,1.4-1.4c2.2-2,4.6-2.6,7.4-1.6c1.4,0.5,2,1.7,1.9,3.2c-0.3,2.8-2.2,4.4-4.6,5.4
			c-3.2,1.4-7.9,0.7-7.2,6.7c0.6,5.5,3.2,10.6,7.9,12.3c4.8,1.7,9.5,1.7,13.6-2c2.1-1.8,3.1-4.3,4.2-6.7c2.4-5.1,6.4-8.2,11.6-10.4
			c4.4-1.9,6.2-0.5,6.6,3.8c0.1,0.8,0.2,1.6,0.4,3c3.6-3.1,6.5-6.5,11.1-7.5c4.6-1,5.7-0.4,4.9,4.2c-0.5,3,0.6,3.5,3.1,3.4
			c4-0.2,7.7,0.5,9.9,4.4c1.1,1.9,1.2,4-0.9,5.3c-2,1.2-3.4,0-4.5-1.8c-3.2-4.9-6.8-6-12.6-3.7c-4.6,1.8-8.2,5-11.9,8.2
			c-12.7,11.1-30.4,10.6-42.3-1.3c-1.5-1.5-3.3-2.2-5.3-2.6c-7.2-1.4-13.4-4.9-19.4-8.8c-0.7-0.4-1.3-1-1.9-1.6c-1-1-1.8-2.2-1-3.5
			c1-1.7,2.4-0.6,3.5,0.1c4.5,2.6,9,5,14,6.4c1.8,0.5,4.4,2.1,5.4-0.3c1-2.5,1.7-5.2-0.4-8.4c-5.3-8.1-13.7-8.1-21.6-8.8
			c-11.3-1-22.6-0.6-33.8,1.8c-4.5,1-10.3,7.8-10.4,12c-0.1,3.8,1.3,5.3,5.1,4.1c5-1.5,9.6-3.7,14.1-6.3c1.4-0.8,3.2-3,4.7-0.6
			c1.6,2.4-0.9,3.5-2.5,4.6c-2.5,1.6-5.1,3.2-7.7,4.6c-8.1,4.2-16.7,7.2-24.5,12.5c-10.3,7-22.3,5.2-32.9-2.1
			c-4.6-3.2-8.5-7.5-13.8-9.8c-6.1-2.6-9.5-1.7-13.3,3.8c-1.1,1.6-2.4,2.4-4.2,1.5c-1.7-0.8-2.3-2.5-1.6-4.2c1.5-4.3,5-5.6,9.1-5.5
			c3.1,0,6.1,0.6,4.5-4.5c-1-3.1,1-4.1,4-3.3c4.1,1,7.2,3,12,8.3c0.2-0.2,0.6-0.4,0.6-0.6c0.5-8.8,1.4-9.3,9.4-5.4
			c4.7,2.2,7.3,6.2,9.3,10.7c3,6.7,7.9,9.2,14.8,8c5.6-1,9.7-6.2,10.1-12.7c0.2-3.3-0.3-5.9-4.5-6.2c-1.5-0.1-3.2-1.1-4.5-2.1
			c-2-1.6-4-3.6-2.1-6.3c1.7-2.4,4.5-2,6.8-0.7c1.3,0.7,2.6,1.7,3.4,2.9c2.6,4,4.4,1.6,5.7-0.9c2.2-3.9,1.5-7.8-1.4-11.1
			c-3.1-3.7-10.1-5.3-14.2-3.4c-5.4,2.5-9,6.7-9.2,12.7c-0.2,6.5,3.3,11.4,8.6,14.9c1.5,1,3.3,1.5,5,2.3c1.5,0.7,4.1,0.7,2.9,3.5
			c-1.1,2.4-2.7,3.5-5.6,2.7c-8.1-2.1-15.8-11.7-16.4-20.2c-0.5-6.3,2.2-11.3,6.1-16.1c-1.8-1.5-4-0.8-5.8-1.6
			c-3.2-1.4-5.7-3.5-6.7-6.9c-0.5-1.6,0.2-3,1.6-3.9c1.1-0.7,2.2-0.7,3.3,0.1c1.2,1,1.4,2.3,0.7,3.6c-2.6,4.5,1.3,4.3,3.6,4.5
			c6.9,0.7,13.9-0.8,21.6,1c-3.4-5.6-7.3-10.1-7.4-16.3c-0.3-10.2,3.3-16.4,12.6-20.5c4.3-1.9,8.7-3.3,13.2-4.8
			c4.2-1.4,7.8-3.7,10.7-7.1c1.3-1.5,1.7-2.9,0-4.3c-2-1.7-2,0.6-2.6,1.5c-1,1.4-2.3,1.9-3.9,1.1c-1.4-0.6-1.8-1.9-1.7-3.3
			c0.2-1.7,1.1-2.8,2.8-3.1c1.5-0.2,3,0,4.5,0c0-0.2,0-0.6-0.1-0.8c-2-1.9-3.8-3.9-2.6-6.9c0.5-1.3,1.7-2.2,3.1-2.1
			c3.2,0,4.8,2.5,5.6,5c2.6,8,4,16-2.9,22.8c-1.6,1.6-1.8,3,0,4.6c2.4,2.3,4.7,4.7,6.1,8.8c0.7-1.1,0.9-1.6,1.2-1.9
			c4.4-5.4,7.9-10.1,1.6-17.3c-3.6-4.2-1.6-10.9,0.5-16.4c1.2-3.2,3.1-6.8,7.1-5c4.2,1.8,1.6,5.3,0.5,8.1c0.8,1.6,2.4,0.8,3.6,1.3
			c1.5,0.6,2.6,1.6,2.7,3.3c0.1,1.5-0.7,2.5-2.1,3.1c-1.6,0.7-2.9,0.2-4-1.1c-0.7-0.8-0.5-3.2-2.6-1.6c-1.6,1.3-1.4,2.8-0.1,4.3
			c3.5,4.1,8.2,6.2,13.1,7.9c3.8,1.3,7.7,2.4,11.3,4.1c12.6,5.8,16.3,17.9,9.3,30C619.4,169.9,618.1,171.7,616.3,174.4z
			 M595.9,153.8c-0.2-4.5-1.9-7.8-4.3-10.9c-1.7-2.3-2.9-1.9-4.8-0.2c-7,6.6-7.5,18.3-1,25.9c1.3,1.6,2.3,1.7,3.5,0.1
			C592.7,164.1,595.5,159.2,595.9,153.8z M576,153.1c0.1-3.2-2.1-6.6-5.1-9.7c-2.4-2.5-4.1-2-6.1,0.5c-5.1,6.6-3.4,19.4,3.2,24.6
			c1.9,1.5,3,0.8,4-0.9C574.5,163.5,575.9,159.1,576,153.1z M578.6,180.7c7.6,0.8,15,1.6,22.4,2.5c2.2,0.3,3.7-0.1,4-2.5
			c0.3-2.9-2-2.6-3.7-2.7c-1.1,0-2.5,0.1-3.4,0.7c-2.4,1.6-4,1.1-5.9-1c-3.2-3.5-7.2-3.6-10.7-0.6c-2.2,1.8-3.3,1.6-5.3-0.2
			c-2.6-2.3-6.2-3-8.7-0.7c-3.3,3-6.2,4.2-10.3,2c-1.2-0.6-3-0.3-4.1,1c-0.7,0.9-0.5,1.9,0,2.8c0.9,1.8,2.5,1.2,4,1
			C564.1,182.3,571.4,181.5,578.6,180.7z M545,156.3c0.2,6,3.8,10,7.2,14c0.9,1.1,2.2,1.2,2.7-0.4c1.6-5.2,4.2-10.3,1.5-15.8
			c-1.5-3-3.8-6.5-7.2-5.8C545.5,149,545.5,153.2,545,156.3z M600,160c0.6,3.4,0,9.5,3.6,10.4c3.4,0.8,5.4-5,7.3-8.4
			c2.6-4.6,1.5-8.9-1.2-13.1c-0.9-1.4-2.2-1.2-3.5-0.5C601.9,150.8,600,154.6,600,160z M573.4,128.2c-6.8,8.9-19.8,7.4-27,16.4
			c5.8-0.8,8.6,3.2,12.4,6.4C560.2,140.9,569.8,136.7,573.4,128.2z M584,128.2c0.4,3.1,1.9,5.1,4.1,6.8c3.1,2.3,5.5,5.3,7.5,8.6
			c1.2,1.9,1.6,5.3,3.2,5.9c2.3,0.9,3.8-2.5,5.9-3.7c5.2-3,5.1-3.8-0.2-6.5C597.5,135.9,589.5,134.4,584,128.2z"/>
		<path class="st0" d="M689.3,312.1c-10.7,0-21.3,0-32-0.1c-1.6,0-4.4,0.9-4.4-1.7c0-2.1,2.6-1.5,4.2-1.5c21.7-0.1,43.3,0,65,0
			c0.7,0,1.3,0,2,0.1c1,0.1,2.3,0.2,2.3,1.4c0.1,1.6-1.4,1.6-2.5,1.7c-1.7,0.1-3.3,0.1-5,0.1C708.9,312.1,699.1,312.1,689.3,312.1z"
			/>
		<path class="st0" d="M467.5,312.1c-10.8,0-21.6,0-32.4,0c-1.5,0-4.1,0.6-4.1-1.6c0-2.2,2.5-1.6,4-1.6c21.8-0.1,43.6,0,65.4,0
			c1.5,0,3.9-0.6,3.8,1.8c-0.1,1.8-2.4,1.4-3.8,1.4C489.4,312.1,478.4,312,467.5,312.1z"/>
		<path class="st0" d="M570.2,208.1c-0.5-1.8,0.8-3.1,1.1-4.7c0.7-3.5-0.6-6.3-3.4-8.2c-1.8-1.2-4.2-2.4-4.2,1.7
			c0,1.9-0.9,3.2-2.8,3.6c-1.7,0.3-2.9-0.6-3.5-2.1c-0.8-1.8-0.1-3.2,1.2-4.5c3.2-3.1,10.6-2.6,13.5,1
			C575.4,198.9,574.5,205.1,570.2,208.1z"/>
		<path class="st0" d="M586.1,207c-3.9-3.8-4-8.9-0.4-12.6c2.9-3,9.9-3.5,12.8-0.9c1.5,1.4,2,3.1,1.3,5c-0.5,1.4-1.7,2.1-3.1,1.9
			c-2-0.3-2.7-1.7-2.7-3.6c0-4.1-2.3-2.9-4.2-1.7c-2.4,1.4-3.6,3.7-3.7,6.6C585.9,203.5,587,205.2,586.1,207z"/>
	</g>
</g>
<g id="Layer_2">
	<text transform="matrix(1 0 0 1 427.1827 287.0676)" class="st0 st1 st2">PARIMIS</text>
</g>
<g id="Layer_3">
	<polygon class="st0" points="579.7,295.1 584.2,304.2 594.3,305.7 587,312.8 588.7,322.8 579.7,318.1 570.8,322.8 572.5,312.8 
		565.2,305.7 575.2,304.2 	"/>
	<polygon class="st0" points="549.4,297.7 553.1,305.1 561.2,306.3 555.3,312.1 556.7,320.2 549.4,316.4 542.1,320.2 543.5,312.1 
		537.5,306.3 545.7,305.1 	"/>
	<polygon class="st0" points="523.3,300.6 526,306.1 532,307 527.7,311.3 528.7,317.3 523.3,314.5 517.9,317.3 518.9,311.3 
		514.5,307 520.6,306.1 	"/>
	<polygon class="st0" points="524.3,300.6 527,306.1 533,307 528.7,311.3 529.7,317.3 524.3,314.5 518.9,317.3 519.9,311.3 
		515.5,307 521.6,306.1 	"/>
	<polygon class="st0" points="610.8,297.7 607.2,305.1 599,306.3 604.9,312.1 603.5,320.2 610.8,316.4 618.2,320.2 616.8,312.1 
		622.7,306.3 614.5,305.1 	"/>
	<polygon class="st0" points="635,300.6 632.2,306.1 626.2,307 630.6,311.3 629.5,317.3 635,314.5 640.4,317.3 639.3,311.3 
		643.7,307 637.7,306.1 	"/>
	<polygon class="st0" points="636,300.6 633.2,306.1 627.2,307 631.6,311.3 630.5,317.3 636,314.5 641.4,317.3 640.3,311.3 
		644.7,307 638.7,306.1 	"/>
</g>
</svg>
