<?xml version="1.0" encoding="utf-8"?>
<!-- Generator: Adobe Illustrator 19.0.0, SVG Export Plug-In . SVG Version: 6.00 Build 0)  -->
<svg version="1.1" id="Layer_1" xmlns="http://www.w3.org/2000/svg" xmlns:xlink="http://www.w3.org/1999/xlink" x="0px" y="0px"
	 viewBox="-594 363 90 75" style="enable-background:new -594 363 90 75;" xml:space="preserve">
<style type="text/css">
	.st0{fill:#FFFFFF;}
	.st1{font-family:'Georgia';}
	.st2{font-size:18.3847px;}
</style>
<g id="Layer_1_1_">
	<g id="XMLID_31_">
		<path id="XMLID_21_" class="st0" d="M-548.2,368.7c-0.2,1.8,0.4,3,1.9,4.1c1,0.7,0.8,1.3-0.3,1.8c-1.3,0.5-1.4,1.7-2,2.9
			c-0.5-1.5-0.9-2.8-2.4-3.2c-0.3-0.1-0.4-0.4-0.3-0.8c0.1-0.2,0.2-0.6,0.3-0.7c1.6-0.9,2.3-2.3,2.2-4.1
			C-548.5,368.7-548.3,368.7-548.2,368.7z"/>
		<path id="XMLID_36_" class="st0" d="M-538.6,392.7c2-0.3,3.8,0,5.6-0.2c0.6-0.1,1.9,0.1,1-1.3c-0.3-0.4,0-0.9,0.6-1
			c0.5-0.1,0.8,0.3,0.9,0.8c0.1,0.8-0.4,1.4-1.1,1.8c-0.7,0.4-1.5,0.4-2.4,0.7c1.4,1.5,2.1,3,1.7,5c-0.6,2.2-1.9,3.7-4,4.5
			c-0.7,0.3-1.3,0.2-1.6-0.6c-0.3-0.9,0.5-0.9,0.9-1.1c3.1-1.2,4.3-4.4,2.4-6.7c-1.5-1.8-4.4-1.7-5.5,0.3c-0.4,0.7-0.5,1.5-0.2,2.3
			c0.4,1.1,0.9,1.2,1.7,0.3c0.1-0.1,0.2-0.3,0.4-0.4c0.6-0.5,1.2-0.7,1.9-0.4c0.4,0.1,0.5,0.4,0.5,0.8c-0.1,0.7-0.6,1.2-1.2,1.4
			c-0.8,0.4-2.1,0.2-1.9,1.8c0.2,1.4,0.8,2.8,2.1,3.2s2.5,0.4,3.6-0.5c0.6-0.5,0.8-1.1,1.1-1.8c0.6-1.3,1.7-2.2,3-2.7
			c1.2-0.5,1.6-0.1,1.7,1c0,0.2,0.1,0.4,0.1,0.8c0.9-0.8,1.7-1.7,2.9-2c1.2-0.3,1.5-0.1,1.3,1.1c-0.1,0.8,0.2,0.9,0.8,0.9
			c1.1-0.1,2,0.1,2.6,1.2c0.3,0.5,0.3,1.1-0.2,1.4c-0.5,0.3-0.9,0-1.2-0.5c-0.8-1.3-1.8-1.6-3.3-1c-1.2,0.5-2.2,1.3-3.1,2.2
			c-3.3,2.9-8,2.8-11.1-0.3c-0.4-0.4-0.9-0.6-1.4-0.7c-1.9-0.4-3.5-1.3-5.1-2.3c-0.2-0.1-0.3-0.3-0.5-0.4c-0.3-0.3-0.5-0.6-0.3-0.9
			c0.3-0.4,0.6-0.2,0.9,0c1.2,0.7,2.4,1.3,3.7,1.7c0.5,0.1,1.2,0.6,1.4-0.1c0.3-0.7,0.4-1.4-0.1-2.2c-1.4-2.1-3.6-2.1-5.7-2.3
			c-3-0.3-5.9-0.2-8.9,0.5c-1.2,0.3-2.7,2-2.7,3.2c0,1,0.3,1.4,1.3,1.1c1.3-0.4,2.5-1,3.7-1.7c0.4-0.2,0.8-0.8,1.2-0.2
			s-0.2,0.9-0.7,1.2c-0.7,0.4-1.3,0.8-2,1.2c-2.1,1.1-4.4,1.9-6.4,3.3c-2.7,1.8-5.9,1.4-8.6-0.6c-1.2-0.8-2.2-2-3.6-2.6
			c-1.6-0.7-2.5-0.4-3.5,1c-0.3,0.4-0.6,0.6-1.1,0.4c-0.4-0.2-0.6-0.7-0.4-1.1c0.4-1.1,1.3-1.5,2.4-1.4c0.8,0,1.6,0.2,1.2-1.2
			c-0.3-0.8,0.3-1.1,1.1-0.9c1.1,0.3,1.9,0.8,3.2,2.2c0.1-0.1,0.2-0.1,0.2-0.2c0.1-2.3,0.4-2.4,2.5-1.4c1.2,0.6,1.9,1.6,2.4,2.8
			c0.8,1.8,2.1,2.4,3.9,2.1c1.5-0.3,2.5-1.6,2.7-3.3c0.1-0.9-0.1-1.5-1.2-1.6c-0.4,0-0.8-0.3-1.2-0.6c-0.5-0.4-1.1-0.9-0.6-1.7
			c0.4-0.6,1.2-0.5,1.8-0.2c0.3,0.2,0.7,0.4,0.9,0.8c0.7,1.1,1.2,0.4,1.5-0.2c0.6-1,0.4-2-0.4-2.9c-0.8-1-2.7-1.4-3.7-0.9
			c-1.4,0.7-2.4,1.8-2.4,3.3c-0.1,1.7,0.9,3,2.3,3.9c0.4,0.3,0.9,0.4,1.3,0.6c0.4,0.2,1.1,0.2,0.8,0.9c-0.3,0.6-0.7,0.9-1.5,0.7
			c-2.1-0.6-4.1-3.1-4.3-5.3c-0.1-1.7,0.6-3,1.6-4.2c-0.5-0.4-1.1-0.2-1.5-0.4c-0.8-0.4-1.5-0.9-1.8-1.8c-0.1-0.4,0.1-0.8,0.4-1
			c0.3-0.2,0.6-0.2,0.9,0c0.3,0.3,0.4,0.6,0.2,0.9c-0.7,1.2,0.3,1.1,0.9,1.2c1.8,0.2,3.7-0.2,5.7,0.3c-0.9-1.5-1.9-2.7-1.9-4.3
			c-0.1-2.7,0.9-4.3,3.3-5.4c1.1-0.5,2.3-0.9,3.5-1.3c1.1-0.4,2-1,2.8-1.9c0.3-0.4,0.4-0.8,0-1.1c-0.5-0.4-0.5,0.2-0.7,0.4
			c-0.3,0.4-0.6,0.5-1,0.3c-0.4-0.2-0.5-0.5-0.4-0.9c0.1-0.4,0.3-0.7,0.7-0.8c0.4-0.1,0.8,0,1.2,0c0-0.1,0-0.2,0-0.2
			c-0.5-0.5-1-1-0.7-1.8c0.1-0.3,0.4-0.6,0.8-0.6c0.8,0,1.3,0.7,1.5,1.3c0.7,2.1,1.1,4.2-0.8,6c-0.4,0.4-0.5,0.8,0,1.2
			c0.6,0.6,1.2,1.2,1.6,2.3c0.2-0.3,0.2-0.4,0.3-0.5c1.2-1.4,2.1-2.7,0.4-4.5c-0.9-1.1-0.4-2.9,0.1-4.3c0.3-0.8,0.8-1.8,1.9-1.3
			c1.1,0.5,0.4,1.4,0.1,2.1c0.2,0.4,0.6,0.2,0.9,0.3c0.4,0.2,0.7,0.4,0.7,0.9c0,0.4-0.2,0.7-0.6,0.8c-0.4,0.2-0.8,0.1-1.1-0.3
			c-0.2-0.2-0.1-0.8-0.7-0.4c-0.4,0.3-0.4,0.7,0,1.1c0.9,1.1,2.2,1.6,3.4,2.1c1,0.3,2,0.6,3,1.1c3.3,1.5,4.3,4.7,2.4,7.9
			C-537.8,391.5-538.2,392-538.6,392.7z M-544,387.3c-0.1-1.2-0.5-2-1.1-2.9c-0.4-0.6-0.8-0.5-1.3-0.1c-1.8,1.7-2,4.8-0.3,6.8
			c0.3,0.4,0.6,0.4,0.9,0C-544.8,390-544.1,388.7-544,387.3z M-549.2,387.1c0-0.8-0.6-1.7-1.3-2.5c-0.6-0.7-1.1-0.5-1.6,0.1
			c-1.3,1.7-0.9,5.1,0.8,6.5c0.5,0.4,0.8,0.2,1.1-0.2C-549.6,389.8-549.2,388.7-549.2,387.1z M-548.5,394.3c2,0.2,3.9,0.4,5.9,0.7
			c0.6,0.1,1,0,1.1-0.7c0.1-0.8-0.5-0.7-1-0.7c-0.3,0-0.7,0-0.9,0.2c-0.6,0.4-1.1,0.3-1.5-0.3c-0.8-0.9-1.9-0.9-2.8-0.2
			c-0.6,0.5-0.9,0.4-1.4-0.1c-0.7-0.6-1.6-0.8-2.3-0.2c-0.9,0.8-1.6,1.1-2.7,0.5c-0.3-0.2-0.8-0.1-1.1,0.3c-0.2,0.2-0.1,0.5,0,0.7
			c0.2,0.5,0.7,0.3,1.1,0.3C-552.3,394.8-550.4,394.6-548.5,394.3z M-557.4,387.9c0.1,1.6,1,2.6,1.9,3.7c0.2,0.3,0.6,0.3,0.7-0.1
			c0.4-1.4,1.1-2.7,0.4-4.1c-0.4-0.8-1-1.7-1.9-1.5C-557.2,386-557.2,387.1-557.4,387.9z M-542.9,388.9c0.2,0.9,0,2.5,0.9,2.7
			c0.9,0.2,1.4-1.3,1.9-2.2c0.7-1.2,0.4-2.3-0.3-3.4c-0.2-0.4-0.6-0.3-0.9-0.1C-542.4,386.5-542.9,387.5-542.9,388.9z M-549.9,380.6
			c-1.8,2.3-5.2,1.9-7.1,4.3c1.5-0.2,2.3,0.8,3.3,1.7C-553.4,383.9-550.8,382.8-549.9,380.6z M-547.1,380.6c0.1,0.8,0.5,1.3,1.1,1.8
			c0.8,0.6,1.4,1.4,2,2.3c0.3,0.5,0.4,1.4,0.8,1.5c0.6,0.2,1-0.7,1.5-1c1.4-0.8,1.3-1-0.1-1.7C-543.6,382.6-545.7,382.2-547.1,380.6
			z"/>
		<path id="XMLID_12_" class="st0" d="M-519.5,428.9c-2.8,0-5.6,0-8.4,0c-0.4,0-1.2,0.2-1.2-0.4s0.7-0.4,1.1-0.4
			c5.7,0,11.4,0,17.1,0c0.2,0,0.3,0,0.5,0c0.3,0,0.6,0.1,0.6,0.4c0,0.4-0.4,0.4-0.7,0.4c-0.4,0-0.9,0-1.3,0
			C-514.3,428.9-516.9,428.9-519.5,428.9z"/>
		<path id="XMLID_11_" class="st0" d="M-577.7,428.9c-2.8,0-5.7,0-8.5,0c-0.4,0-1.1,0.2-1.1-0.4s0.7-0.4,1.1-0.4
			c5.7,0,11.5,0,17.2,0c0.4,0,1-0.2,1,0.5c0,0.5-0.6,0.4-1,0.4C-572,428.9-574.8,428.8-577.7,428.9z"/>
		<path id="XMLID_10_" class="st0" d="M-550.7,401.5c-0.1-0.5,0.2-0.8,0.3-1.2c0.2-0.9-0.2-1.7-0.9-2.2c-0.5-0.3-1.1-0.6-1.1,0.4
			c0,0.5-0.2,0.8-0.7,0.9c-0.4,0.1-0.8-0.2-0.9-0.6c-0.2-0.5,0-0.8,0.3-1.2c0.8-0.8,2.8-0.7,3.5,0.3
			C-549.4,399.1-549.6,400.7-550.7,401.5z"/>
		<path id="XMLID_9_" class="st0" d="M-546.6,401.2c-1-1-1.1-2.3-0.1-3.3c0.8-0.8,2.6-0.9,3.4-0.2c0.4,0.4,0.5,0.8,0.3,1.3
			c-0.1,0.4-0.4,0.6-0.8,0.5c-0.5-0.1-0.7-0.4-0.7-0.9c0-1.1-0.6-0.8-1.1-0.4c-0.6,0.4-0.9,1-1,1.7
			C-546.6,400.3-546.3,400.8-546.6,401.2z"/>
	</g>
</g>
<g id="Layer_2">
	<text id="XMLID_8_" transform="matrix(1 0 0 1 -588.2935 422.2774)" class="st0 st1 st2">PARIMIS</text>
</g>
<g id="Layer_3">
	<polygon id="XMLID_7_" class="st0" points="-548.2,424.4 -547.1,426.8 -544.4,427.2 -546.3,429 -545.9,431.7 -548.2,430.4 
		-550.6,431.7 -550.1,429 -552,427.2 -549.4,426.8 	"/>
	<polygon id="XMLID_6_" class="st0" points="-556.2,425.1 -555.2,427 -553.1,427.3 -554.6,428.9 -554.3,431 -556.2,430 -558.1,431 
		-557.7,428.9 -559.3,427.3 -557.2,427 	"/>
	<polygon id="XMLID_5_" class="st0" points="-563,425.8 -562.3,427.3 -560.8,427.5 -561.9,428.6 -561.6,430.2 -563,429.5 
		-564.5,430.2 -564.2,428.6 -565.4,427.5 -563.8,427.3 	"/>
	<polygon id="XMLID_4_" class="st0" points="-562.8,425.8 -562.1,427.3 -560.5,427.5 -561.6,428.6 -561.4,430.2 -562.8,429.5 
		-564.2,430.2 -563.9,428.6 -565.1,427.5 -563.5,427.3 	"/>
	<polygon id="XMLID_3_" class="st0" points="-540.1,425.1 -541,427 -543.2,427.3 -541.6,428.9 -542,431 -540.1,430 -538.1,431 
		-538.5,428.9 -536.9,427.3 -539.1,427 	"/>
	<polygon id="XMLID_2_" class="st0" points="-533.7,425.8 -534.4,427.3 -536,427.5 -534.9,428.6 -535.2,430.2 -533.7,429.5 
		-532.3,430.2 -532.6,428.6 -531.4,427.5 -533,427.3 	"/>
	<polygon id="XMLID_1_" class="st0" points="-533.5,425.8 -534.2,427.3 -535.8,427.5 -534.6,428.6 -534.9,430.2 -533.5,429.5 
		-532,430.2 -532.3,428.6 -531.2,427.5 -532.7,427.3 	"/>
</g>
</svg>
